<?xml version="1.0" encoding="UTF-8"?>
<svg id="_레이어_1" data-name="레이어 1" xmlns="http://www.w3.org/2000/svg" viewBox="0 0 200 50">
  <defs>
    <style>
      .cls-1 {
        fill: #1662a1;
      }

      .cls-2 {
        fill: #f6dd05;
      }

      .cls-3 {
        fill: #12599d;
      }

      .cls-4 {
        fill: #d6c10d;
      }

      .cls-5 {
        fill: #fedf3b;
      }

      .cls-6 {
        fill: #4fc6d5;
      }

      .cls-7 {
        fill: #608db9;
      }

      .cls-8 {
        fill: #024c8c;
      }

      .cls-9 {
        fill: #325171;
      }

      .cls-10 {
        fill: #fdfdfe;
      }

      .cls-11 {
        fill: #0a325b;
      }

      .cls-12 {
        fill: #374a63;
      }

      .cls-13 {
        fill: #cbeef2;
      }

      .cls-14 {
        fill: #133751;
      }

      .cls-15 {
        fill: #022854;
      }

      .cls-16 {
        fill: #195898;
      }

      .cls-17 {
        fill: #062342;
      }

      .cls-18 {
        fill: #0a3059;
      }

      .cls-19 {
        fill: #4679af;
      }

      .cls-20 {
        fill: #4e5a3f;
      }

      .cls-21 {
        fill: #082f58;
      }

      .cls-22 {
        fill: #01336e;
      }

      .cls-23 {
        fill: #061b36;
      }

      .cls-24 {
        fill: #f5fcfc;
      }

      .cls-25 {
        fill: #183f62;
      }

      .cls-26 {
        fill: #566f86;
      }

      .cls-27 {
        fill: #7ca2c6;
      }

      .cls-28 {
        fill: #142743;
      }

      .cls-29 {
        fill: #145596;
      }

      .cls-30 {
        fill: #3aafe1;
      }

      .cls-31 {
        fill: #31c2cd;
      }

      .cls-32 {
        fill: #dfcb0d;
      }

      .cls-33 {
        fill: #304547;
      }

      .cls-34 {
        fill: #41bfc9;
      }

      .cls-35 {
        fill: #2f4354;
      }

      .cls-36 {
        fill: #1a5b9b;
      }

      .cls-37 {
        fill: #2d4753;
      }

      .cls-38 {
        fill: #052852;
      }

      .cls-39 {
        fill: #4c6277;
      }

      .cls-40 {
        fill: #155695;
      }

      .cls-41 {
        fill: #4ec2f0;
      }

      .cls-42 {
        fill: #1e364e;
      }

      .cls-43 {
        fill: #6c97c0;
      }

      .cls-44 {
        fill: #0f3259;
      }

      .cls-45 {
        fill: #aec2d7;
      }

      .cls-46 {
        fill: #5e8db9;
      }

      .cls-47 {
        fill: #40bcc7;
      }

      .cls-48 {
        fill: #fadf06;
      }

      .cls-49 {
        fill: #1a5a9b;
      }

      .cls-50 {
        fill: #e8d50b;
      }

      .cls-51 {
        fill: #031f3c;
      }

      .cls-52 {
        fill: #bfe0e9;
      }

      .cls-53 {
        fill: #3fb4e6;
      }

      .cls-54 {
        fill: #e8d733;
      }

      .cls-55 {
        fill: #3b74aa;
      }

      .cls-56 {
        fill: #1e5e9c;
      }

      .cls-57 {
        fill: #185898;
      }

      .cls-58 {
        fill: #073058;
      }

      .cls-59 {
        fill: #0b1b35;
      }

      .cls-60 {
        fill: #1b5c9a;
      }

      .cls-61 {
        fill: #316aa3;
      }

      .cls-62 {
        fill: #2db6c2;
      }

      .cls-63 {
        fill: #7ba1c6;
      }

      .cls-64 {
        fill: #618eb9;
      }

      .cls-65 {
        fill: #24b3c8;
      }

      .cls-66 {
        fill: #2f4e70;
      }

      .cls-67 {
        fill: #1ec1cc;
      }

      .cls-68 {
        fill: #bfb21b;
      }

      .cls-69 {
        fill: #f3f6f8;
      }

      .cls-70 {
        fill: #dbca10;
      }

      .cls-71 {
        fill: #0d2240;
      }

      .cls-72 {
        fill: #0e386f;
      }

      .cls-73 {
        fill: #456381;
      }

      .cls-74 {
        fill: #fade03;
      }

      .cls-75 {
        fill: #4e6379;
      }

      .cls-76 {
        fill: #165899;
      }

      .cls-77 {
        fill: #195a9b;
      }

      .cls-78 {
        fill: #0765b1;
      }

      .cls-79 {
        fill: #6992be;
      }

      .cls-80 {
        fill: #0d3159;
      }

      .cls-81 {
        fill: #f2b705;
      }

      .cls-82 {
        fill: #1b5d9d;
      }

      .cls-83 {
        fill: #2c4d6f;
      }

      .cls-84 {
        fill: #175899;
      }

      .cls-85 {
        fill: #135899;
      }

      .cls-86 {
        fill: #052256;
      }

      .cls-87 {
        fill: #092343;
      }

      .cls-88 {
        fill: #03245a;
      }

      .cls-89 {
        fill: #1b316c;
      }

      .cls-90 {
        fill: #467aaf;
      }

      .cls-91 {
        fill: #0169b0;
      }

      .cls-92 {
        fill: #081e35;
      }

      .cls-93 {
        fill: #fbfbfc;
      }

      .cls-94 {
        fill: #032c67;
      }

      .cls-95 {
        fill: #013d7a;
      }

      .cls-96 {
        fill: #0f2f5f;
      }

      .cls-97 {
        fill: #0f2745;
      }

      .cls-98 {
        fill: #11335b;
      }

      .cls-99 {
        fill: #283f5a;
      }

      .cls-100 {
        fill: #2dbbcf;
      }

      .cls-101 {
        fill: #cfbe0f;
      }

      .cls-102 {
        fill: #3d76ac;
      }

      .cls-103 {
        fill: #ebd809;
      }

      .cls-104 {
        fill: #51667b;
      }

      .cls-105 {
        fill: #1a5d9a;
      }

      .cls-106 {
        fill: #64d7e2;
      }

      .cls-107 {
        fill: #0d324e;
      }

      .cls-108 {
        fill: #4d657e;
      }

      .cls-109 {
        fill: #175a9c;
      }

      .cls-110 {
        fill: #fde205;
      }

      .cls-111 {
        fill: #06275a;
      }

      .cls-112 {
        fill: #234766;
      }

      .cls-113 {
        fill: #3771a9;
      }

      .cls-114 {
        fill: #1b5c9c;
      }

      .cls-115 {
        fill: #155797;
      }

      .cls-116 {
        fill: #e2d30b;
      }

      .cls-117 {
        fill: #0173bc;
      }

      .cls-118 {
        fill: #3b4f4b;
      }

      .cls-119 {
        fill: #1f67a4;
      }

      .cls-120 {
        fill: #2cb9c3;
      }

      .cls-121 {
        fill: #0a2846;
      }

      .cls-122 {
        fill: #eaf9f9;
      }

      .cls-123 {
        fill: #4f80b0;
      }

      .cls-124 {
        fill: #1c5f9e;
      }

      .cls-125 {
        fill: #0b2c49;
      }

      .cls-126 {
        fill: #4d7fb1;
      }

      .cls-127 {
        fill: #0c3159;
      }

      .cls-128 {
        fill: #0a3159;
      }

      .cls-129 {
        fill: #fbe204;
      }

      .cls-130 {
        fill: #76d0f2;
      }

      .cls-131 {
        fill: #41bdc7;
      }

      .cls-132 {
        fill: #062860;
      }

      .cls-133 {
        fill: #02295b;
      }

      .cls-134 {
        fill: #145898;
      }

      .cls-135 {
        fill: #fee530;
      }

      .cls-136 {
        fill: #8fd1ed;
      }

      .cls-137 {
        fill: #23374b;
      }

      .cls-138 {
        fill: #1dc2d2;
      }

      .cls-139 {
        fill: #195b99;
      }

      .cls-140 {
        fill: #0d2342;
      }

      .cls-141 {
        fill: #072856;
      }

      .cls-142 {
        fill: #1f2a44;
      }

      .cls-143 {
        fill: #24405b;
      }

      .cls-144 {
        fill: #2865a0;
      }

      .cls-145 {
        fill: #efeff0;
      }

      .cls-146 {
        fill: #374a3f;
      }

      .cls-147 {
        fill: #2a3f44;
      }

      .cls-148 {
        fill: #09285e;
      }

      .cls-149 {
        fill: #e5d30e;
      }

      .cls-150 {
        fill: #364e81;
      }

      .cls-151 {
        fill: #dce5ef;
      }

      .cls-152 {
        fill: #195999;
      }

      .cls-153 {
        fill: #30cfd2;
      }

      .cls-154 {
        fill: #45c2d2;
      }

      .cls-155 {
        fill: #031e3c;
      }

      .cls-156 {
        fill: #325e94;
      }

      .cls-157 {
        fill: #0c324f;
      }

      .cls-158 {
        fill: #0d2f4c;
      }

      .cls-159 {
        fill: #082744;
      }

      .cls-160 {
        fill: #1b5c9b;
      }

      .cls-161 {
        fill: #091d37;
      }

      .cls-162 {
        fill: #253a55;
      }

      .cls-163 {
        fill: #214267;
      }

      .cls-164 {
        fill: #7ca1c4;
      }

      .cls-165 {
        fill: #013069;
      }

      .cls-166 {
        fill: #255a99;
      }

      .cls-167 {
        fill: #3974ae;
      }

      .cls-168 {
        fill: #092658;
      }

      .cls-169 {
        fill: #072442;
      }

      .cls-170 {
        fill: #3a73a8;
      }

      .cls-171 {
        fill: #2ab9cb;
      }

      .cls-172 {
        fill: #0b325a;
      }

      .cls-173 {
        fill: #082242;
      }

      .cls-174 {
        fill: #185b9b;
      }

      .cls-175 {
        fill: #5383b3;
      }

      .cls-176 {
        fill: #6491bd;
      }

      .cls-177 {
        fill: #fcd209;
      }

      .cls-178 {
        fill: #13589c;
      }

      .cls-179 {
        fill: #245597;
      }

      .cls-180 {
        fill: #6591bc;
      }

      .cls-181 {
        fill: #0b5192;
      }

      .cls-182 {
        fill: #3d5c7c;
      }

      .cls-183 {
        fill: #0371b9;
      }

      .cls-184 {
        fill: #305375;
      }

      .cls-185 {
        fill: #36c8d8;
      }

      .cls-186 {
        fill: #05213f;
      }

      .cls-187 {
        fill: #47c9d5;
      }

      .cls-188 {
        fill: #f7f8f9;
      }

      .cls-189 {
        fill: #ead121;
      }

      .cls-190 {
        fill: #1062a0;
      }
    </style>
  </defs>
  <g>
    <path class="cls-144" d="M6.09,0c.07,0,.13,0,.2,0,.22,0,.44,0,.66,0,.16,0,.32,0,.48,0,.44,0,.88,0,1.32,0,.47,0,.95,0,1.42,0,.93,0,1.86,0,2.79,0,.76,0,1.51,0,2.27,0,.11,0,.21,0,.33,0,.22,0,.44,0,.65,0,2.05,0,4.1,0,6.14,0,1.76,0,3.52,0,5.28,0C29.68,0,31.72,0,33.76,0c.22,0,.43,0,.65,0,.11,0,.21,0,.32,0,.76,0,1.51,0,2.27,0,.92,0,1.84,0,2.76,0,.47,0,.94,0,1.41,0,.43,0,.86,0,1.29,0,.16,0,.31,0,.47,0,.21,0,.42,0,.63,0,.12,0,.23,0,.36,0,.25.01.45.04.69.11v.2c.23.03.45.06.68.1v.2c.16.03.32.06.49.1v.2c.16.03.32.06.49.1v.2c.07,0,.15.01.22.02.35.1.45.27.66.57.07.07.15.14.22.21q.17.18.17.37c.1.03.19.06.29.1v.2c.1.03.19.06.29.1v.2h.2c.03.1.06.19.1.29l.2.1q.06.25.1.49h.2c.12.28.2.47.2.78h.2c.03.26.06.52.1.78h.2c.19.9.22,1.78.22,2.7,0,.15,0,.3,0,.46,0,.41,0,.83,0,1.24,0,.45,0,.9,0,1.35,0,.88,0,1.76,0,2.63,0,.71,0,1.43,0,2.14,0,.1,0,.2,0,.31,0,.21,0,.41,0,.62,0,1.94,0,3.87,0,5.81,0,1.66,0,3.32,0,4.98,0,1.93,0,3.86,0,5.79,0,.21,0,.41,0,.62,0,.1,0,.2,0,.31,0,.71,0,1.42,0,2.14,0,.87,0,1.74,0,2.61,0,.44,0,.89,0,1.33,0,.41,0,.81,0,1.22,0,.15,0,.29,0,.44,0,.85-.05,1.66-.22,2.49h-.2c-.03.29-.06.58-.1.88h-.2c-.01.07-.03.15-.04.23q-.05.26-.15.56h-.2c-.01.07-.02.15-.03.23-.07.28-.13.38-.36.56h-.2c-.03.13-.06.26-.1.39h-.2c-.03.1-.06.19-.1.29h-.2c-.03.07-.05.15-.08.23-.11.26-.18.39-.41.56q-.26.07-.49.1c-.03.1-.06.19-.1.29h-.29v.2c-.13.03-.26.06-.39.1v.2c-.19.03-.39.06-.59.1v.2c-.23.03-.45.06-.68.1v.2c-.39.09-.75.11-1.15.11-.07,0-.13,0-.2,0-.22,0-.44,0-.66,0-.16,0-.32,0-.48,0-.44,0-.87,0-1.31,0-.47,0-.94,0-1.41,0-.92,0-1.84,0-2.76,0-.75,0-1.5,0-2.24,0-.11,0-.21,0-.32,0-.22,0-.43,0-.65,0-2.03,0-4.05,0-6.08,0-1.74,0-3.48,0-5.22,0-2.02,0-4.04,0-6.06,0-.22,0-.43,0-.65,0-.11,0-.21,0-.32,0-.75,0-1.49,0-2.24,0-.91,0-1.82,0-2.73,0-.46,0-.93,0-1.39,0-.43,0-.85,0-1.28,0-.15,0-.31,0-.46,0-.21,0-.42,0-.63,0-.12,0-.23,0-.35,0-.28-.01-.53-.05-.79-.11v-.2c-.23-.03-.45-.06-.68-.1v-.2c-.19-.03-.39-.06-.59-.1v-.2c-.13-.03-.26-.06-.39-.1v-.2c-.13-.03-.26-.06-.39-.1v-.2c-.13-.03-.26-.06-.39-.1v-.2c-.06,0-.12-.01-.18-.02-.07-.03-.14-.05-.21-.08-.07-.16-.13-.32-.2-.49-.1-.03-.19-.06-.29-.1v-.2c-.1-.03-.19-.06-.29-.1v-.29h-.2c-.03-.08-.06-.16-.09-.24q-.08-.26-.31-.35-.39-.62-.39-.98h-.2c-.07-.21-.13-.43-.2-.64-.04-.12-.07-.24-.11-.36-.08-.36-.1-.68-.09-1.05h-.2V6.56H-.03c.03-.39.06-.77.1-1.17h.2c.03-.26.06-.52.1-.78h.2c.01-.07.03-.15.04-.23q.05-.26.15-.56h.2c.01-.08.02-.16.04-.24.02-.08.04-.17.06-.25q.1-.05.2-.1c.03-.1.06-.19.1-.29h.2c.03-.1.06-.19.1-.29h.2c.03-.1.06-.19.1-.29h.2c.02-.07.04-.15.07-.22.15-.32.32-.46.62-.66h.2v-.2l.39-.1v-.2l.49-.1v-.2l.49-.1v-.2q.34-.05.68-.1V.11C5.4,0,5.72,0,6.09,0Z"/>
    <path class="cls-25" d="M25.17,8.02q.28.13.49.29v.2c.1.03.21.06.32.09q.37.11.57.21c.25.12.5.15.78.19v.2c.07.01.14.02.22.04.26.06.48.14.72.24.55.22,1.1.4,1.66.58.1.03.2.06.3.09.24.07.48.15.72.22v.2c.1.01.19.02.29.03.4.06.78.17,1.17.29.15.04.3.09.45.13.26.08.52.16.78.24.91.26,1.83.41,2.76.54.81.12,1.57.3,2.36.53q.06,4.79-.25,7.02c-.04.32-.08.65-.11.97-.19,1.83-.56,3.54-1.1,5.29-.04.13-.08.26-.12.39-.09.29-.18.59-.27.88h-.2c-.01.07-.02.14-.04.22-.1.44-.28.84-.45,1.25-.03.08-.07.15-.1.23-.15.34-.3.67-.49.99-.21.37-.34.72-.48,1.12h-.2c-.02.07-.05.13-.07.2-.14.33-.33.63-.53.93-.04.06-.08.12-.12.18-1.99,3.03-4.58,5.37-7.66,7.25-.08.05-.17.1-.26.16-.08.05-.16.09-.24.14-.07.04-.14.08-.21.13q-.19.09-.48.09c-.03.1-.06.19-.1.29-.46.11-.7.09-1.12-.13q-.15-.08-.3-.16t-.34-.19c-.06-.04-.13-.07-.2-.11-.2-.12-.41-.23-.61-.35-.07-.04-.13-.08-.2-.11-.16-.09-.31-.2-.46-.3v-.2l-.2-.07c-.37-.16-.67-.38-.99-.62-.06-.05-.13-.1-.2-.14-.47-.35-.91-.72-1.34-1.12-.18-.17-.37-.33-.57-.49-.3-.26-.56-.54-.82-.85-.21-.25-.44-.49-.66-.73-.37-.41-.72-.82-1.06-1.26-.04-.05-.09-.11-.13-.17q-.3-.39-.3-.61h-.2c-.03-.05-.06-.11-.09-.16-.36-.66-.73-1.32-1.1-1.97-.05-.09-.1-.18-.15-.27q-.28-.49-.57-.97c-.2-.34-.31-.7-.43-1.07q-.08-.25-.29-.43-.05-.17-.09-.38c-.07-.34-.16-.65-.29-.97-.19-.51-.34-1.03-.48-1.56-.02-.08-.04-.16-.07-.24-.1-.39-.18-.73-.15-1.14h-.2l-.39-2.15c-.02-.08-.03-.16-.05-.24-.13-.65-.19-1.28-.23-1.94,0-.1-.01-.2-.02-.31-.02-.33-.04-.65-.06-.98q0-.17-.02-.34c-.1-1.67-.16-3.32-.11-4.99.44-.16.85-.24,1.31-.29.49-.06.94-.15,1.42-.29.3-.05.59-.1.89-.14.28-.05.51-.15.77-.25.25-.06.51-.12.76-.18.71-.16,1.4-.36,2.09-.58.33-.11.66-.2.99-.3.6-.18,1.18-.41,1.77-.64.36-.14.73-.28,1.1-.4.33-.11.63-.23.93-.39.24-.12.47-.24.71-.34.22-.09.42-.19.62-.3.35-.17.59-.24.98-.18Z"/>
    <path class="cls-107" d="M24.68,8.12h.39c.03.1.06.19.1.29.1.01.2.02.3.03.4.07.7.2,1.07.36.26.07.52.14.78.2v.2q.11.02.22.04c.26.06.48.14.72.24.55.22,1.1.4,1.66.58.1.03.2.06.3.09.24.07.48.15.72.22v.2q.15.02.29.03c.4.06.78.17,1.17.29.15.04.3.09.45.13.26.08.52.16.78.24.91.26,1.83.41,2.76.54.81.12,1.57.3,2.36.53q.06,4.79-.25,7.02c-.04.32-.08.65-.11.97-.19,1.83-.56,3.54-1.1,5.29-.04.13-.08.26-.12.39-.09.29-.18.59-.27.88h-.2c-.01.07-.02.14-.04.22-.1.44-.28.84-.45,1.25-.03.08-.07.15-.1.23-.15.34-.3.67-.49.99-.21.37-.34.72-.48,1.12h-.2q-.04.1-.07.2c-.14.33-.33.63-.53.93-.04.06-.08.12-.12.18-1.99,3.03-4.57,5.34-7.63,7.24-.08.05-.16.1-.24.15-.08.05-.15.09-.23.14q-.1.06-.2.13-.25.1-1.13.2c-.03-2.42-.06-4.84-.1-7.33-.26-.06-.52-.13-.78-.2q.05-.1.1-.2c.08.01.16.02.25.03.11.01.21.02.32.04.11.01.21.02.32.04q.28.02.44-.14c.04-.05.09-.11.14-.16q.19-.09.43-.17c.09-.03.19-.07.29-.1.12-.04.23-.08.36-.12.25-.09.49-.17.74-.26.17-.06.34-.12.51-.18.38-.13.76-.27,1.14-.42q.35-.13.64-.13v-.2c.06-.02.12-.05.19-.07.41-.16.82-.33,1.22-.51q.09-.04.18-.09c.22-.15.32-.27.46-.5.03-.28.04-.53.04-.81q0-.12,0-.25c0-.27,0-.54,0-.8,0-.19,0-.37,0-.56,0-.39,0-.78,0-1.17,0-.5,0-1,0-1.5,0-.38,0-.77,0-1.15,0-.18,0-.37,0-.55,0-.26,0-.52,0-.77,0-.08,0-.15,0-.23,0-.41-.06-.64-.35-.94-.32-.3-.65-.37-1.08-.43q-.1-.02-.2-.03c-.16-.03-.33-.05-.49-.08,0-.09,0-.18,0-.27,0-.33-.02-.66-.03-.99,0-.14,0-.28-.01-.43,0-.21-.01-.41-.02-.62,0-.12,0-.25-.01-.37-.02-.35-.06-.69-.12-1.04h-.2q-.05-.34-.1-.68h-.2c-.04-.11-.08-.22-.13-.33-.55-1.08-1.63-1.67-2.7-2.11-.42-.12-.83-.12-1.26-.12q-.12,0-.24,0c-.43,0-.74.03-1.14.22q-.32.01-.59,0c.23-.28.42-.34.78-.39v-.2h1.17c-.03-1.48-.06-2.97-.1-4.49Z"/>
    <path class="cls-177" d="M26.64,13.24c.83.45,1.87,1.1,2.24,2.01v.29h.2q.05.34.1.68h.2c.16.49.22.89.21,1.41,0,.07,0,.13,0,.2,0,.21,0,.42,0,.63,0,.14,0,.29,0,.43,0,.35,0,.7,0,1.04q.16,0,.33,0c.3,0,.52.02.8.11.07.02.14.04.21.06.33.18.59.4.81.71.08.28.08.54.07.83,0,.08,0,.16,0,.25,0,.27,0,.53,0,.8,0,.19,0,.37,0,.56,0,.39,0,.78,0,1.17,0,.5,0,1,0,1.5,0,.38,0,.77,0,1.15,0,.18,0,.37,0,.55,0,.26,0,.51,0,.77q0,.11,0,.23c-.01.57-.16.8-.56,1.19-.5.31-1.07.54-1.66.59v.2c-.51.19-1.02.37-1.54.55q-1.53.42-2.86,1.21c-.47.07-.76-.07-1.17-.29-.52-.27-1.09-.44-1.65-.61q-.21-.08-.45-.23c-.28-.16-.55-.25-.86-.34-.56-.17-1.1-.36-1.64-.59v-.2c-.07,0-.14-.02-.21-.02-.46-.12-.86-.39-1.16-.76-.12-.36-.12-.69-.12-1.06,0-.08,0-.16,0-.24-.01-.81-.02-1.63-.02-2.44,0-.39,0-.77-.01-1.16,0-.47-.01-.93-.01-1.4,0-.18,0-.35,0-.53q-.03-1.56.37-2.07c.37-.33.67-.4,1.16-.43.07,0,.13-.01.2-.02.16-.01.32-.02.49-.03,0-.08,0-.17,0-.25q.05-3.95,1.17-5.12c.06-.07.11-.13.17-.2.55-.62,1.23-.93,1.98-1.26.08-.04.15-.08.23-.11.94-.3,2.11-.15,2.99.25Z"/>
    <path class="cls-69" d="M25.54,7.05c.11.09.22.17.33.26.25.18.51.25.81.34.71.23,1.4.56,2.08.87.58.27,1.14.52,1.77.65.58.13,1.13.33,1.68.52,1.31.46,2.62.79,3.99,1.02q.2.04.4.14c.26.04.52.07.78.1q.76.08.98.2c.21.02.42.02.64.03.35.1.61.27.83.55.08.29.07.56.06.86,0,.08,0,.16,0,.25,0,.26-.01.52-.02.78,0,.18,0,.35,0,.53,0,.43-.02.86-.03,1.3.07,0,.14,0,.21,0,.66,0,1.33-.01,1.99-.01.34,0,.68,0,1.02,0,.39,0,.78,0,1.17,0,.12,0,.24,0,.37,0q.17,0,.34,0c.1,0,.2,0,.3,0q.25.04.43.16t.11.56h-6.06v1.37c-.02.42-.05.83-.08,1.25q-.01.15-.02.31c-.07.89-.22,1.76-.39,2.64.07,0,.14,0,.21,0,.67,0,1.34-.01,2-.02.34,0,.69,0,1.03,0,.4,0,.79,0,1.19,0,.12,0,.25,0,.37,0,.67,0,1.1.03,1.64.43q.2.2.2.59c-.1-.03-.19-.06-.29-.1-.21-.01-.42-.02-.63-.02-.06,0-.13,0-.19,0-.21,0-.42,0-.63,0-.15,0-.29,0-.44,0-.38,0-.77-.01-1.15-.01-.39,0-.79-.01-1.18-.02-.77-.01-1.54-.02-2.31-.03,0,.07-.01.14-.02.22,0,.1-.02.19-.02.29,0,.09-.02.19-.02.29-.05.39-.15.75-.27,1.12-.04.14-.09.29-.13.43q-.03.1-.06.2c-.07.23-.12.47-.17.7q-.08.36-.18.55c-.11.22-.15.4-.19.64-.07.35-.17.55-.4.83-.04.16-.07.32-.1.49q.14,0,.28,0c.88,0,1.75-.01,2.63-.01.45,0,.9,0,1.35,0,.43,0,.87,0,1.3,0,.17,0,.33,0,.5,0,.23,0,.46,0,.7,0,.07,0,.14,0,.21,0,.55,0,.99.14,1.44.47q.1.15.1.54-4.45-.05-8.99-.1v.29h-.2c-.01.05-.02.1-.03.15-.47,1.66-1.64,3.21-2.7,4.54-.08.1-.15.19-.23.29-.57.72-1.19,1.39-1.82,2.05q-.1.11-.21.22c-.51.53-1.07.98-1.65,1.44q-.14.12-.29.24c-1.13.9-2.37,1.61-3.62,2.32-.07.04-.13.08-.2.11q-.46.26-.68.26v.2c-.13,0-.26.01-.4.02q-.11,0-.22.01c-2.66-.29-5.62-3.33-7.41-5.1-.08-.08-.16-.16-.25-.24q-.11-.11-.23-.23-.1-.1-.21-.21-.17-.21-.27-.47c-.03-.07-.06-.15-.09-.22-.1-.03-.19-.06-.29-.1q-.2-.23-.42-.53-.06-.08-.12-.16c-.12-.16-.23-.32-.35-.48-.06-.07-.11-.15-.17-.22-.43-.58-.78-1.2-1.14-1.82-.05-.09-.1-.18-.16-.27q-.07-.13-.15-.26c-.04-.08-.09-.16-.13-.24-.1-.2-.16-.39-.21-.61h-.2c-.13-.29-.26-.58-.39-.88-1.12,0-2.23,0-3.35,0-.52,0-1.04,0-1.56,0-.5,0-1,0-1.5,0-.19,0-.38,0-.57,0-.27,0-.53,0-.8,0-.08,0-.16,0-.24,0q-.4,0-.77.11c.03-.33.09-.48.3-.75.36-.29.62-.3,1.06-.29.08,0,.15,0,.23,0,.25,0,.5,0,.75,0,.17,0,.35,0,.52,0,.46,0,.92,0,1.38.01.47,0,.94,0,1.4,0,.92,0,1.84.01,2.75.02-.06-.19-.12-.37-.18-.56-.03-.1-.07-.21-.1-.32-.09-.24-.18-.46-.3-.69-.05-.18-.09-.36-.13-.54-.07-.3-.16-.59-.24-.88-.15-.52-.29-1.04-.43-1.56q-.03-.1-.05-.19c-.1-.4-.12-.7-.12-1.12-2.13.03-4.25.06-6.45.1q.2-.39.39-.59.24-.03.55-.03.17,0,.35,0c.13,0,.25,0,.38,0,.13,0,.26,0,.39,0,.34,0,.68,0,1.02-.01.35,0,.69,0,1.04-.01.68,0,1.36-.02,2.04-.03.03-.1.06-.19.1-.29-.08,0-.15,0-.23,0-.72,0-1.43.01-2.15.02-.37,0-.74,0-1.11,0-.36,0-.71,0-1.07,0-.14,0-.27,0-.41,0-.19,0-.38,0-.57,0q-.16,0-.33,0c-.36-.06-.52-.18-.78-.44-.09-.28-.11-.47-.11-.77,0-.1,0-.19,0-.29,0-.1,0-.21,0-.31,0-.11,0-.21,0-.32,0-.23,0-.45,0-.68,0-.35,0-.69-.01-1.04,0-.22,0-.44,0-.66,0-.1,0-.21,0-.31q0-.72.23-1.1c.32-.29.51-.29.93-.29q.17,0,.34,0c.12,0,.24,0,.37,0,.12,0,.25,0,.37,0,.33,0,.66,0,.98,0,.33,0,.67,0,1,0,.66,0,1.31,0,1.97,0,0-.11,0-.22,0-.33,0-.41-.01-.82-.02-1.23,0-.18,0-.35-.01-.53,0-.25,0-.51-.01-.76,0-.08,0-.16,0-.24,0-.41.02-.57.28-.91.25-.18.36-.26.66-.27.07,0,.15-.01.22-.02q.12,0,.24-.01c1.37-.11,2.67-.44,3.98-.84.4-.12.8-.23,1.2-.33.88-.23,1.76-.49,2.63-.78.09-.03.19-.06.29-.09.57-.19,1.11-.41,1.65-.67.25-.11.48-.17.75-.22.12-.03.25-.05.38-.08.03-.06.06-.13.1-.2.2-.07.41-.13.61-.19.43-.12.77-.26,1.15-.49h.2v-.2c.47-.13,1.01-.24,1.45,0ZM24.03,8.3c-.36.19-.75.34-1.13.49-.21.09-.42.18-.63.27-.97.41-1.97.77-2.97,1.12q-.1.03-.2.07c-.66.22-1.33.42-2,.62-.11.03-.23.07-.35.1-.55.16-1.1.32-1.67.43q-.21.04-.5.15c-.3.1-.58.15-.89.19-.47.07-.93.15-1.39.24-.4.08-.79.14-1.19.2q-.23.02-.33.14c-.15,1.76.03,3.58.13,5.33,0,.11.01.22.02.33.02.32.04.64.06.96,0,.09.01.19.02.29.04.64.14,1.26.26,1.89.13.72.26,1.43.39,2.15h.2c.01.11.02.21.03.32.07.54.21,1.06.35,1.59.03.1.05.2.08.3.14.53.3,1.01.52,1.5q.05.17.09.34c.1.33.23.61.39.92.08.17.16.34.23.51.21.5.48.97.74,1.44.05.09.1.18.15.28.3.54.6,1.07.92,1.6q.12.19.21.39h.2c.02.05.05.1.07.16.16.3.36.56.57.83.04.06.09.11.13.17.34.43.69.84,1.06,1.24.22.24.44.49.66.74.38.42.78.79,1.21,1.15.08.07.16.14.24.21.49.41,1,.8,1.52,1.17q.08.06.17.12.28.21.61.27v.2q.18.13.4.27.13.08.26.15c.09.05.18.11.27.16.09.05.17.11.26.16q.83.54,1.77.7.12-.03.25-.07c.03-.1.06-.19.1-.29.07-.01.14-.02.22-.03.29-.07.47-.16.72-.32.08-.05.17-.1.25-.16.09-.06.18-.11.27-.17.09-.06.18-.12.28-.17,2.26-1.43,4.36-3.15,5.98-5.3.04-.06.08-.11.13-.17q1.12-1.29,1.73-2.76c.1-.03.19-.06.29-.1.07-.18.14-.37.21-.56.08-.22.19-.41.31-.61.24-.42.41-.85.58-1.29.03-.07.05-.13.08-.2.13-.34.23-.68.29-1.04h.2c.27-.86.54-1.72.79-2.58q.04-.12.07-.24c.4-1.38.56-2.82.71-4.25.02-.15.03-.3.05-.46.02-.15.03-.3.05-.45,0-.07.01-.13.02-.2.02-.21.04-.42.06-.63q.01-.14.03-.27c.06-.67.08-1.34.08-2.02,0-.1,0-.2,0-.3,0-.32,0-.63,0-.95,0-.22,0-.43,0-.65,0-.52,0-1.05,0-1.57-.46-.13-.91-.24-1.37-.33-.07-.01-.13-.03-.2-.04-.38-.07-.76-.14-1.14-.2-1.27-.21-2.48-.53-3.7-.9-.06-.02-.13-.04-.19-.06-.17-.05-.35-.11-.52-.16q-.3-.09-.68-.07v-.2q-.11-.03-.22-.07c-.33-.1-.67-.2-1-.3-.11-.03-.23-.07-.35-.1-.49-.15-.97-.3-1.43-.53q-.31-.19-.62-.17v-.2c-.11-.03-.23-.05-.35-.08-.28-.07-.54-.16-.81-.27q-.28-.15-.5-.13v-.2c-.25-.19-.45-.29-.76-.34-.33.05-.57.16-.86.32Z"/>
    <path class="cls-22" d="M36.99,29.12c1.13,0,2.25-.02,3.38-.02.52,0,1.04,0,1.57,0,.5,0,1.01,0,1.51,0,.19,0,.38,0,.58,0,.27,0,.54,0,.81,0,.08,0,.16,0,.24,0,.38,0,.57.03.91.22.22.26.25.35.25.69,0,.09,0,.18,0,.28,0,.1,0,.2,0,.3,0,.1,0,.2,0,.31,0,.32,0,.65-.02.97,0,.22,0,.44,0,.66,0,.54-.01,1.08-.02,1.61h-.2q-.04.09-.07.18c-.15.25-.24.3-.51.4q-.23.02-.49.02c-.1,0-.2,0-.3,0-.11,0-.21,0-.33,0-.11,0-.23,0-.34,0-.38,0-.75,0-1.13,0-.26,0-.52,0-.78,0-.61,0-1.23,0-1.84,0-.7,0-1.4,0-2.1,0-1.44,0-2.88,0-4.32,0,.14-.45.29-.75.59-1.11.98-1.27,1.82-2.68,2.44-4.16h.2v-.29Z"/>
    <path class="cls-31" d="M3.68,29.02l.2.2s.06-.06.1-.1c.27-.01.53-.02.8-.02.08,0,.17,0,.25,0,.28,0,.55,0,.83,0,.09,0,.19,0,.29,0,.5,0,1,0,1.5,0,.52,0,1.03,0,1.55,0,.4,0,.79,0,1.19,0,.19,0,.38,0,.57,0,.27,0,.53,0,.8,0,.08,0,.16,0,.24,0q.53,0,.77.23c.12.26.16.51.2.8h.2c.06.11.11.21.17.33.64,1.22,1.33,2.35,2.18,3.45q.07.1.15.19t.13.17.21.45c-1.53.01-3.07.02-4.6.03-.71,0-1.42,0-2.13.01-.62,0-1.24,0-1.86.01-.33,0-.66,0-.99,0-.37,0-.73,0-1.1,0-.11,0-.22,0-.33,0q-.71,0-.99-.19c-.28-.31-.37-.59-.37-1,0-.1,0-.2,0-.31,0-.11,0-.22,0-.33,0-.11,0-.22,0-.34,0-.36,0-.71.02-1.07,0-.24,0-.48,0-.73,0-.59.01-1.18.02-1.78Z"/>
    <path class="cls-183" d="M39.04,22.48h6.54v.29c.06.03.12.06.19.09q.2.1.3.2c.01.13.02.27.02.41,0,.09,0,.17,0,.26,0,.4,0,.79.01,1.19,0,.21,0,.42,0,.63,0,.3,0,.6,0,.9,0,.09,0,.19,0,.28,0,.44-.01.74-.29,1.08-.39.37-.67.35-1.19.34q-.11,0-.23,0c-.25,0-.51,0-.76,0-.17,0-.35,0-.52,0-.46,0-.92,0-1.38,0-.47,0-.94,0-1.41,0-.92,0-1.85,0-2.77,0,.05-.41.11-.71.29-1.07.05-.19.1-.38.14-.58q.05-.2.15-.44c.11-.27.17-.53.24-.8.11-.47.24-.93.37-1.4.11-.45.18-.91.27-1.37Z"/>
    <path class="cls-185" d="M4.07,22.38l.1.2c.06-.03.13-.06.2-.1.2,0,.4-.01.6-.01.13,0,.25,0,.38,0,.14,0,.27,0,.41,0,.14,0,.28,0,.42,0,.37,0,.74,0,1.11,0,.38,0,.75,0,1.13,0,.74,0,1.48,0,2.21,0q.02.11.05.23c.07.34.15.68.22,1.03.02.12.05.23.07.35.14.65.31,1.26.55,1.88.08.23.14.45.18.68.08.41.23.75.41,1.13q.08.18.08.38c-1.01.01-2.02.02-3.03.03-.47,0-.94,0-1.41.01-.45,0-.9,0-1.36,0-.17,0-.34,0-.52,0-.24,0-.48,0-.73,0-.07,0-.14,0-.22,0-.56,0-.78-.17-1.15-.55-.11-.23-.11-.37-.11-.62,0-.09,0-.18,0-.27,0-.1,0-.19,0-.29,0-.1,0-.2,0-.3,0-.21,0-.42,0-.62,0-.32,0-.63-.01-.95,0-.2,0-.4,0-.61,0-.09,0-.19,0-.29,0-.57.06-.89.44-1.33Z"/>
    <path class="cls-41" d="M45.78,15.84c.25.25.22.33.22.68,0,.1,0,.2,0,.3,0,.11,0,.22,0,.33q0,.17,0,.34c0,.24,0,.47,0,.71,0,.36,0,.72,0,1.08,0,.23,0,.46,0,.69,0,.11,0,.22,0,.33q0,.75-.23,1.14-.21.17-.5.17v.2c-2-.03-4-.06-6.06-.1q.13-1.36.18-1.76c.12-1.27.22-2.53.31-3.8h6.06v-.29Z"/>
    <path class="cls-188" d="M26.64,13.24c.83.45,1.87,1.1,2.24,2.01v.29h.2q.05.34.1.68h.2c.16.49.22.89.21,1.41,0,.07,0,.13,0,.2,0,.21,0,.42,0,.63,0,.14,0,.29,0,.43,0,.35,0,.7,0,1.04-.61-.03-1.22-.06-1.86-.1,0-.19,0-.37,0-.56,0-.25,0-.5-.01-.74,0-.12,0-.24,0-.37-.02-.9-.17-1.58-.77-2.27-.06-.05-.12-.1-.19-.15-.07-.05-.13-.11-.2-.16-.22-.16-.45-.29-.68-.43v-.2h-1.95v.2c-.09.03-.19.06-.29.09-.55.23-.94.7-1.28,1.18-.16.46-.22.88-.24,1.37,0,.13,0,.25-.01.38,0,.13,0,.26,0,.39,0,.13,0,.27-.01.4,0,.32-.02.65-.03.97h-1.86q-.09-4.08.89-5.18c.06-.06.12-.13.19-.19.06-.07.11-.13.17-.2.55-.62,1.23-.93,1.98-1.26.08-.04.15-.08.23-.11.94-.3,2.11-.15,2.99.25Z"/>
    <path class="cls-157" d="M24.82,14.85c.11,0,.22,0,.34,0,.47.02.67.06.99.4.12.09.25.18.37.26.58.43.92.92,1.19,1.59v2.74h-5.67q0-3.27.73-4.04c.08-.08.15-.16.23-.25.32-.31.44-.4.89-.4v-.2c.33-.11.58-.11.92-.11Z"/>
    <path class="cls-14" d="M25.36,22.38v.2q.08,0,.16.02c.34.11.58.31.82.57.21.43.29.9.2,1.37-.16.32-.35.61-.59.88-.1.03-.19.06-.29.1q.02.09.04.18c.07.28.13.56.19.84q.03.14.07.29c.02.09.04.19.07.29.02.09.04.17.06.26.07.35.11.71.15,1.07h-2.74q.11-1.2.25-1.69c.11-.39.18-.73.14-1.14q-.14-.22-.34-.41c-.42-.43-.49-.79-.49-1.38.07-.45.32-.72.63-1.04.07-.08.14-.16.21-.24.46-.24.94-.18,1.45-.15Z"/>
    <path class="cls-112" d="M24.82,14.85c.11,0,.22,0,.34,0,.25.01.46.04.7.11v.2h-1.07v4.4h-2.44c-.03-.64-.06-1.29-.1-1.95-.03.71-.06,1.42-.1,2.15h5.47q-.04-1.57-.2-3.13c.73,1.1.29,1,.29,3.22h-5.67q0-3.27.73-4.04c.08-.08.15-.16.23-.25.32-.31.44-.4.89-.4v-.2c.33-.11.58-.11.92-.11Z"/>
    <path class="cls-72" d="M36.99,29.12h8.69v.1h-8.6v.2h1.07c-.37,1.47-1.21,2.83-2.05,4.09-.21.32-.4.66-.59.99q4.88.05,9.87.1v.1h-11.62c.17-.51.27-.72.59-1.11.98-1.27,1.82-2.68,2.44-4.16h.2v-.29Z"/>
    <path class="cls-134" d="M.26,5.68h.1c-.01.18-.03.35-.04.53,0,.1-.02.19-.02.3q-.03.25-.13.45c0,.2-.01.4-.01.6,0,.13,0,.26,0,.39,0,.14,0,.29,0,.43,0,.15,0,.3,0,.45,0,.42,0,.84,0,1.25,0,.45,0,.9,0,1.35,0,.78,0,1.56,0,2.34,0,1.13,0,2.26,0,3.39,0,1.83,0,3.66,0,5.5,0,1.78,0,3.56,0,5.34,0,.11,0,.22,0,.33,0,.55,0,1.1,0,1.65,0,4.57,0,9.13,0,13.7-.29-.51-.31-1.04-.31-1.61,0-.13,0-.25,0-.38,0-.14,0-.28,0-.42,0-.15,0-.3,0-.45,0-.41,0-.82,0-1.23,0-.44,0-.88,0-1.32,0-1.07,0-2.13,0-3.2,0-.5,0-1,0-1.51,0-1.67,0-3.34,0-5,0-.43,0-.87,0-1.3,0-.11,0-.22,0-.33,0-1.74,0-3.49,0-5.23,0-1.79,0-3.58,0-5.37,0-1,0-2.01,0-3.01,0-.86,0-1.71,0-2.57,0-.44,0-.87,0-1.31,0-.4,0-.8,0-1.2,0-.14,0-.29,0-.43,0-.8.02-1.44.44-2.14Z"/>
    <path class="cls-93" d="M42.18,28.32c.39,0,.77,0,1.16,0,.25,0,.49,0,.74,0q.17,0,.35,0t.32,0c.09,0,.19,0,.28,0,.4.06.66.24.94.52v.39h-.29v-.2h-7.62c.13-.06.26-.13.39-.2.03-.1.06-.19.1-.29h-1.07v-.1c1.57-.09,3.13-.12,4.7-.12Z"/>
    <path class="cls-10" d="M4.9,28.5q.11,0,.23,0c.25,0,.49,0,.74,0,.17,0,.34,0,.51,0,.45,0,.9,0,1.35,0,.46,0,.92,0,1.37,0,.9,0,1.8,0,2.69.01v.1c-.19.03-.39.06-.59.1v.29q-.13,0-.27,0c-.84,0-1.67.02-2.51.03-.43,0-.86,0-1.29.01-.41,0-.83,0-1.24.01-.16,0-.32,0-.47,0-.22,0-.44,0-.66,0q-.19,0-.38,0t-.6.22c.03-.25.07-.44.2-.65.29-.2.58-.17.92-.17Z"/>
    <path class="cls-156" d="M3.58,16.23h.1c0,.06,0,.12,0,.18,0,.6.02,1.2.03,1.81,0,.22,0,.45.01.67,0,.32.01.65.02.97,0,.1,0,.2,0,.3,0,.09,0,.19,0,.28,0,.08,0,.16,0,.25.03.25.09.4.22.62.34.23.49.22.89.23q.18,0,.37,0c.13,0,.27,0,.4,0,.14,0,.28,0,.41,0,.36,0,.72,0,1.09.01.37,0,.74,0,1.11.01.72,0,1.45.02,2.17.03-.03.13-.06.26-.1.39-.07,0-.14,0-.22,0-.67,0-1.35.01-2.02.02-.35,0-.69,0-1.04.01-.4,0-.8,0-1.2.01q-.19,0-.38,0t-.35,0-.31,0c-.29.04-.37.11-.55.33-.1-.03-.19-.06-.29-.1.13-.13.26-.26.39-.39-.06-.05-.11-.09-.17-.14-.07-.06-.14-.12-.22-.18-.07-.06-.14-.12-.22-.18-.22-.22-.27-.38-.29-.68,0-.08,0-.17,0-.25,0-.09,0-.19,0-.28,0-.1,0-.2,0-.31q0-.16,0-.31c0-.33.02-.66.02-.99,0-.22.01-.45.02-.67.01-.55.03-1.1.04-1.65Z"/>
    <path class="cls-122" d="M5.44,30.98c.26,0,.51,0,.77-.01.07,0,.15,0,.22,0,.19,0,.38,0,.57.02q.2.2.22.53c0,.13,0,.27,0,.4,0,.07,0,.14,0,.21q0,.51-.12.62c-.26,0-.52.01-.78.01q-.11,0-.22,0-.55,0-.66-.11c0-.28,0-.56,0-.84,0-.08,0-.16,0-.24,0-.2,0-.39,0-.59Z"/>
    <path class="cls-114" d="M39.92,11.93h.2v3.22c.37,0,.73,0,1.11-.01.36,0,.71,0,1.07,0,.25,0,.49,0,.74,0,.36,0,.71,0,1.07,0,.11,0,.22,0,.33,0,.59,0,1,0,1.44.43.44.57.44,1.05.43,1.75,0,.1,0,.2,0,.31,0,.32,0,.64-.01.96,0,.22,0,.44,0,.65,0,.53-.01,1.07-.02,1.6q-.1.05-.2.1c0-.06,0-.12,0-.18,0-.61,0-1.22-.01-1.83,0-.23,0-.46,0-.68,0-.33,0-.66,0-.98,0-.1,0-.2,0-.31q-.01-.62-.3-1.15c-.36-.32-.61-.34-1.07-.35-.11,0-.21,0-.32,0q-.17,0-.35,0c-.12,0-.23,0-.35,0-.37,0-.75-.01-1.12-.02-.25,0-.51,0-.76-.01-.62-.01-1.24-.02-1.86-.03v-3.42Z"/>
    <path class="cls-24" d="M5.44,24.43h1.66v1.66q-.38,0-.78,0c-.08,0-.16,0-.24,0-.18,0-.36,0-.54,0q-.1-.1-.11-.45c0-.15,0-.29,0-.44,0-.26,0-.51,0-.78Z"/>
    <path class="cls-119" d="M5.53,17.79h1.66c0,.26,0,.51,0,.78,0,.08,0,.16,0,.24,0,.18,0,.36,0,.54q-.1.1-.45.11c-.15,0-.29,0-.44,0-.26,0-.51,0-.78,0v-1.66Z"/>
    <path class="cls-170" d="M9.73,11.54h.2c-.03,1.29-.06,2.58-.1,3.91-1.93.03-3.87.06-5.86.1q.2-.29.49-.39c.17,0,.33-.01.5-.01.1,0,.2,0,.31,0,.11,0,.22,0,.33,0,.11,0,.22,0,.34,0,.36,0,.72,0,1.08,0,.24,0,.49,0,.73,0,.6,0,1.19,0,1.79,0q0-.15,0-.3c0-.37,0-.74,0-1.1,0-.16,0-.32,0-.48,0-.23,0-.46,0-.69,0-.07,0-.14,0-.22,0-.36,0-.52.22-.83Z"/>
    <path class="cls-153" d="M3.87,34.1c.06.03.11.06.17.1.24.11.39.12.64.13.08,0,.17,0,.25,0,.09,0,.18,0,.28,0q.14,0,.29,0c.32,0,.64,0,.95,0,.22,0,.44,0,.66,0,.58,0,1.16,0,1.74.01.59,0,1.19,0,1.78.01,1.16,0,2.33.02,3.49.03q.05.1.1.2c-1.29,0-2.58.01-3.88.02-.6,0-1.2,0-1.8,0-.58,0-1.16,0-1.74,0-.22,0-.44,0-.66,0-.31,0-.62,0-.93,0-.09,0-.18,0-.28,0q-.62,0-.94-.17-.14-.16-.14-.35Z"/>
    <path class="cls-15" d="M31.61,20.62h.2c.34.81.33,1.59.33,2.45,0,.15,0,.3,0,.46,0,.32,0,.64,0,.95,0,.4,0,.81,0,1.21,0,.31,0,.63,0,.94,0,.15,0,.3,0,.45,0,.77-.02,1.49-.22,2.23h-.1c0-.1,0-.21,0-.31,0-.97-.02-1.94-.03-2.91,0-.5-.01-1-.02-1.5,0-.48,0-.96-.02-1.45,0-.18,0-.37,0-.55,0-.26,0-.51,0-.77,0-.08,0-.15,0-.23,0-.34-.03-.64-.12-.97Z"/>
    <path class="cls-190" d="M42.75,19.06c.24,0,.48,0,.73,0,.07,0,.14,0,.21,0,.18,0,.35,0,.53,0q.1.1.11.32c0,.09,0,.18,0,.27q0,.13,0,.27t-.11.32c-.23,0-.46.01-.68.01-.12,0-.25,0-.38,0q-.31-.01-.4-.11c0-.18,0-.36,0-.54,0-.1,0-.2,0-.3,0-.08,0-.15,0-.23Z"/>
    <path class="cls-45" d="M4.26,15.54q-.18.38-.29.49c-.01.16-.02.32-.02.47,0,.1,0,.2,0,.31,0,.11,0,.22,0,.33,0,.11,0,.22,0,.34,0,.24,0,.47,0,.71,0,.36,0,.73-.01,1.09,0,.23,0,.46,0,.69,0,.11,0,.22,0,.33,0,.1,0,.2,0,.31q0,.13,0,.27t.21.4c.29.15.5.16.82.16.12,0,.24,0,.36,0,.13,0,.26,0,.39,0,.13,0,.27,0,.4,0,.35,0,.7,0,1.05.01.36,0,.71,0,1.07.01.7,0,1.4.01,2.1.02v.1c-.78,0-1.56.02-2.34.02-.36,0-.73,0-1.09,0-.35,0-.7,0-1.05,0-.13,0-.27,0-.4,0-.19,0-.37,0-.56,0q-.16,0-.32,0c-.36-.06-.52-.18-.78-.44-.09-.28-.11-.47-.11-.77,0-.1,0-.19,0-.29,0-.1,0-.21,0-.31,0-.11,0-.21,0-.32,0-.23,0-.45,0-.68,0-.35,0-.69-.01-1.04,0-.22,0-.44,0-.66,0-.1,0-.21,0-.31q0-.72.23-1.11.2-.18.4-.18Z"/>
    <path class="cls-95" d="M42.85,25.61h1.47q0,.83,0,1.07t-.41.11q-.19,0-.38,0c-.13,0-.25,0-.38,0-.1,0-.2,0-.3,0v-1.17Z"/>
    <path class="cls-54" d="M22.04,19.94c-.03.1-.06.19-.1.29-.21.03-.42.06-.63.09-.06,0-.13.02-.2.03-.36.05-.72.09-1.09.12-.07,0-.15.01-.22.02-.14.01-.29.02-.43.03-.37.04-.55.1-.84.33-.22.28-.31.5-.4.84-.11-.32-.09-.51.02-.84.02-.07.05-.15.07-.23.11-.23.18-.35.39-.5,1.11-.28,2.29-.22,3.42-.2Z"/>
    <path class="cls-91" d="M43.04,32.05h1.56q0,.75,0,.98t-.43.11c-.14,0-.27,0-.41,0q-.1,0-.21,0c-.17,0-.34,0-.52,0v-1.07Z"/>
    <path class="cls-138" d="M4.46,22.58h6.06c.21.63.33.99.36,1.62,0,.12.01.24.02.36q0,.13.01.27c-.26-.3-.35-.53-.41-.92q-.02-.13-.05-.27t-.03-.86h-6.06l.1-.2Z"/>
    <path class="cls-133" d="M22.24,17.5h.1v2.05h4.98v.2h-5.18q0-2.15.1-2.25Z"/>
    <path class="cls-189" d="M22.04,19.84c.88,0,1.76,0,2.64,0,.41,0,.82,0,1.23,0,.39,0,.79,0,1.18,0,.15,0,.3,0,.45,0,.21,0,.42,0,.63,0,.12,0,.24,0,.36,0,.35.01.68.05,1.03.11v.1c-1.4.09-2.8.11-4.2.1v-.1c-1.1-.03-2.19-.06-3.32-.1v-.1Z"/>
    <path class="cls-110" d="M31.42,20.82l.2.1c0,1.09.01,2.18.02,3.28,0,.51,0,1.01,0,1.52,0,.49,0,.98,0,1.47,0,.19,0,.37,0,.56,0,.26,0,.52,0,.78,0,.08,0,.16,0,.24q0,.22-.04.56-.15.1-.29.2c0-.05.01-.11.02-.16.06-.51.09-1.02.09-1.53,0-.08,0-.15,0-.23,0-.25,0-.5,0-.75,0-.17,0-.35,0-.52,0-.46,0-.91,0-1.37,0-.47,0-.93,0-1.4,0-.91,0-1.82,0-2.73Z"/>
    <path class="cls-1" d="M5.73,18.08h1.17v1.07h-1.17v-1.07Z"/>
    <path class="cls-23" d="M20.28,15.64c0,.13,0,.26.01.4,0,.07,0,.15,0,.22q-.02.26-.11.54c-.18.58-.15,1.21-.16,1.81,0,.13,0,.25-.01.39,0,.31-.02.63-.03.94h-.2c0-.53-.02-1.07-.02-1.6,0-.18,0-.36,0-.54,0-.26,0-.52,0-.78,0-.08,0-.16,0-.24,0-.4.01-.59.24-.94q.2-.19.3-.19Z"/>
    <path class="cls-28" d="M22.24,13.3c.1.03.19.06.29.1v.2q-.15.12-.35.26c-.69.5-1.19,1.04-1.61,1.79l-.2-.1c-.01-.66.3-.98.75-1.44q.64-.61,1.11-.61v-.2Z"/>
    <path class="cls-67" d="M5.34,30.78c.29,0,.57-.01.86-.02.08,0,.16,0,.25,0q.12,0,.24,0t.22,0c.25.04.34.12.49.33.02.27.03.53.02.8q0,.11,0,.22c0,.18,0,.36-.01.54h-.1v-1.47c-.37-.12-.71-.11-1.09-.1-.25,0-.5,0-.76,0-.03.52-.06,1.03-.1,1.56h-.2v-1.66h.2v-.2Z"/>
    <path class="cls-53" d="M39.72,18.28h.1c.01,1.02,0,2.02-.2,3.03.35.06.71.13,1.07.2v.1h-1.37c-.03-.74.07-1.43.2-2.16.02-.11.04-.23.06-.34.05-.28.09-.55.14-.83Z"/>
    <path class="cls-121" d="M27.22,16.62h.2c.24.65.22,1.27.21,1.95,0,.11,0,.23,0,.34,0,.28,0,.56,0,.83h-.29l-.1-3.13Z"/>
    <path class="cls-130" d="M45.78,15.84l.2.2q-.04.21-.1.39s-.05-.05-.1-.1c-.19-.01-.37-.02-.56-.02-.12,0-.24,0-.36,0-.13,0-.26,0-.39,0-.13,0-.27,0-.4,0-.35,0-.7-.01-1.06-.01-.36,0-.72-.01-1.08-.02-.7-.01-1.41-.02-2.11-.03v1.27h-.1v-1.37h6.06v-.29Z"/>
    <path class="cls-161" d="M24.1,12.69c.09,0,.18,0,.28,0q.14,0,.29,0c.09,0,.19,0,.29,0,.53,0,.98.05,1.48.22q-.34.21-.57.15c-.07-.02-.14-.04-.21-.06-.29-.02-.58-.02-.87-.02-.08,0-.16,0-.24,0-.43,0-.74.03-1.14.22q-.32.01-.59,0c.35-.41.75-.51,1.28-.51Z"/>
    <path class="cls-13" d="M4.56,21.99l.2.1c-.06.06-.13.13-.2.2q2.95.05,5.96.1v.1c-2.1.03-4.19.06-6.35.1q.2-.39.39-.59Z"/>
    <path class="cls-182" d="M13.93,11.83c-.07.03-.15.06-.23.09q-.28.11-.56.31c-.76.22-1.47.2-2.25.1v-.1q.08-.01.17-.02c.26-.04.51-.07.77-.11.09-.01.17-.02.26-.04.39-.06.77-.12,1.15-.23.29-.08.41-.1.68.01Z"/>
    <path class="cls-37" d="M25.36,22.38v.2q.08,0,.16.02c.34.12.55.33.82.57l-.1.2c-.1-.03-.19-.06-.29-.1v-.2h-.2v-.2c-.07,0-.14-.01-.21-.02q-.14-.01-.29-.02t-.3-.03-.62-.1q-.25-.05-.43.12c-.04.05-.07.1-.11.15l-.2-.1c.53-.58,1-.54,1.76-.49Z"/>
    <path class="cls-33" d="M27.8,31.27c-.06.04-.12.09-.19.13q-.21.14-.3.35c-.65.28-1.25.44-1.95.39.14-.27.29-.28.57-.38.49-.17.97-.35,1.46-.54q.22-.06.41.04Z"/>
    <path class="cls-99" d="M29.56,17.21h.1v2.64c.35-.03.71-.06,1.07-.1q.3.12.51.29c.07.06.14.11.22.17.05.04.1.09.15.13-.06.1-.13.19-.2.29-.05-.06-.1-.12-.15-.18-.31-.26-.61-.31-1-.38-.23-.04-.47-.08-.71-.12v-2.74Z"/>
    <path class="cls-65" d="M9.64,22.58h.88c.3.75.36,1.45.39,2.25-.47-.55-.53-1.34-.49-2.05h-.78v-.2Z"/>
    <path class="cls-135" d="M19.21,20.14h.88v.2l.39.1c-.11,0-.23.02-.35.03-.15.01-.3.03-.45.04-.08,0-.15.01-.23.02-.41.04-.59.08-.92.34-.21.27-.31.51-.39.84-.11-.27-.09-.45-.07-.74q.16-.34.4-.44c.25-.07.49-.13.75-.18v-.2Z"/>
    <path class="cls-163" d="M17.94,34.98c.35.14.42.26.59.59.06.03.12.06.18.09.23.12.38.25.56.44.06.06.11.12.17.18q.08.08.16.17c.05.05.11.1.16.15q.13.14.23.44c-.3-.13-.5-.29-.73-.53-.2-.2-.38-.38-.6-.56-.29-.23-.5-.48-.72-.78v-.2Z"/>
    <path class="cls-61" d="M28.39,8.22c.41.06.79.15,1.18.27.1.03.2.06.3.09.29.13.46.27.66.51-.27.11-.38.1-.66.01-.1-.04-.2-.09-.3-.13-.1-.05-.21-.09-.31-.14-.29-.14-.59-.27-.87-.42v-.2Z"/>
    <path class="cls-113" d="M1.33,46.51l.49.49q.11.1.21.2t.27.45c.12.29.22.3.49.43q.07.21.1.39h-.2v-.2q-.09,0-.18-.02c-.07-.03-.14-.05-.21-.08-.07-.16-.13-.32-.2-.49-.1-.03-.19-.06-.29-.1v-.2c-.1-.03-.19-.06-.29-.1v-.29h-.2q-.05-.19-.1-.39l.1-.1Z"/>
    <path class="cls-6" d="M10.81,23.95c.23.34.3.67.39,1.07.1.42.19.8.39,1.18q-.04.22-.1.39l-.1-.2c-.06.03-.13.06-.2.1-.01-.06-.02-.12-.04-.18-.02-.08-.03-.16-.05-.24-.02-.08-.03-.15-.05-.23q-.05-.23-.17-.41c-.13-.29-.11-.55-.1-.87q0-.17,0-.35c0-.09,0-.17,0-.26Z"/>
    <path class="cls-102" d="M27.51,39.96v.29c-.51.41-1.13.7-1.76.88q-.22-.04-.39-.1c.32-.18.64-.36.96-.54.09-.05.18-.1.28-.16.09-.05.18-.1.27-.15.08-.05.16-.09.24-.14q.2-.1.4-.1Z"/>
    <path class="cls-181" d="M3.68,15.74c.03.1.06.19.1.29-.03.06-.06.13-.1.2-.01.15-.02.3-.02.45,0,.09,0,.19,0,.28,0,.1,0,.2,0,.31,0,.1,0,.21,0,.31,0,.33-.01.66-.02,1,0,.22,0,.45-.01.67-.01.55-.02,1.1-.03,1.66h-.1c0-.71,0-1.41-.01-2.12,0-.24,0-.48,0-.72,0-.34,0-.69,0-1.03,0-.11,0-.22,0-.33,0-.1,0-.2,0-.3,0-.09,0-.18,0-.27q.02-.21.22-.41Z"/>
    <path class="cls-176" d="M2.8,1.48l.2.1c-.1.03-.19.06-.29.1-.03.1-.06.19-.1.29h-.2c-.02.08-.04.17-.07.26-.15.4-.32.61-.62.92h-.29l-.1.29h-.2l-.1.2v-.29l.2-.1.1-.29h.2l.1-.29h.2l.1-.29h.2c.02-.07.04-.15.07-.22.15-.32.33-.46.62-.66Z"/>
    <path class="cls-179" d="M3.68,22.58h.2c-.03.08-.06.15-.1.23-.13.45-.13.87-.14,1.33v.28c-.01.29-.02.59-.02.88,0,.2,0,.4-.01.6,0,.49-.02.98-.03,1.46h-.1c0-.63,0-1.27-.01-1.9,0-.22,0-.43,0-.65,0-.31,0-.62,0-.93,0-.1,0-.19,0-.29,0-.09,0-.18,0-.27,0-.08,0-.16,0-.24q.02-.21.22-.5Z"/>
    <path class="cls-106" d="M7.26,24.33c.04.07.08.13.13.2-.03.1-.06.19-.1.29-.02.2-.04.4-.05.6,0,.11-.02.21-.02.32q0,.12-.02.25h-.1v-1.56h-1.56c.54-.27,1.21-.48,1.73-.1Z"/>
    <path class="cls-64" d="M49.69,42.7h.1c-.01.22-.03.44-.04.65,0,.12-.02.24-.02.37-.03.29-.06.56-.13.84h-.2c-.03.29-.06.58-.1.88h-.2l-.1-.59c.1-.03.19-.06.29-.1l-.1-.39c.1-.03.19-.06.29-.1,0-.09.01-.18.02-.27,0-.12.02-.23.02-.35,0-.11.02-.23.02-.35q.03-.31.13-.6Z"/>
    <path class="cls-97" d="M28.29,37.91c-.11.33-.16.36-.44.54-.07.04-.14.09-.21.13q-.11.07-.22.13c-.07.05-.14.09-.22.14q-.54.33-.87.33v-.2c.09-.05.19-.11.29-.16.12-.07.25-.14.37-.21.06-.03.12-.07.19-.11.26-.15.51-.29.75-.48q.16-.12.36-.12Z"/>
    <path class="cls-8" d="M43.92,19.16h.29v.88h-1.37v-.2h1.07v-.68Z"/>
    <path class="cls-71" d="M31.91,34.59c.03.1.06.19.1.29-.22.23-.45.46-.67.68q-.1.1-.19.2c-.06.06-.12.12-.19.19-.06.06-.11.11-.17.17q-.15.13-.34.13c.13-.29.27-.49.49-.71.06-.06.11-.11.17-.17.06-.06.12-.11.18-.17.06-.06.12-.12.18-.18.15-.14.29-.29.44-.43Z"/>
    <path class="cls-105" d="M9.73,11.54h.2c-.02.05-.03.11-.05.16-.06.26-.07.5-.08.76,0,.1,0,.2-.01.3q0,.16-.01.31c0,.11,0,.21-.01.32-.01.26-.02.52-.03.78h-.1c-.09-.53-.11-1.06-.12-1.59,0-.07,0-.14,0-.21,0-.37,0-.52.22-.84Z"/>
    <path class="cls-5" d="M20.19,19.94h1.86c-.03.1-.06.19-.1.29-.32.03-.64.06-.98.1-.03-.1-.06-.19-.1-.29h-.68v-.1Z"/>
    <path class="cls-141" d="M25.56,32.05q.22.09.39.2c-.56.3-.95.44-1.58.27-.16-.05-.32-.11-.48-.17.03-.06.06-.13.1-.2q.12.01.24.03c.11.01.21.02.32.03q.16.02.32.03t.5-.11c.06-.03.12-.06.18-.09Z"/>
    <path class="cls-86" d="M25.75,27.36l.2.1c.06.29.13.58.2.88-.77-.03-1.55-.06-2.34-.1v-.1h2.05l-.1-.78Z"/>
    <path class="cls-40" d="M32.3,9.59c.53.04.98.08,1.47.29.23.04.46.07.68.1-.03.06-.06.13-.1.2-.73-.05-1.36-.24-2.05-.49v-.1Z"/>
    <path class="cls-46" d="M49,45.43c.12.35.05.45-.1.78h-.2c-.03.16-.06.32-.1.49h-.49c.07-.16.15-.32.23-.48.04-.09.08-.18.13-.27q.14-.22.43-.32l.1-.2Z"/>
    <path class="cls-145" d="M37.28,28.54h1.27c-.03.13-.06.26-.1.39-.39-.03-.77-.06-1.17-.1v-.29Z"/>
    <path class="cls-126" d="M5.14,49.64c.51-.02.89.04,1.37.2v.2q-.92.02-1.37-.1v-.29Z"/>
    <path class="cls-4" d="M23.21,24.82l.49.49c.05.04.11.08.16.13q.13.16.14.43c-.01.1-.02.19-.04.29q-.02.15-.04.29c-.01.07-.02.15-.03.22h-.1c0-.06,0-.13,0-.2q-.03-.58-.34-1.06c-.08-.07-.16-.14-.24-.21v-.39Z"/>
    <path class="cls-158" d="M23.6,12.81q-.34.15-.68.29c.1.06.19.13.29.2q-.46.29-.68.29c-.03-.16-.06-.32-.1-.49.12-.07.24-.14.37-.2q.1-.06.21-.11c.24-.09.36-.06.6.02Z"/>
    <path class="cls-159" d="M24.48,12.71q1.33-.04,1.95.2c-.38.27-.76.18-1.2.11-.07-.01-.15-.02-.22-.03-.18-.03-.36-.05-.54-.08v-.2Z"/>
    <path class="cls-56" d="M19.7,38.4c.38.14.68.31,1.01.55.09.06.17.12.26.19.06.05.13.09.2.14l-.29.2c-.2-.14-.39-.28-.59-.43-.06-.04-.11-.08-.17-.12-.14-.11-.28-.22-.42-.33v-.2Z"/>
    <path class="cls-125" d="M21.65,13.69l.2.1c-.08.06-.16.12-.24.18q-.25.18-.35.4h-.2c-.02.05-.05.1-.07.16-.15.29-.33.55-.51.82l-.1-.29q.14-.23.35-.48c.07-.08.14-.17.21-.25.22-.24.45-.44.71-.63Z"/>
    <path class="cls-171" d="M11.3,26.19c.23.28.36.53.46.89.03.08.05.17.08.25q.04.23-.05.52c-.32-.56-.46-1.01-.49-1.66Z"/>
    <path class="cls-17" d="M24.29,15.06c.22,0,.44,0,.65-.01q.18,0,.37,0c.33.02.54.07.84.21-.03.1-.06.19-.1.29-.07-.03-.13-.06-.2-.09-.32-.12-.62-.17-.95-.21q-.17-.02-.34-.05c-.09-.01-.17-.02-.26-.04v-.1Z"/>
    <path class="cls-187" d="M11.79,27.17c.21.32.29.61.39.98-.42-.03-.84-.06-1.27-.1v-.2h.98c-.03-.23-.06-.45-.1-.68Z"/>
    <path class="cls-58" d="M18.92,10.66c-.63.28-1.17.44-1.86.49.3-.25.56-.36.93-.46.09-.03.18-.05.28-.08.26-.04.41-.03.65.05Z"/>
    <path class="cls-36" d="M24.89,6.64c.09,0,.18,0,.27,0q.1,0,.2.01v.2c.06.01.12.02.19.04q.1.03.2.06c.03.06.06.13.1.2-.09-.03-.18-.06-.27-.1-.49-.14-.98-.11-1.48-.1.25-.31.41-.33.8-.31Z"/>
    <path class="cls-47" d="M13.25,30.49c.22.28.42.56.59.88l-.1.2c-.43-.14-.48-.38-.68-.78v-.2l.2-.1Z"/>
    <path class="cls-128" d="M11.49,20.72l.2.1c.12.48.11.97.1,1.47h-.2c-.11-.52-.11-1.03-.1-1.56Z"/>
    <path class="cls-11" d="M22.43,9.39q-.65.29-.98.29v.2c-.26.03-.52.06-.78.1.24-.28.48-.39.82-.51.09-.03.19-.07.28-.11.27-.07.4-.06.65.03Z"/>
    <path class="cls-108" d="M23.7,39.57h.39v.2c.42.03.84.06,1.27.1q-.1.2-.34.29c-.52,0-.88-.23-1.32-.48v-.1Z"/>
    <path class="cls-77" d="M21.07,39.48c.39.05.64.17.96.4.08.05.15.11.23.16.06.04.12.08.18.12l-.1.2c-.19-.11-.39-.22-.58-.33q-.16-.09-.33-.19t-.36-.36Z"/>
    <path class="cls-9" d="M21.85,38.4c.49.05.79.18,1.17.49v.29c-.35-.13-.67-.28-.98-.49v-.2l-.2-.1Z"/>
    <path class="cls-152" d="M15.59,10.07v.2c-.51.14-.94.22-1.47.2v-.2c.15-.03.31-.07.46-.1.08-.02.17-.04.26-.05.26-.04.49-.05.75-.04Z"/>
    <path class="cls-166" d="M4.39,28.11c.08,0,.17.01.26.02.09,0,.18.01.28.02.1,0,.19.02.29.02.1,0,.19.01.29.02.24.02.48.03.71.05v.1q-.08,0-.17,0c-.25,0-.5.02-.75.03-.09,0-.17,0-.26,0-.08,0-.17,0-.25.01q-.12,0-.23,0t-.39.23c-.1-.03-.19-.06-.29-.1q.23-.38.51-.43Z"/>
    <path class="cls-59" d="M21.07,14.37h.2c-.06.34-.2.57-.4.85-.05.08-.11.16-.16.24-.04.06-.08.12-.12.18-.06-.03-.13-.06-.2-.1.2-.41.43-.79.68-1.17Z"/>
    <path class="cls-184" d="M20.38,9.98c-.16.06-.32.13-.49.2v.2q-.43.2-.71.16c-.05-.02-.11-.04-.16-.06h.2c.03-.1.06-.19.1-.29q.19-.1.43-.17c.08-.03.16-.05.24-.08q.21-.04.4.05Z"/>
    <path class="cls-79" d="M47.63,2.36l.2.1v.2c.1.03.19.06.29.1v.2h.2c.03.1.06.19.1.29l.2.1-.1.29v-.2c-.1-.03-.19-.06-.29-.1v-.2c-.13-.03-.26-.06-.39-.1-.06-.23-.13-.45-.2-.68Z"/>
    <path class="cls-117" d="M43.04,32.15h1.47v.2c-.45.03-.9.06-1.37.1-.03-.1-.06-.19-.1-.29Z"/>
    <path class="cls-80" d="M14.23,29.71c.32.28.44.46.49.88h.2c.03.16.06.32.1.49h-.2c-.1-.17-.2-.35-.29-.52-.05-.1-.11-.19-.16-.29q-.13-.26-.13-.56Z"/>
    <path class="cls-51" d="M38.06,20.43h.1c.02.56.03,1.04-.2,1.56h-.1c-.02-.56.01-1.03.2-1.56Z"/>
    <path class="cls-39" d="M38.06,19.94c.1.03.19.06.29.1-.01.25-.03.5-.04.74q0,.1-.01.21c-.02.4-.07.79-.14,1.19h-.1v-2.25Z"/>
    <path class="cls-174" d="M.26,5.68h.1c0,.17-.02.35-.03.52,0,.1-.01.19-.02.29-.05.29-.12.38-.34.56-.03-.55.06-.88.29-1.37Z"/>
    <path class="cls-62" d="M12.57,29.51c.13.13.26.26.39.39v.2h.2c.03.16.06.32.1.49h-.29c-.07-.14-.13-.28-.2-.43-.04-.08-.07-.16-.11-.24q-.09-.21-.09-.41Z"/>
    <path class="cls-154" d="M11,25.31q.48.57.59.88t-.1.39l-.1-.2q-.1.05-.2.1c-.06-.39-.13-.77-.2-1.17Z"/>
    <path class="cls-150" d="M35.13,32.54c0,.32-.06.5-.2.78q-.1.05-.2.1t-.1.39c-.13.03-.26.06-.39.1.15-.33.34-.61.55-.9.06-.09.12-.17.19-.26q.07-.1.14-.2Z"/>
    <path class="cls-20" d="M26.54,31.56l.2.1c-.13.03-.26.06-.39.1v.29c-.36.07-.62.1-.98,0,.19-.08.38-.17.57-.25.11-.05.21-.09.32-.14.09-.03.18-.06.28-.1Z"/>
    <path class="cls-118" d="M20.58,30.69c.17.04.34.09.51.13q.14.04.29.08c.24.07.44.16.66.28-.34.17-.71.07-1.07,0q-.25-.14-.39-.29v-.2Z"/>
    <path class="cls-68" d="M29.47,30.2q.26.03.49.1c-.13.03-.26.06-.39.1v.2q-.63.3-.92.26c-.05-.02-.1-.04-.15-.07h.2v-.29q.11,0,.23.02.27.01.41-.17s.1-.09.15-.14Z"/>
    <path class="cls-151" d="M4.26,15.54q-.18.38-.29.49c-.02.13-.02.26-.03.39q0,.12-.01.24c0,.08,0,.17-.01.25,0,.08,0,.17-.01.25-.01.21-.02.41-.03.62h-.1c0-.3-.01-.6-.02-.9,0-.09,0-.17,0-.26q0-.63.16-.95.16-.14.35-.14Z"/>
    <path class="cls-92" d="M20.19,15.64h.1c0,.14,0,.28.01.42,0,.08,0,.16,0,.24q-.02.22-.21.51c-.06-.03-.13-.06-.2-.1q.07-.74.29-1.07Z"/>
    <path class="cls-90" d="M45.78,48.95v.39c-.34.11-.62.1-.98.1.26-.3.57-.49.98-.49Z"/>
    <path class="cls-139" d="M38.75,11.05c.31-.04.51-.05.78.12.18.15.34.29.49.46v.2c-.34-.15-.59-.36-.88-.59-.13-.07-.26-.14-.39-.2Z"/>
    <path class="cls-84" d="M13.15,10.66l-.1.2c-.46.11-.9.11-1.37.1.39-.39.95-.3,1.47-.29Z"/>
    <path class="cls-85" d="M49.2,5.29h.2c.16.54.22,1,.2,1.56-.28-.48-.39-1.01-.39-1.56Z"/>
    <path class="cls-148" d="M21.16,31.08c.49.05.84.15,1.27.39-.25.09-.37.11-.62.02-.08-.04-.15-.07-.23-.11-.08-.04-.16-.07-.24-.11-.06-.03-.12-.06-.18-.09v-.1Z"/>
    <path class="cls-70" d="M26.44,24.53l.2.39q-.19.29-.39.59c-.13-.03-.26-.06-.39-.1.19-.29.39-.58.59-.88Z"/>
    <path class="cls-44" d="M23.41,15.35c.1.03.19.06.29.1-.1.03-.19.06-.29.1-.07.13-.13.26-.2.39-.1.06-.19.13-.29.2-.03-.13-.06-.26-.1-.39q.27-.2.59-.39Z"/>
    <path class="cls-76" d="M21.75,8.12c-.45.25-.85.44-1.37.49.21-.23.39-.35.68-.46q.1-.04.2-.08t.48.05Z"/>
    <path class="cls-178" d="M3.29,1.28l.2.1c-.35.32-.71.64-1.07.98l-.1-.2c.28-.39.57-.63.98-.88Z"/>
    <path class="cls-140" d="M34.25,31.56l.1.2c-.09.15-.18.29-.27.44-.05.08-.1.16-.15.25-.05.06-.1.13-.16.19h-.29c.26-.35.52-.71.78-1.07Z"/>
    <path class="cls-52" d="M4.56,21.99l.2.1c-.06.06-.13.13-.2.2.39.03.77.06,1.17.1v.1q-.77.05-1.56.1.2-.39.39-.59Z"/>
    <path class="cls-30" d="M43.73,21.5h1.86c-.1.03-.19.06-.29.1v.2c-.52-.06-1.03-.13-1.56-.2v-.1Z"/>
    <path class="cls-136" d="M45.78,15.84l.2.2q-.04.21-.1.39s-.06-.06-.1-.1c-.28-.02-.56-.04-.84-.05-.08,0-.16,0-.24-.01-.2-.01-.39-.02-.59-.03v-.1h1.66v-.29Z"/>
    <path class="cls-172" d="M14.72,11.74c-.29.19-.46.25-.79.32q-.13.03-.26.06c-.07,0-.15.01-.22.02-.06-.06-.13-.13-.2-.2.51-.17.93-.21,1.47-.2Z"/>
    <path class="cls-175" d="M25.95,6.95v.2h.29v.29c.1.03.19.06.29.1l-.2.1q-.21-.1-.45-.24c-.08-.05-.16-.09-.24-.14-.06-.04-.12-.07-.19-.11q.29-.2.49-.2Z"/>
    <path class="cls-149" d="M23.58,31.51c.08.03.16.06.24.09q.09.03.18.07v.29c-.16-.04-.31-.09-.47-.13-.09-.02-.17-.05-.26-.08q-.24-.08-.54-.28c.33-.12.53-.08.85.04Z"/>
    <path class="cls-26" d="M35.91,11.83c.22.01.45.02.67.04.12,0,.25.01.38.02q.32.04.51.24h-1.47c-.03-.1-.06-.19-.1-.29Z"/>
    <path class="cls-66" d="M23.51,39.16c.07.04.14.07.21.11.07.04.14.07.21.11.05.03.11.06.16.09v.1c-.38.04-.54.03-.87-.2-.07-.06-.14-.13-.21-.2q.29-.1.49-.02Z"/>
    <path class="cls-89" d="M34.35,33.81l.2.1-.59.78c-.06-.03-.13-.06-.2-.1.12-.38.25-.57.59-.78Z"/>
    <path class="cls-143" d="M35.16,11.62c.34.02.47.06.75.21-.16.02-.32.04-.48.06q-.13.02-.27.03c-.08,0-.15,0-.23,0-.06-.06-.13-.13-.2-.2q.1-.1.42-.12Z"/>
    <path class="cls-120" d="M14.52,32.93c.31.15.46.24.62.56.02.07.04.15.07.23h-.29q-.39-.51-.39-.78Z"/>
    <path class="cls-74" d="M27.12,31.17q-.1.29-.32.42c-.3.08-.47.06-.76-.02q.75-.39,1.07-.39Z"/>
    <path class="cls-111" d="M31.32,30c-.36.33-.71.39-1.17.49.2-.31.26-.35.59-.46.07-.03.14-.05.21-.08q.18-.04.38.05Z"/>
    <path class="cls-186" d="M36.69,26.09h.2q-.06.73-.25.98s-.09.06-.14.1q.09-.74.2-1.07Z"/>
    <path class="cls-42" d="M20.28,15.35l.29.29c-.06.19-.13.39-.2.59-.06-.13-.13-.26-.2-.39q-.1.05-.2.1.18-.48.29-.59Z"/>
    <path class="cls-55" d="M28.1,39.48l.2.1c-.03.1-.06.19-.1.29q-.25.12-.49.2l-.2-.2c.19-.13.39-.26.59-.39Z"/>
    <path class="cls-16" d="M18.04,37.03c.37.05.53.22.78.49-.03.1-.06.19-.1.29q-.57-.45-.68-.78Z"/>
    <path class="cls-71" d="M35.03,30.2q.1.29.02.47c-.1.17-.21.34-.31.51h-.2c.11-.38.23-.67.49-.98Z"/>
    <path class="cls-100" d="M10.71,23.46h.1c.03.45.06.9.1,1.37q-.29-.39-.3-.64c.01-.09.02-.17.04-.26.01-.09.02-.17.04-.26.01-.07.02-.13.03-.2Z"/>
    <path class="cls-103" d="M23.9,22.48c-.15.37-.39.6-.68.88.05-.41.2-.88.68-.88Z"/>
    <path class="cls-38" d="M22.63,16.13q.1.2.02.45c-.04.1-.07.19-.11.3q-.06.15-.11.3c-.03.08-.06.15-.09.23h-.1q.06-.94.39-1.27Z"/>
    <path class="cls-21" d="M15.99,11.44c-.19.19-.33.29-.59.31-.19,0-.39,0-.58-.02.43-.29.65-.3,1.17-.29Z"/>
    <path class="cls-43" d="M.55,45.43l.2.2.2-.1c.06.29.13.58.2.88h-.2q-.39-.65-.39-.98Z"/>
    <path class="cls-60" d="M49.39,43.09h.1c.02.14.04.28.05.42.01.08.02.16.03.24q.01.22-.09.51h-.2c.03-.39.06-.77.1-1.17Z"/>
    <path class="cls-35" d="M23.6,27.36c.1.13.19.26.29.39q-.08.32-.2.59h-.2c.03-.32.06-.64.1-.98Z"/>
    <path class="cls-74" d="M23.41,27.46h.1q.01.65-.1.98h-.2c-.02-.39,0-.64.2-.98Z"/>
    <path class="cls-18" d="M12.76,26.19l.2.1q.06.22.11.49c.02.09.03.18.05.27.01.07.02.14.04.21-.38-.32-.35-.6-.39-1.07Z"/>
    <path class="cls-94" d="M23.31,23.55h.2c-.03.39-.06.77-.1,1.17-.2-.39-.22-.55-.2-.98l.1-.2Z"/>
    <path class="cls-116" d="M30.83,20.14c.28.13.48.26.68.49-.03.1-.06.19-.1.29q-.46-.35-.59-.49v-.29Z"/>
    <path class="cls-87" d="M26.24,8.8c.33.05.59.13.88.29v.2c-.33-.08-.65-.18-.98-.29l.1-.2Z"/>
    <path class="cls-115" d="M4.36,49.15h.29v.2q.11.02.23.04t.45.26q-.65-.07-.98-.29v-.2Z"/>
    <path class="cls-164" d="M2.12,47.78q.28.07.59.2.13.26.2.49h-.2v-.2c-.06,0-.12-.02-.18-.02q-.21-.07-.33-.27c-.02-.06-.05-.12-.07-.19Z"/>
    <path class="cls-180" d="M1.33,46.51c.38.25.39.45.49.88-.1-.03-.19-.06-.29-.1v-.29h-.2q-.05-.19-.1-.39l.1-.1Z"/>
    <path class="cls-131" d="M15.2,33.62l.49.49c-.03.06-.06.13-.1.2q-.19-.07-.39-.2t-.1-.39l.1-.1Z"/>
    <path class="cls-34" d="M14.23,32.25c.22.21.41.44.59.68l-.1.2q-.19-.05-.39-.2-.07-.35-.1-.68Z"/>
    <path class="cls-132" d="M22.92,31.76q.64.06.87.25s.07.09.1.14q-.64-.06-.87-.25s-.07-.09-.1-.14Z"/>
    <path class="cls-147" d="M25.56,25.31l.29.2h-.2c.03.32.06.64.1.98h-.2c-.02-.18-.04-.35-.05-.53-.01-.1-.02-.2-.03-.3,0-.08,0-.16-.01-.24l.1-.1Z"/>
    <path class="cls-48" d="M24.68,22.09q.76.07.98.29c-.42.14-.66.02-1.07-.1l.1-.2Z"/>
    <path class="cls-137" d="M30.74,20.04q.33.03.68.1c.06.1.13.19.2.29l-.2.2c-.06-.06-.12-.12-.18-.18q-.21-.22-.51-.4Z"/>
    <path class="cls-139" d="M31.42,9.29c.29.03.58.06.88.1-.03.06-.06.13-.1.2q-.56.01-.78-.1v-.2Z"/>
    <path class="cls-75" d="M24.58,8.02c.38-.04.54-.03.87.2q.1.1.21.2-.23.06-.49.1c-.06-.06-.13-.13-.2-.2.03-.06.06-.13.1-.2h-.49v-.1Z"/>
    <path class="cls-55" d="M22.43,7.93h-.29c-.03.1-.06.19-.1.29-.13-.03-.26-.06-.39-.1.03-.1.06-.19.1-.29.33-.14.37-.11.68.1Z"/>
    <path class="cls-129" d="M26.05,31.76q-.53.3-.82.26-.08-.03-.16-.07.65-.31.98-.2Z"/>
    <path class="cls-2" d="M19.99,30.2q.54.06.77.25.05.07.11.14c-.26-.03-.52-.06-.78-.1-.03-.1-.06-.19-.1-.29Z"/>
    <path class="cls-78" d="M38.45,25.51h.1c-.03.29-.06.58-.1.88h-.2q-.02-.55.2-.88Z"/>
    <path class="cls-155" d="M37.38,24.04h.1c-.01.14-.02.29-.04.43q-.01.12-.02.24c-.01.07-.03.13-.04.2q-.1.05-.2.1c.01-.14.03-.29.04-.43,0-.08.02-.16.02-.24q.03-.2.13-.3Z"/>
    <path class="cls-169" d="M37.77,22.19h.1v.88q-.1.05-.2.1c-.11-.4-.08-.61.1-.98Z"/>
    <path class="cls-57" d="M18.23,9.29v.2c-.26.03-.52.06-.78.1-.03-.06-.06-.13-.1-.2.3-.09.57-.11.88-.1Z"/>
    <path class="cls-160" d="M30.44,8.9l.88.29v.1c-.41.02-.7-.02-1.07-.2l.2-.2Z"/>
    <path class="cls-123" d="M29.95,8.71q.24.08.49.2c.03.1.06.19.1.29-.23-.02-.46-.06-.68-.1l-.1-.2.2-.2Z"/>
    <path class="cls-3" d="M.94,3.82h.2c-.1.29-.19.58-.29.88h-.2c.1-.29.19-.58.29-.88Z"/>
    <path class="cls-19" d="M47.05,1.77q.29.1.41.3c.03.06.05.12.08.19-.1.03-.19.06-.29.1-.13-.16-.26-.32-.39-.49l.2-.1Z"/>
    <path class="cls-27" d="M5.83.11c-.03.1-.06.19-.1.29-.23-.03-.45-.06-.68-.1V.11c.3-.1.48-.1.78,0Z"/>
    <path class="cls-109" d="M.45,44.85h.2c.06.29.13.58.2.88-.32-.32-.34-.44-.39-.88Z"/>
    <path class="cls-82" d="M32.79,35.57h.29c-.1.26-.16.37-.4.51-.06.02-.12.05-.18.07.06-.28.08-.38.29-.59Z"/>
    <path class="cls-98" d="M15.89,32.44q.24.23.49.49v.29q-.24-.23-.49-.49v-.29Z"/>
    <path class="cls-96" d="M24,32.15c.37.04.66.11.98.29q-.73.03-1.07-.2l.1-.1Z"/>
    <path class="cls-127" d="M15.01,31.17c.37.12.41.25.59.59v.2c-.37-.12-.41-.25-.59-.59v-.2Z"/>
    <path class="cls-104" d="M28.78,15.15h.2v.2c.1.03.19.06.29.1v.78q-.2-.29-.2-.68h-.2l-.1-.39Z"/>
    <path class="cls-12" d="M22.88,13.19c.11,0,.22,0,.34,0q-.46.39-.68.39c-.03-.1-.06-.19-.1-.29q.1-.1.45-.1Z"/>
    <path class="cls-29" d="M34.54,10.17c.14.01.29.02.43.04.08,0,.16.01.24.02q.1.02.2.04c.03.06.06.13.1.2q-.76-.07-.98-.29Z"/>
    <path class="cls-49" d="M26.24,7.24c.37.11.63.19.88.49-.36-.05-.57-.09-.88-.29v-.2Z"/>
    <path class="cls-124" d="M5.53.31c-.1.03-.19.06-.29.1v.2q-.23.06-.49.1c-.06-.06-.13-.13-.2-.2.34-.16.6-.22.98-.2Z"/>
    <path class="cls-63" d="M46.95,47.97h.39q0,.2-.15.35s-.1.09-.15.13c-.1-.03-.19-.06-.29-.1l.2-.39Z"/>
    <path class="cls-7" d="M47.73,47.1h.39c-.03.1-.06.19-.1.29h-.2c-.03.1-.06.19-.1.29q-.11-.37,0-.59Z"/>
    <path class="cls-167" d="M29.37,38.6l.2.1v.2q-.29.2-.51.16c-.06-.02-.12-.04-.18-.06.16-.13.32-.26.49-.39Z"/>
    <path class="cls-83" d="M21.16,37.91q.46.07.68.29v.2c-.36-.12-.47-.16-.68-.49Z"/>
    <path class="cls-168" d="M28.29,31.17c-.31.28-.56.34-.98.39.2-.4.56-.41.98-.39Z"/>
    <path class="cls-50" d="M21.07,30.78q.65-.02.98.2c-.37.14-.61.04-.98-.1v-.1Z"/>
    <path class="cls-146" d="M25.75,26.48c.2.33.21.59.2.98-.1-.06-.19-.13-.29-.2l.1-.78Z"/>
    <path class="cls-165" d="M44.12,25.7h.1v.98c-.16-.03-.32-.06-.49-.1.1-.06.19-.13.29-.2q.07-.35.1-.68Z"/>
    <path class="cls-101" d="M25.66,25.51q.2.1.26.27c.04.26,0,.46-.07.71-.2-.33-.21-.59-.2-.98Z"/>
    <path class="cls-32" d="M23.21,24.82q.48.46.59.68c-.28-.06-.38-.08-.59-.29v-.39Z"/>
    <path class="cls-88" d="M26.05,23.16l.29.2q.02.35,0,.68c-.06-.03-.13-.06-.2-.1-.06-.26-.07-.52-.1-.78Z"/>
    <path class="cls-73" d="M11.79,22.19c.13.4.06.66,0,1.07h-.1c-.03-.32-.06-.64-.1-.98l.2-.1Z"/>
    <path class="cls-162" d="M27.9,14.08q.24.05.49.1c.03.16.06.32.1.49-.2-.16-.39-.32-.59-.49v-.1Z"/>
    <path class="cls-173" d="M25.27,8.41q.54.06.77.25.05.07.11.14-.54-.06-.77-.25s-.07-.09-.11-.14Z"/>
  </g>
  <g>
    <path class="cls-142" d="M68.49,20.57c-1.53,0-2.9-.36-4.1-1.07s-2.15-1.73-2.85-3.07-1.04-2.94-1.04-4.82.35-3.49,1.05-4.83,1.65-2.37,2.85-3.08,2.57-1.07,4.09-1.07c1.27,0,2.43.24,3.47.71s1.9,1.17,2.58,2.07,1.11,1.99,1.3,3.26h-3.15c-.2-1.03-.68-1.83-1.44-2.4s-1.67-.85-2.72-.85c-1.43,0-2.6.53-3.52,1.6s-1.38,2.59-1.38,4.58.46,3.54,1.38,4.58,2.09,1.57,3.5,1.57c1.05,0,1.96-.28,2.72-.85s1.25-1.37,1.45-2.4h3.16c-.16,1.12-.57,2.13-1.21,3.05s-1.48,1.64-2.53,2.19-2.26.81-3.63.81Z"/>
    <path class="cls-142" d="M83.08,20.5c-1.35,0-2.44-.43-3.26-1.29s-1.23-2.07-1.23-3.64V7.23h3.05v7.86c0,.88.23,1.56.69,2.06s1.08.75,1.88.75,1.48-.26,2-.79.79-1.26.79-2.21v-7.68h3.06v13.1h-2.89l-.02-2.62c-.78,1.86-2.13,2.79-4.05,2.79Z"/>
    <path class="cls-142" d="M98.24,20.6c-1.51,0-2.75-.32-3.73-.97s-1.58-1.56-1.81-2.75l2.85-.54c.34,1.28,1.26,1.92,2.75,1.92.75,0,1.35-.15,1.79-.45s.66-.67.66-1.12c0-.74-.59-1.24-1.77-1.5l-2.24-.48c-2.45-.53-3.68-1.75-3.68-3.67,0-.81.22-1.52.67-2.11s1.06-1.05,1.86-1.38,1.71-.49,2.76-.49c1.48,0,2.66.31,3.52.93s1.43,1.43,1.69,2.45l-2.72.54c-.16-.45-.43-.84-.82-1.16s-.94-.48-1.64-.48c-.64,0-1.18.14-1.62.43s-.66.65-.66,1.1c0,.38.14.7.43.94s.76.44,1.44.59l2.23.47c2.45.52,3.67,1.7,3.67,3.54,0,.83-.24,1.56-.71,2.19s-1.14,1.12-1.99,1.48-1.82.53-2.92.53Z"/>
    <path class="cls-142" d="M112.53,7.23v2.39h-2.53v7.02c0,.48.1.83.3,1.05s.53.33,1,.33c.14,0,.32-.02.55-.05s.41-.07.56-.1l.48,2.36c-.34.1-.68.17-1.03.22s-.69.06-1.01.06c-1.26,0-2.22-.31-2.89-.94s-1.01-1.52-1.01-2.67v-7.28h-1.86v-2.39h1.86v-3.12h3.05v3.12h2.53Z"/>
    <path class="cls-142" d="M120.39,20.6c-1.27,0-2.38-.28-3.32-.85s-1.66-1.36-2.17-2.37-.77-2.19-.77-3.53.26-2.55.77-3.57,1.24-1.81,2.17-2.37,2.04-.84,3.32-.84,2.38.28,3.32.84,1.66,1.35,2.18,2.37.77,2.21.77,3.57-.26,2.52-.77,3.53-1.24,1.8-2.18,2.37-2.04.85-3.32.85ZM120.39,18.13c.71,0,1.3-.19,1.77-.57s.82-.9,1.05-1.55.35-1.37.35-2.17-.12-1.53-.35-2.18-.59-1.16-1.05-1.55-1.06-.57-1.77-.57-1.29.19-1.76.57-.82.9-1.05,1.55-.35,1.38-.35,2.18.12,1.52.35,2.17.58,1.16,1.05,1.55,1.05.57,1.76.57Z"/>
    <path class="cls-142" d="M129.32,20.33V7.23h2.86l.09,2.5c.34-.93.85-1.61,1.53-2.05s1.4-.66,2.19-.66c1.67,0,2.79.95,3.36,2.85.35-.95.91-1.66,1.66-2.13s1.6-.71,2.52-.71c1.18,0,2.17.38,2.96,1.15s1.2,1.88,1.2,3.33v8.84h-3.05v-8.37c0-.81-.22-1.41-.67-1.78s-.98-.56-1.61-.56c-.74,0-1.32.23-1.75.69s-.63,1.06-.63,1.79v8.23h-2.98v-8.51c0-.66-.21-1.2-.62-1.6s-.95-.6-1.59-.6-1.25.23-1.72.69-.71,1.12-.71,2v8.03h-3.05Z"/>
    <path class="cls-142" d="M156.72,20.6c-1.32,0-2.46-.28-3.4-.83s-1.68-1.34-2.19-2.34-.77-2.2-.77-3.56.25-2.53.76-3.54,1.22-1.82,2.14-2.39,2.01-.86,3.26-.86c1.06,0,2.05.23,2.96.7s1.64,1.18,2.2,2.16.83,2.22.83,3.76v.96h-9.12c.04,1.16.37,2.05.98,2.66s1.41.91,2.38.91c.67,0,1.25-.14,1.73-.43s.82-.71,1.03-1.27l2.8.57c-.31,1.05-.96,1.9-1.94,2.55s-2.2.97-3.65.97ZM153.4,12.56h6.14c-.09-.94-.39-1.69-.9-2.26s-1.21-.85-2.12-.85-1.67.3-2.21.9-.85,1.33-.92,2.21Z"/>
    <path class="cls-142" d="M165.12,20.33V7.23h2.95v2.19h.14c.23-.76.64-1.34,1.23-1.75s1.25-.62,2-.62c.39,0,.76.03,1.11.08v2.8c-.12-.03-.33-.06-.61-.1s-.56-.05-.83-.05c-.85,0-1.56.26-2.12.79s-.84,1.21-.84,2.04v7.71h-3.05Z"/>
  </g>
  <g>
    <path class="cls-81" d="M67.19,48.22l-6.12-17.46h3.97l2.79,8.43c.28.88.56,1.82.84,2.85s.57,2.12.87,3.3c.3-1.19.58-2.29.85-3.3s.54-1.96.8-2.85l2.7-8.43h3.95l-5.98,17.46h-4.68Z"/>
    <path class="cls-81" d="M82.15,48.48c-1.25,0-2.29-.33-3.12-.99s-1.24-1.64-1.24-2.94c0-.98.23-1.74.7-2.3s1.08-.96,1.83-1.22,1.55-.43,2.41-.5c1.12-.11,1.94-.22,2.43-.35s.74-.4.74-.83v-.06c0-.55-.18-.98-.53-1.29s-.86-.46-1.52-.46-1.23.15-1.64.44-.69.65-.83,1.07l-3.22-.54c.34-1.13,1.01-2.01,2.01-2.64s2.24-.94,3.7-.94c.94,0,1.83.15,2.68.45s1.54.77,2.07,1.42.8,1.51.8,2.57v8.82h-3.33v-1.82h-.12c-.32.61-.8,1.11-1.43,1.49s-1.43.58-2.4.58ZM83.15,46c.82,0,1.49-.24,2.01-.71s.78-1.06.78-1.76v-1.42c-.14.1-.37.19-.69.26s-.65.14-1,.2-.66.1-.91.13c-.65.09-1.17.28-1.57.55s-.6.67-.6,1.2.19.89.56,1.15.85.39,1.42.39Z"/>
    <path class="cls-81" d="M96.94,48.38c-1.36,0-2.45-.44-3.28-1.31s-1.24-2.08-1.24-3.62v-8.33h3.52v7.72c0,.81.21,1.45.63,1.91s1,.69,1.73.69,1.36-.24,1.83-.72.71-1.15.71-2.02v-7.58h3.53v13.1h-3.33l-.05-2.72c-.37.93-.89,1.64-1.56,2.14s-1.51.74-2.5.74Z"/>
    <path class="cls-81" d="M110.88,30.76v17.46h-3.52v-17.46h3.52Z"/>
    <path class="cls-81" d="M120.73,35.12v2.68h-2.45v6.59c0,.81.4,1.22,1.2,1.22.13,0,.32-.02.56-.05s.42-.07.56-.1l.5,2.64c-.39.12-.78.2-1.17.25s-.76.07-1.11.07c-1.31,0-2.32-.32-3.01-.96s-1.04-1.56-1.04-2.76v-6.89h-1.8v-2.68h1.8v-3.12h3.52v3.12h2.45Z"/>
  </g>
</svg>