<?xml version="1.0" encoding="UTF-8"?>
<svg id="_레이어_1" data-name="레이어 1" xmlns="http://www.w3.org/2000/svg" viewBox="0 0 200 200">
  <defs>
    <style>
      .cls-1 {
        fill: #1662a1;
      }

      .cls-2 {
        fill: #f6dd05;
      }

      .cls-3 {
        fill: #12599d;
      }

      .cls-4 {
        fill: #d6c10d;
      }

      .cls-5 {
        fill: #fedf3b;
      }

      .cls-6 {
        fill: #4fc6d5;
      }

      .cls-7 {
        fill: #608db9;
      }

      .cls-8 {
        fill: #024c8c;
      }

      .cls-9 {
        fill: #325171;
      }

      .cls-10 {
        fill: #fdfdfe;
      }

      .cls-11 {
        fill: #0a325b;
      }

      .cls-12 {
        fill: #374a63;
      }

      .cls-13 {
        fill: #cbeef2;
      }

      .cls-14 {
        fill: #133751;
      }

      .cls-15 {
        fill: #022854;
      }

      .cls-16 {
        fill: #195898;
      }

      .cls-17 {
        fill: #062342;
      }

      .cls-18 {
        fill: #0a3059;
      }

      .cls-19 {
        fill: #4679af;
      }

      .cls-20 {
        fill: #4e5a3f;
      }

      .cls-21 {
        fill: #082f58;
      }

      .cls-22 {
        fill: #01336e;
      }

      .cls-23 {
        fill: #061b36;
      }

      .cls-24 {
        fill: #f5fcfc;
      }

      .cls-25 {
        fill: #183f62;
      }

      .cls-26 {
        fill: #566f86;
      }

      .cls-27 {
        fill: #7ca2c6;
      }

      .cls-28 {
        fill: #142743;
      }

      .cls-29 {
        fill: #145596;
      }

      .cls-30 {
        fill: #3aafe1;
      }

      .cls-31 {
        fill: #31c2cd;
      }

      .cls-32 {
        fill: #dfcb0d;
      }

      .cls-33 {
        fill: #304547;
      }

      .cls-34 {
        fill: #41bfc9;
      }

      .cls-35 {
        fill: #2f4354;
      }

      .cls-36 {
        fill: #1a5b9b;
      }

      .cls-37 {
        fill: #2d4753;
      }

      .cls-38 {
        fill: #052852;
      }

      .cls-39 {
        fill: #4c6277;
      }

      .cls-40 {
        fill: #155695;
      }

      .cls-41 {
        fill: #4ec2f0;
      }

      .cls-42 {
        fill: #1e364e;
      }

      .cls-43 {
        fill: #6c97c0;
      }

      .cls-44 {
        fill: #0f3259;
      }

      .cls-45 {
        fill: #aec2d7;
      }

      .cls-46 {
        fill: #5e8db9;
      }

      .cls-47 {
        fill: #40bcc7;
      }

      .cls-48 {
        fill: #fadf06;
      }

      .cls-49 {
        fill: #1a5a9b;
      }

      .cls-50 {
        fill: #e8d50b;
      }

      .cls-51 {
        fill: #031f3c;
      }

      .cls-52 {
        fill: #bfe0e9;
      }

      .cls-53 {
        fill: #3fb4e6;
      }

      .cls-54 {
        fill: #e8d733;
      }

      .cls-55 {
        fill: #3b74aa;
      }

      .cls-56 {
        fill: #1e5e9c;
      }

      .cls-57 {
        fill: #185898;
      }

      .cls-58 {
        fill: #073058;
      }

      .cls-59 {
        fill: #0b1b35;
      }

      .cls-60 {
        fill: #1b5c9a;
      }

      .cls-61 {
        fill: #316aa3;
      }

      .cls-62 {
        fill: #2db6c2;
      }

      .cls-63 {
        fill: #7ba1c6;
      }

      .cls-64 {
        fill: #618eb9;
      }

      .cls-65 {
        fill: #24b3c8;
      }

      .cls-66 {
        fill: #2f4e70;
      }

      .cls-67 {
        fill: #1ec1cc;
      }

      .cls-68 {
        fill: #bfb21b;
      }

      .cls-69 {
        fill: #f3f6f8;
      }

      .cls-70 {
        fill: #dbca10;
      }

      .cls-71 {
        fill: #0d2240;
      }

      .cls-72 {
        fill: #0e386f;
      }

      .cls-73 {
        fill: #456381;
      }

      .cls-74 {
        fill: #fade03;
      }

      .cls-75 {
        fill: #4e6379;
      }

      .cls-76 {
        fill: #165899;
      }

      .cls-77 {
        fill: #195a9b;
      }

      .cls-78 {
        fill: #0765b1;
      }

      .cls-79 {
        fill: #6992be;
      }

      .cls-80 {
        fill: #0d3159;
      }

      .cls-81 {
        fill: #1b5d9d;
      }

      .cls-82 {
        fill: #2c4d6f;
      }

      .cls-83 {
        fill: #175899;
      }

      .cls-84 {
        fill: #135899;
      }

      .cls-85 {
        fill: #052256;
      }

      .cls-86 {
        fill: #092343;
      }

      .cls-87 {
        fill: #03245a;
      }

      .cls-88 {
        fill: #1b316c;
      }

      .cls-89 {
        fill: #467aaf;
      }

      .cls-90 {
        fill: #0169b0;
      }

      .cls-91 {
        fill: #081e35;
      }

      .cls-92 {
        fill: #fbfbfc;
      }

      .cls-93 {
        fill: #032c67;
      }

      .cls-94 {
        fill: #013d7a;
      }

      .cls-95 {
        fill: #0f2f5f;
      }

      .cls-96 {
        fill: #0f2745;
      }

      .cls-97 {
        fill: #11335b;
      }

      .cls-98 {
        fill: #283f5a;
      }

      .cls-99 {
        fill: #2dbbcf;
      }

      .cls-100 {
        fill: #cfbe0f;
      }

      .cls-101 {
        fill: #3d76ac;
      }

      .cls-102 {
        fill: #ebd809;
      }

      .cls-103 {
        fill: #51667b;
      }

      .cls-104 {
        fill: #1a5d9a;
      }

      .cls-105 {
        fill: #64d7e2;
      }

      .cls-106 {
        fill: #0d324e;
      }

      .cls-107 {
        fill: #4d657e;
      }

      .cls-108 {
        fill: #175a9c;
      }

      .cls-109 {
        fill: #fde205;
      }

      .cls-110 {
        fill: #06275a;
      }

      .cls-111 {
        fill: #234766;
      }

      .cls-112 {
        fill: #3771a9;
      }

      .cls-113 {
        fill: #1b5c9c;
      }

      .cls-114 {
        fill: #155797;
      }

      .cls-115 {
        fill: #e2d30b;
      }

      .cls-116 {
        fill: #0173bc;
      }

      .cls-117 {
        fill: #3b4f4b;
      }

      .cls-118 {
        fill: #1f67a4;
      }

      .cls-119 {
        fill: #2cb9c3;
      }

      .cls-120 {
        fill: #0a2846;
      }

      .cls-121 {
        fill: #eaf9f9;
      }

      .cls-122 {
        fill: #4f80b0;
      }

      .cls-123 {
        fill: #1c5f9e;
      }

      .cls-124 {
        fill: #0b2c49;
      }

      .cls-125 {
        fill: #4d7fb1;
      }

      .cls-126 {
        fill: #0c3159;
      }

      .cls-127 {
        fill: #0a3159;
      }

      .cls-128 {
        fill: #fbe204;
      }

      .cls-129 {
        fill: #76d0f2;
      }

      .cls-130 {
        fill: #41bdc7;
      }

      .cls-131 {
        fill: #062860;
      }

      .cls-132 {
        fill: #02295b;
      }

      .cls-133 {
        fill: #145898;
      }

      .cls-134 {
        fill: #fee530;
      }

      .cls-135 {
        fill: #8fd1ed;
      }

      .cls-136 {
        fill: #23374b;
      }

      .cls-137 {
        fill: #1dc2d2;
      }

      .cls-138 {
        fill: #195b99;
      }

      .cls-139 {
        fill: #0d2342;
      }

      .cls-140 {
        fill: #072856;
      }

      .cls-141 {
        fill: #24405b;
      }

      .cls-142 {
        fill: #2865a0;
      }

      .cls-143 {
        fill: #efeff0;
      }

      .cls-144 {
        fill: #374a3f;
      }

      .cls-145 {
        fill: #2a3f44;
      }

      .cls-146 {
        fill: #09285e;
      }

      .cls-147 {
        fill: #e5d30e;
      }

      .cls-148 {
        fill: #364e81;
      }

      .cls-149 {
        fill: #dce5ef;
      }

      .cls-150 {
        fill: #195999;
      }

      .cls-151 {
        fill: #30cfd2;
      }

      .cls-152 {
        fill: #45c2d2;
      }

      .cls-153 {
        fill: #031e3c;
      }

      .cls-154 {
        fill: #325e94;
      }

      .cls-155 {
        fill: #0c324f;
      }

      .cls-156 {
        fill: #0d2f4c;
      }

      .cls-157 {
        fill: #082744;
      }

      .cls-158 {
        fill: #1b5c9b;
      }

      .cls-159 {
        fill: #091d37;
      }

      .cls-160 {
        fill: #253a55;
      }

      .cls-161 {
        fill: #214267;
      }

      .cls-162 {
        fill: #7ca1c4;
      }

      .cls-163 {
        fill: #013069;
      }

      .cls-164 {
        fill: #255a99;
      }

      .cls-165 {
        fill: #3974ae;
      }

      .cls-166 {
        fill: #092658;
      }

      .cls-167 {
        fill: #072442;
      }

      .cls-168 {
        fill: #3a73a8;
      }

      .cls-169 {
        fill: #2ab9cb;
      }

      .cls-170 {
        fill: #0b325a;
      }

      .cls-171 {
        fill: #082242;
      }

      .cls-172 {
        fill: #185b9b;
      }

      .cls-173 {
        fill: #5383b3;
      }

      .cls-174 {
        fill: #6491bd;
      }

      .cls-175 {
        fill: #fcd209;
      }

      .cls-176 {
        fill: #13589c;
      }

      .cls-177 {
        fill: #245597;
      }

      .cls-178 {
        fill: #6591bc;
      }

      .cls-179 {
        fill: #0b5192;
      }

      .cls-180 {
        fill: #3d5c7c;
      }

      .cls-181 {
        fill: #0371b9;
      }

      .cls-182 {
        fill: #305375;
      }

      .cls-183 {
        fill: #36c8d8;
      }

      .cls-184 {
        fill: #05213f;
      }

      .cls-185 {
        fill: #47c9d5;
      }

      .cls-186 {
        fill: #f7f8f9;
      }

      .cls-187 {
        fill: #ead121;
      }

      .cls-188 {
        fill: #1062a0;
      }
    </style>
  </defs>
  <path class="cls-142" d="M25.05-.09c.26,0,.53,0,.8,0,.89,0,1.77,0,2.66,0,.64,0,1.28,0,1.92,0,1.76,0,3.53,0,5.29,0,1.9,0,3.8,0,5.7,0,3.72,0,7.45,0,11.17,0,3.02,0,6.05,0,9.07,0,.43,0,.86,0,1.3,0,.87,0,1.75,0,2.62,0,8.2,0,16.39,0,24.59,0,7.04,0,14.07,0,21.11,0,8.17,0,16.33,0,24.5,0,.87,0,1.74,0,2.61,0,.43,0,.86,0,1.3,0,3.02,0,6.04,0,9.07,0,3.68,0,7.36,0,11.04,0,1.88,0,3.76,0,5.64,0,1.72,0,3.44,0,5.16,0,.62,0,1.25,0,1.87,0,.84,0,1.69,0,2.53,0,.47,0,.94,0,1.42,0,.99.04,1.81.15,2.75.44v.78c.9.13,1.81.26,2.74.39v.78c.64.13,1.29.26,1.95.39v.78c.64.13,1.29.26,1.95.39v.78c.29.02.58.05.88.07,1.42.42,1.79,1.09,2.64,2.27.29.28.58.56.88.86q.68.71.68,1.49c.39.13.77.26,1.17.39v.78c.39.13.77.26,1.17.39v.78h.78c.13.39.26.77.39,1.17l.78.39q.24,1,.39,1.95h.78c.49,1.14.78,1.87.78,3.13h.78c.13,1.03.26,2.06.39,3.13h.78c.75,3.62.89,7.14.88,10.82,0,.61,0,1.22,0,1.83,0,1.66,0,3.32,0,4.98,0,1.8,0,3.59,0,5.39,0,3.51,0,7.02,0,10.54,0,2.86,0,5.71,0,8.57,0,.41,0,.81,0,1.23,0,.83,0,1.65,0,2.48,0,7.75,0,15.49,0,23.24,0,6.64,0,13.28,0,19.93,0,7.72,0,15.44,0,23.16,0,.82,0,1.65,0,2.47,0,.41,0,.81,0,1.23,0,2.85,0,5.7,0,8.55,0,3.48,0,6.95,0,10.43,0,1.77,0,3.54,0,5.32,0,1.62,0,3.25,0,4.87,0,.59,0,1.17,0,1.76.01,3.39-.2,6.63-.88,9.96h-.78c-.13,1.16-.26,2.32-.39,3.52h-.78c-.06.3-.11.6-.17.9q-.22,1.05-.61,2.22h-.78c-.04.3-.08.6-.12.9-.29,1.12-.53,1.53-1.44,2.22h-.78c-.13.52-.26,1.03-.39,1.56h-.78c-.13.39-.26.77-.39,1.17h-.78c-.1.3-.21.6-.32.9-.46,1.03-.74,1.56-1.64,2.22q-1.05.27-1.95.39c-.13.39-.26.77-.39,1.17h-1.17v.78c-.52.13-1.03.26-1.56.39v.78c-.77.13-1.55.26-2.35.39v.78c-.9.13-1.81.26-2.74.39v.78c-1.55.37-3,.44-4.59.44-.26,0-.52,0-.79,0-.88,0-1.75,0-2.63,0-.63,0-1.27,0-1.9,0-1.74,0-3.49,0-5.23,0-1.88,0-3.76,0-5.64,0-3.68,0-7.36,0-11.05,0-2.99,0-5.98,0-8.98,0-.43,0-.85,0-1.29,0-.86,0-1.73,0-2.59,0-8.11,0-16.22,0-24.33,0-6.96,0-13.92,0-20.88,0-8.08,0-16.16,0-24.24,0-.86,0-1.72,0-2.58,0-.42,0-.85,0-1.28,0-2.99,0-5.98,0-8.97,0-3.64,0-7.28,0-10.93,0-1.86,0-3.72,0-5.58,0-1.7,0-3.4,0-5.1,0-.62,0-1.23,0-1.85,0-.84,0-1.67,0-2.51,0-.46,0-.93,0-1.41,0-1.11-.04-2.1-.18-3.18-.44v-.78c-.9-.13-1.81-.26-2.74-.39v-.78c-.77-.13-1.55-.26-2.35-.39v-.78c-.52-.13-1.03-.26-1.56-.39v-.78c-.52-.13-1.03-.26-1.56-.39v-.78c-.52-.13-1.03-.26-1.56-.39v-.78c-.24-.02-.48-.05-.73-.07-.27-.1-.55-.21-.83-.32-.27-.65-.54-1.3-.78-1.95-.39-.13-.77-.26-1.17-.39v-.78c-.39-.13-.77-.26-1.17-.39v-1.17h-.78c-.11-.31-.23-.63-.34-.95q-.34-1.05-1.22-1.39-1.56-2.48-1.56-3.91h-.78c-.27-.85-.52-1.71-.78-2.57-.15-.48-.29-.95-.44-1.44-.34-1.46-.4-2.71-.34-4.2H-.23V26.15h.78c.13-1.55.26-3.1.39-4.69h.78c.13-1.03.26-2.06.39-3.13h.78c.06-.3.11-.6.17-.9q.22-1.05.61-2.22h.78c.05-.31.1-.63.15-.95.08-.33.16-.66.24-1q.39-.19.78-.39c.13-.39.26-.77.39-1.17h.78c.13-.39.26-.77.39-1.17h.78c.13-.39.26-.77.39-1.17h.78c.09-.29.18-.58.27-.88.61-1.29,1.29-1.85,2.47-2.64h.78v-.78l1.56-.39v-.78l1.95-.39v-.78l1.95-.39v-.78q1.35-.19,2.74-.39V.35c1.4-.44,2.71-.44,4.17-.44Z"/>
  <path class="cls-25" d="M101.39,32.01q1.12.54,1.95,1.17v.78c.42.11.84.23,1.27.34q1.47.44,2.27.86c1.01.49,2,.61,3.1.76v.78c.29.05.57.1.87.15,1.03.23,1.91.54,2.88.95,2.18.9,4.41,1.61,6.66,2.31.39.12.78.25,1.19.37.95.3,1.91.6,2.87.9v.78c.39.05.77.09,1.17.14,1.62.23,3.13.67,4.69,1.16.59.18,1.19.35,1.78.53,1.04.31,2.08.62,3.11.94,3.64,1.05,7.31,1.63,11.06,2.16,3.25.47,6.29,1.2,9.45,2.11q.24,19.18-1.01,28.09c-.17,1.3-.31,2.6-.45,3.9-.76,7.32-2.24,14.15-4.41,21.17-.16.52-.31,1.03-.47,1.55-.36,1.18-.72,2.36-1.09,3.54h-.78c-.05.28-.1.57-.15.86-.38,1.75-1.11,3.35-1.8,5-.13.31-.26.62-.4.94-.59,1.37-1.21,2.69-1.97,3.97-.83,1.47-1.37,2.88-1.93,4.47h-.78c-.1.27-.19.54-.29.82-.58,1.33-1.31,2.52-2.1,3.73-.16.24-.31.48-.48.73-7.97,12.14-18.31,21.5-30.67,29-.34.21-.68.41-1.03.63-.32.19-.63.38-.96.57-.28.17-.56.34-.85.51q-.75.36-1.92.36c-.13.39-.26.77-.39,1.17-1.86.45-2.79.36-4.47-.54q-.6-.32-1.21-.65t-1.35-.77c-.26-.15-.52-.29-.79-.45-.82-.46-1.63-.94-2.44-1.41-.26-.15-.52-.3-.79-.46-.63-.38-1.24-.79-1.85-1.2v-.78l-.8-.27c-1.47-.66-2.67-1.53-3.96-2.49-.26-.19-.52-.38-.78-.58-1.87-1.4-3.63-2.89-5.34-4.48-.74-.69-1.5-1.33-2.28-1.97-1.22-1.04-2.24-2.18-3.27-3.4-.86-.99-1.75-1.95-2.64-2.91-1.48-1.63-2.88-3.29-4.23-5.03-.17-.22-.34-.44-.52-.66q-1.19-1.56-1.19-2.44h-.78c-.11-.22-.23-.43-.35-.65-1.43-2.66-2.92-5.28-4.42-7.9-.2-.36-.41-.72-.62-1.08q-1.12-1.96-2.28-3.9c-.8-1.36-1.23-2.8-1.73-4.28q-.32-1-1.16-1.73-.19-.69-.34-1.54c-.28-1.36-.65-2.59-1.15-3.88-.77-2.05-1.37-4.14-1.93-6.25-.09-.32-.17-.64-.26-.97-.4-1.55-.73-2.93-.62-4.55h-.78l-1.56-8.6c-.06-.31-.12-.62-.19-.95-.5-2.58-.78-5.12-.93-7.75-.02-.41-.05-.81-.08-1.23-.08-1.31-.15-2.61-.23-3.92q-.04-.67-.08-1.34c-.39-6.67-.64-13.3-.46-19.98,1.75-.65,3.4-.96,5.25-1.17,1.98-.23,3.78-.61,5.69-1.17,1.19-.21,2.38-.39,3.57-.56,1.11-.22,2.03-.58,3.07-1,1.02-.25,2.03-.48,3.05-.71,2.84-.64,5.61-1.44,8.38-2.34,1.31-.42,2.63-.82,3.96-1.21,2.41-.74,4.74-1.64,7.07-2.57,1.45-.58,2.91-1.12,4.4-1.6,1.3-.43,2.51-.92,3.73-1.57.94-.49,1.86-.96,2.85-1.35.88-.35,1.67-.76,2.5-1.21,1.38-.69,2.37-.98,3.93-.73Z"/>
  <path class="cls-106" d="M99.44,32.4h1.56c.13.39.26.77.39,1.17.4.04.79.08,1.2.12,1.59.28,2.8.8,4.28,1.44,1.04.3,2.07.54,3.13.78v.78q.43.07.87.15c1.03.23,1.91.54,2.88.95,2.18.9,4.41,1.61,6.66,2.31.39.12.78.25,1.19.37.95.3,1.91.6,2.87.9v.78q.58.07,1.17.14c1.62.23,3.13.67,4.69,1.16.59.18,1.19.35,1.78.53,1.04.31,2.08.62,3.11.94,3.64,1.05,7.31,1.63,11.06,2.16,3.25.47,6.29,1.2,9.45,2.11q.24,19.18-1.01,28.09c-.17,1.3-.31,2.6-.45,3.9-.76,7.32-2.24,14.15-4.41,21.17-.16.52-.31,1.03-.47,1.55-.36,1.18-.72,2.36-1.09,3.54h-.78c-.05.28-.1.57-.15.86-.38,1.75-1.11,3.35-1.8,5-.13.31-.26.62-.4.94-.59,1.37-1.21,2.69-1.97,3.97-.83,1.47-1.37,2.88-1.93,4.47h-.78q-.14.4-.29.82c-.58,1.33-1.31,2.52-2.1,3.73-.16.24-.31.48-.48.73-7.96,12.12-18.27,21.37-30.52,28.97-.32.2-.64.41-.97.62-.31.19-.62.38-.94.57q-.4.25-.82.51-1.02.41-4.54.8c-.13-9.67-.26-19.35-.39-29.31-1.03-.26-2.06-.52-3.13-.78q.19-.39.39-.78c.32.04.65.08.98.13.42.05.85.09,1.29.14.42.05.84.1,1.28.15q1.13.09,1.77-.56c.18-.21.36-.42.54-.64q.78-.36,1.73-.68c.38-.13.75-.26,1.14-.4.47-.16.94-.32,1.42-.48.98-.34,1.96-.68,2.94-1.03.68-.24,1.36-.47,2.04-.71,1.53-.53,3.05-1.08,4.57-1.67q1.4-.5,2.57-.5v-.78c.25-.09.49-.19.75-.29,1.65-.65,3.29-1.3,4.9-2.06q.36-.17.73-.34c.89-.59,1.29-1.06,1.83-2,.12-1.1.17-2.12.17-3.23q0-.49.01-.98c.01-1.07.01-2.14.01-3.21,0-.75,0-1.49.01-2.24,0-1.56,0-3.13,0-4.69,0-2,.02-4,.04-6,.01-1.54.02-3.08.01-4.62,0-.74,0-1.48.02-2.21.01-1.03,0-2.07,0-3.1,0-.3.01-.61.02-.92-.03-1.64-.25-2.55-1.4-3.76-1.3-1.19-2.62-1.49-4.33-1.73q-.4-.07-.82-.14c-.66-.11-1.31-.21-1.97-.3,0-.35-.02-.71-.03-1.07-.04-1.32-.08-2.64-.12-3.96-.02-.57-.03-1.14-.05-1.71-.02-.82-.05-1.64-.07-2.47-.01-.49-.03-.99-.04-1.49-.08-1.41-.25-2.76-.47-4.16h-.78q-.19-1.35-.39-2.74h-.78c-.17-.44-.34-.87-.51-1.32-2.19-4.31-6.54-6.67-10.82-8.45-1.69-.5-3.31-.46-5.06-.46q-.47,0-.95-.01c-1.72,0-2.97.13-4.55.87q-1.29.05-2.35,0c.94-1.13,1.69-1.37,3.13-1.56v-.78h4.69c-.13-5.93-.26-11.87-.39-17.98Z"/>
  <path class="cls-175" d="M107.27,52.87c3.31,1.8,7.48,4.42,8.98,8.06v1.17h.78q.19,1.35.39,2.74h.78c.64,1.95.88,3.58.86,5.65,0,.27,0,.53,0,.8,0,.84-.01,1.67-.02,2.51,0,.57,0,1.14-.01,1.71,0,1.39-.02,2.78-.04,4.17q.65,0,1.31-.01c1.21,0,2.07.09,3.21.45.27.08.55.16.83.25,1.34.72,2.36,1.59,3.25,2.83.33,1.11.32,2.16.3,3.31,0,.32,0,.65.01.98,0,1.07,0,2.13-.01,3.2,0,.74,0,1.49,0,2.23,0,1.56,0,3.12-.02,4.68-.02,2-.01,3.99,0,5.99,0,1.54,0,3.07,0,4.61,0,.74,0,1.47,0,2.21,0,1.03,0,2.06-.02,3.09q0,.45.01.92c-.05,2.28-.65,3.2-2.22,4.74-2.02,1.24-4.27,2.15-6.64,2.35v.78c-2.05.76-4.1,1.5-6.16,2.21q-6.13,1.69-11.43,4.83c-1.9.27-3.05-.27-4.66-1.14-2.08-1.09-4.36-1.75-6.6-2.44q-.85-.33-1.78-.91c-1.13-.66-2.18-1-3.44-1.35-2.25-.66-4.41-1.45-6.57-2.37v-.78c-.27-.03-.55-.06-.83-.1-1.83-.48-3.44-1.57-4.64-3.03-.48-1.43-.46-2.75-.48-4.23,0-.31,0-.62-.01-.94-.04-3.26-.06-6.51-.08-9.77,0-1.54-.03-3.09-.05-4.63-.03-1.87-.04-3.73-.05-5.6,0-.71-.01-1.42-.03-2.13q-.11-6.24,1.49-8.29c1.48-1.31,2.69-1.59,4.65-1.73.27-.02.53-.05.81-.07.65-.05,1.3-.09,1.95-.13,0-.34,0-.67.01-1.02q.22-15.81,4.68-20.48c.22-.27.45-.54.68-.81,2.2-2.47,4.94-3.73,7.92-5.05.31-.15.62-.3.94-.46,3.77-1.2,8.44-.58,11.98,1Z"/>
  <path class="cls-69" d="M102.89,28.11c.45.35.89.7,1.32,1.05,1.01.73,2.06,1.01,3.24,1.36,2.86.91,5.59,2.22,8.31,3.49,2.33,1.08,4.54,2.09,7.08,2.6,2.31.5,4.5,1.31,6.73,2.1,5.26,1.84,10.47,3.17,15.98,4.08q.8.16,1.58.55c1.04.14,2.08.27,3.13.39q3.02.34,3.91.78c.85.06,1.7.1,2.55.13,1.41.38,2.42,1.08,3.32,2.22.32,1.15.27,2.25.23,3.44,0,.33,0,.65-.01.99-.01,1.04-.04,2.08-.07,3.12-.01.71-.02,1.41-.03,2.12-.03,1.73-.07,3.46-.11,5.18.28,0,.56,0,.85,0,2.65-.02,5.3-.04,7.95-.05,1.36,0,2.73-.01,4.09-.03,1.57-.02,3.13-.02,4.7-.03.49,0,.98-.01,1.48-.02q.68,0,1.38,0c.4,0,.8,0,1.21,0q1,.14,1.73.64.45.68.45,2.24h-24.23v5.47c-.09,1.67-.19,3.34-.32,5.01q-.04.61-.08,1.23c-.27,3.57-.89,7.06-1.55,10.57.28,0,.57,0,.86-.01,2.67-.03,5.35-.06,8.02-.07,1.37,0,2.75-.02,4.12-.04,1.58-.02,3.16-.03,4.75-.03.49,0,.98-.02,1.49-.02,2.67,0,4.41.11,6.56,1.74q.78.78.78,2.35c-.39-.13-.77-.26-1.17-.39-.84-.05-1.69-.07-2.54-.08-.26,0-.51,0-.77-.01-.84-.01-1.69-.02-2.53-.03-.59,0-1.17-.02-1.76-.02-1.54-.02-3.08-.04-4.62-.06-1.57-.02-3.14-.04-4.72-.06-3.08-.04-6.17-.08-9.25-.12-.02.29-.05.58-.07.88-.03.38-.06.77-.1,1.16-.03.38-.06.76-.09,1.15-.18,1.56-.6,2.99-1.08,4.48-.18.57-.36,1.14-.53,1.72q-.12.4-.25.81c-.27.93-.49,1.87-.68,2.82q-.32,1.44-.71,2.2c-.42.86-.59,1.62-.76,2.56-.29,1.41-.67,2.21-1.59,3.32-.15.65-.28,1.3-.39,1.95q.56,0,1.12,0c3.5-.02,7-.04,10.51-.05,1.8,0,3.6-.01,5.4-.03,1.74-.01,3.48-.02,5.22-.02.66,0,1.32,0,1.99-.01.93,0,1.86,0,2.79,0,.27,0,.54,0,.82-.01,2.22.01,3.95.55,5.74,1.88q.42.61.42,2.17-17.8-.19-35.96-.39v1.17h-.78c-.04.2-.08.4-.12.61-1.88,6.66-6.56,12.83-10.82,18.15-.3.38-.6.77-.91,1.16-2.29,2.87-4.77,5.56-7.3,8.22q-.42.44-.84.89c-2.04,2.11-4.29,3.93-6.58,5.75q-.57.47-1.16.94c-4.51,3.59-9.47,6.45-14.48,9.3-.26.15-.53.3-.8.46q-1.84,1.03-2.72,1.03v.78c-.53.03-1.06.05-1.59.07q-.44.02-.89.04c-10.64-1.18-22.5-13.33-29.67-20.41-.33-.32-.65-.64-.99-.97q-.46-.46-.92-.92t-.82-.82q-.68-.83-1.1-1.89c-.12-.3-.24-.59-.37-.9-.39-.13-.77-.26-1.17-.39q-.79-.93-1.66-2.13-.23-.32-.47-.65c-.46-.64-.92-1.28-1.38-1.92-.22-.29-.44-.59-.67-.89-1.7-2.31-3.12-4.78-4.55-7.27-.21-.36-.42-.73-.64-1.1q-.29-.52-.59-1.05c-.18-.31-.35-.62-.54-.94-.41-.82-.64-1.54-.82-2.43h-.78c-.52-1.16-1.03-2.32-1.56-3.52-4.47,0-8.94-.02-13.41-.02-2.08,0-4.15,0-6.23,0-2,0-4,0-6.01,0-.77,0-1.53,0-2.3,0-1.07,0-2.14,0-3.21,0-.32,0-.64,0-.97,0q-1.58-.03-3.06.44c.11-1.31.37-1.93,1.19-2.99,1.43-1.15,2.49-1.19,4.24-1.14.31,0,.61,0,.93,0,1,0,2.01.02,3.01.03.7,0,1.4,0,2.09,0,1.83,0,3.67.03,5.5.05,1.87.02,3.75.03,5.62.04,3.67.02,7.35.05,11.02.1-.24-.75-.49-1.5-.73-2.25-.14-.42-.27-.83-.41-1.26-.34-.97-.74-1.83-1.2-2.74-.19-.71-.37-1.43-.54-2.15-.29-1.18-.64-2.35-.98-3.52-.6-2.08-1.17-4.16-1.71-6.25q-.1-.39-.21-.78c-.41-1.6-.48-2.79-.48-4.5-8.51.13-17.03.26-25.8.39q.78-1.56,1.56-2.35.97-.11,2.21-.12.69-.01,1.4-.02c.5,0,1,0,1.52-.01.51,0,1.02-.02,1.55-.02,1.36-.02,2.72-.04,4.08-.05,1.39-.02,2.77-.04,4.16-.06,2.72-.04,5.44-.07,8.16-.1.13-.39.26-.77.39-1.17-.3,0-.61,0-.92.01-2.87.03-5.74.06-8.61.07-1.48,0-2.95.02-4.43.04-1.42.02-2.85.03-4.27.03-.54,0-1.09,0-1.63.02-.76.01-1.52.01-2.28.01q-.65,0-1.31.01c-1.45-.23-2.09-.72-3.12-1.75-.38-1.14-.45-1.89-.46-3.07,0-.38-.01-.77-.02-1.17,0-.42,0-.83,0-1.26,0-.43,0-.85,0-1.3,0-.9,0-1.81-.01-2.71,0-1.38-.02-2.77-.04-4.15,0-.88,0-1.76,0-2.64,0-.41-.01-.83-.02-1.25q0-2.88.93-4.4c1.3-1.15,2.03-1.16,3.74-1.16q.67,0,1.35,0c.48,0,.97,0,1.46,0,.49,0,.99,0,1.5,0,1.31,0,2.62,0,3.94,0,1.34,0,2.68,0,4.02,0,2.63,0,5.25.01,7.88.02-.01-.44-.02-.88-.03-1.33-.04-1.64-.06-3.27-.08-4.91,0-.71-.02-1.41-.04-2.12-.02-1.02-.03-2.04-.04-3.05-.01-.31-.02-.63-.03-.95,0-1.65.08-2.3,1.11-3.66,1-.74,1.42-1.03,2.63-1.09.29-.02.59-.04.89-.06q.47-.02.94-.05c5.5-.43,10.68-1.76,15.94-3.36,1.6-.48,3.21-.91,4.82-1.34,3.54-.94,7.03-1.97,10.51-3.12.38-.12.76-.25,1.15-.37,2.27-.76,4.43-1.66,6.6-2.7.99-.42,1.93-.67,2.98-.88.5-.1,1-.21,1.51-.32.13-.26.26-.52.39-.78.8-.28,1.62-.53,2.44-.76,1.72-.48,3.08-1.04,4.59-1.98h.78v-.78c1.86-.51,4.03-.97,5.79,0ZM96.84,33.1c-1.46.76-2.98,1.35-4.5,1.98-.84.35-1.68.7-2.52,1.06-3.9,1.66-7.87,3.09-11.87,4.47q-.4.14-.8.28c-2.64.9-5.32,1.69-7.99,2.48-.46.14-.92.27-1.39.42-2.21.66-4.41,1.26-6.66,1.73q-.84.18-1.98.59c-1.19.39-2.31.59-3.55.76-1.86.27-3.7.59-5.55.98-1.58.31-3.17.55-4.77.8q-.91.09-1.32.57c-.6,7.03.13,14.31.54,21.33.02.44.05.88.07,1.33.07,1.28.15,2.55.23,3.83.02.38.04.76.07,1.15.16,2.56.55,5.03,1.05,7.55.52,2.87,1.04,5.73,1.56,8.6h.78c.04.42.08.85.13,1.28.27,2.17.83,4.25,1.39,6.37.1.39.2.78.3,1.19.55,2.1,1.19,4.04,2.09,6.02q.18.67.37,1.34c.4,1.33.9,2.44,1.55,3.66.34.67.64,1.36.92,2.06.84,1.99,1.91,3.87,2.95,5.76.2.37.4.73.6,1.11,1.18,2.16,2.41,4.29,3.7,6.4q.47.78.86,1.56h.78c.09.21.18.42.28.63.65,1.2,1.45,2.25,2.29,3.33.17.22.35.45.53.68,1.35,1.72,2.77,3.37,4.25,4.98.9.98,1.77,1.97,2.65,2.97,1.52,1.68,3.11,3.17,4.86,4.62.32.27.64.55.97.83,1.97,1.65,3.98,3.2,6.09,4.67q.33.23.66.47,1.12.82,2.44,1.07v.78q.7.54,1.61,1.06.51.31,1.03.62c.36.21.72.42,1.09.64.35.21.7.42,1.06.64q3.33,2.16,7.1,2.78.5-.13,1-.27c.13-.39.26-.77.39-1.17.29-.04.57-.09.87-.13,1.14-.27,1.89-.65,2.88-1.27.34-.21.67-.42,1.02-.63.35-.22.71-.45,1.07-.68.37-.23.73-.46,1.11-.7,9.05-5.73,17.44-12.62,23.93-21.22.17-.22.34-.44.51-.67q4.46-5.15,6.92-11.06c.39-.13.77-.26,1.17-.39.29-.74.58-1.48.83-2.24.34-.89.75-1.64,1.24-2.46.96-1.66,1.65-3.39,2.32-5.18.1-.27.2-.54.31-.81.51-1.38.92-2.72,1.16-4.17h.78c1.1-3.43,2.16-6.88,3.18-10.33q.14-.47.29-.94c1.61-5.53,2.24-11.28,2.84-16.99.07-.61.13-1.22.2-1.82.06-.6.13-1.19.19-1.79.03-.26.06-.53.09-.8.09-.84.17-1.67.25-2.51q.05-.54.11-1.09c.25-2.7.34-5.37.32-8.07,0-.4,0-.8,0-1.22,0-1.26,0-2.52-.01-3.79,0-.86,0-1.73,0-2.59,0-2.1-.01-4.2-.02-6.3-1.83-.53-3.62-.98-5.5-1.32-.27-.05-.54-.1-.81-.15-1.52-.28-3.05-.54-4.57-.78-5.07-.82-9.91-2.12-14.81-3.61-.25-.08-.51-.15-.77-.23-.7-.21-1.39-.43-2.09-.64q-1.21-.36-2.72-.3v-.78q-.44-.13-.88-.26c-1.34-.4-2.67-.8-4-1.2-.46-.14-.92-.27-1.39-.41-1.97-.6-3.87-1.18-5.71-2.13q-1.24-.77-2.48-.68v-.78c-.46-.1-.92-.21-1.39-.32-1.14-.28-2.18-.62-3.25-1.1q-1.12-.59-2-.54v-.78c-1.02-.78-1.78-1.15-3.05-1.34-1.33.18-2.29.63-3.46,1.26Z"/>
  <path class="cls-22" d="M148.69,116.44c4.5-.04,9-.06,13.51-.08,2.09,0,4.18-.02,6.27-.04,2.02-.02,4.03-.03,6.05-.03.77,0,1.54,0,2.31-.02,1.08-.01,2.16-.01,3.23-.01.32,0,.64-.01.96-.02,1.5.01,2.3.11,3.63.87.9,1.02,1.02,1.41,1,2.75,0,.37,0,.74,0,1.11-.01.39-.02.79-.03,1.19,0,.41,0,.81,0,1.23-.01,1.29-.04,2.59-.06,3.88,0,.88-.02,1.76-.03,2.63-.02,2.15-.05,4.3-.1,6.45h-.78q-.15.36-.29.73c-.59,1.01-.98,1.19-2.05,1.61q-.92.1-1.95.09c-.39,0-.79,0-1.19,0-.43,0-.86,0-1.3,0-.45,0-.91,0-1.38,0-1.5,0-3,0-4.5-.01-1.04,0-2.08,0-3.12,0-2.46,0-4.92,0-7.38-.02-2.8,0-5.6-.01-8.4-.02-5.76,0-11.52-.02-17.28-.04.56-1.78,1.17-2.98,2.35-4.45,3.93-5.09,7.28-10.73,9.77-16.66h.78v-1.17Z"/>
  <path class="cls-31" d="M15.41,116.04l.78.78c.13-.13.26-.26.39-.39,1.06-.05,2.12-.07,3.18-.07.33,0,.67,0,1.01,0,1.11,0,2.22-.01,3.33-.02.38,0,.76,0,1.14,0,2,0,4-.01,6-.02,2.07,0,4.14-.02,6.21-.03,1.59-.01,3.17-.01,4.76-.01.76,0,1.53,0,2.29-.01,1.07,0,2.13,0,3.2,0,.32,0,.63-.01.96-.02q2.13.02,3.1.91c.49,1.05.66,2.04.79,3.19h.78c.22.43.44.86.67,1.3,2.55,4.9,5.33,9.41,8.71,13.79q.29.38.59.78t.54.69q.43.64.82,1.81c-6.13.05-12.27.1-18.4.12-2.85.01-5.7.03-8.54.06-2.48.02-4.96.04-7.45.04-1.31,0-2.63.01-3.94.03-1.47.02-2.93.02-4.4.02-.44,0-.87.02-1.32.03q-2.84-.02-3.95-.76c-1.13-1.23-1.49-2.37-1.47-4.01,0-.41,0-.81,0-1.23.01-.43.02-.86.03-1.31,0-.45,0-.9,0-1.36.01-1.43.04-2.85.06-4.28,0-.97.02-1.94.03-2.91.02-2.37.05-4.74.1-7.11Z"/>
  <path class="cls-181" d="M156.9,89.86h26.19v1.17c.25.12.5.24.76.37q.81.42,1.2.81c.05.54.07,1.08.08,1.62,0,.34.01.69.02,1.04.02,1.58.03,3.17.04,4.75,0,.83.02,1.67.03,2.5.02,1.2.03,2.4.04,3.61,0,.37.02.74.03,1.13,0,1.75-.05,2.95-1.17,4.34-1.58,1.47-2.69,1.39-4.75,1.38q-.46,0-.92,0c-1.01,0-2.02,0-3.03,0-.7,0-1.4,0-2.1,0-1.84,0-3.69,0-5.53,0-1.88,0-3.76,0-5.64,0-3.69,0-7.38-.01-11.08-.02.21-1.62.43-2.85,1.17-4.3.21-.77.39-1.53.56-2.31q.22-.82.6-1.76c.42-1.06.7-2.1.96-3.21.46-1.88.95-3.74,1.49-5.6.44-1.81.74-3.66,1.07-5.49Z"/>
  <path class="cls-183" d="M16.97,89.47l.39.78c.26-.13.52-.26.78-.39.79-.04,1.59-.05,2.39-.04.5,0,1,0,1.52,0,.55,0,1.1,0,1.65,0,.56,0,1.12,0,1.68,0,1.47,0,2.95,0,4.42,0,1.5,0,3.01,0,4.51,0,2.95,0,5.9.01,8.85.02q.09.45.19.9c.29,1.37.59,2.74.88,4.11.1.47.2.93.3,1.42.56,2.59,1.23,5.04,2.2,7.51.33.91.54,1.78.73,2.73.32,1.62.92,3.02,1.64,4.51q.31.72.31,1.5c-4.04.05-8.07.08-12.11.1-1.87.01-3.75.02-5.62.05-1.81.02-3.62.03-5.43.04-.69,0-1.38.01-2.07.02-.97.01-1.93.02-2.9.02-.28,0-.57.01-.86.02-2.22-.02-3.12-.68-4.62-2.2-.46-.91-.45-1.47-.46-2.48,0-.35-.01-.7-.02-1.07,0-.38,0-.76,0-1.16,0-.39,0-.78,0-1.19,0-.83,0-1.66-.01-2.5,0-1.27-.02-2.54-.04-3.81,0-.81,0-1.62,0-2.42,0-.38-.01-.76-.02-1.15,0-2.29.26-3.56,1.75-5.33Z"/>
  <path class="cls-41" d="M183.87,63.28c.99.99.88,1.34.9,2.71,0,.4,0,.8.02,1.21,0,.43,0,.87,0,1.32q0,.67,0,1.35c0,.94,0,1.89,0,2.83,0,1.44.02,2.89.03,4.33,0,.92,0,1.83,0,2.75,0,.43.01.86.02,1.31q-.02,2.98-.92,4.57-.84.69-2.02.69v.78c-8-.13-15.99-.26-24.23-.39q.54-5.42.7-7.06c.5-5.07.86-10.14,1.25-15.22h24.23v-1.17Z"/>
  <path class="cls-186" d="M107.27,52.87c3.31,1.8,7.48,4.42,8.98,8.06v1.17h.78q.19,1.35.39,2.74h.78c.64,1.95.88,3.58.86,5.65,0,.27,0,.53,0,.8,0,.84-.01,1.67-.02,2.51,0,.57,0,1.14-.01,1.71,0,1.39-.02,2.78-.04,4.17-2.45-.13-4.9-.26-7.43-.39,0-.74-.01-1.49-.02-2.26-.02-.99-.04-1.98-.06-2.97,0-.49,0-.98,0-1.48-.09-3.61-.69-6.3-3.07-9.08-.25-.2-.5-.4-.76-.6-.27-.21-.53-.43-.81-.65-.87-.63-1.79-1.17-2.71-1.72v-.78h-7.82v.78c-.38.11-.76.23-1.15.34-2.19.94-3.77,2.82-5.11,4.74-.63,1.86-.89,3.53-.94,5.48-.02.5-.03,1.01-.05,1.52-.01.52-.02,1.05-.04,1.57-.01.53-.03,1.07-.05,1.6-.04,1.3-.07,2.6-.1,3.9h-7.43q-.37-16.32,3.56-20.72c.24-.26.49-.51.74-.77.22-.27.45-.54.68-.81,2.2-2.47,4.94-3.73,7.92-5.05.31-.15.62-.3.94-.46,3.77-1.2,8.44-.58,11.98,1Z"/>
  <path class="cls-155" d="M100,59.32c.44,0,.89,0,1.34,0,1.86.08,2.69.25,3.96,1.62.49.36.99.71,1.49,1.05,2.34,1.73,3.69,3.69,4.76,6.38v10.94h-22.67q0-13.07,2.93-16.17c.3-.33.6-.65.92-.99,1.27-1.24,1.76-1.6,3.58-1.6v-.78c1.31-.44,2.31-.44,3.69-.44Z"/>
  <path class="cls-14" d="M102.18,89.47v.78q.31.04.64.07c1.34.46,2.33,1.24,3.27,2.27.84,1.72,1.18,3.58.78,5.47-.64,1.29-1.38,2.45-2.35,3.52-.39.13-.77.26-1.17.39q.09.37.17.74c.26,1.12.52,2.24.78,3.36q.13.58.27,1.16c.09.38.17.76.26,1.15.08.34.16.69.24,1.04.28,1.41.44,2.84.61,4.27h-10.94q.44-4.79,1-6.77c.45-1.57.73-2.93.56-4.57q-.56-.9-1.34-1.64c-1.7-1.74-1.97-3.15-1.95-5.54.28-1.79,1.29-2.88,2.51-4.16.27-.32.55-.64.83-.98,1.84-.96,3.78-.7,5.81-.59Z"/>
  <path class="cls-111" d="M100,59.32c.44,0,.89,0,1.34,0,1.01.04,1.83.15,2.79.44v.78h-4.3v17.59h-9.77c-.13-2.58-.26-5.16-.39-7.82-.13,2.84-.26,5.68-.39,8.6h21.89q-.18-6.27-.78-12.51c2.93,4.39,1.17,3.99,1.17,12.9h-22.67q0-13.07,2.93-16.17c.3-.33.6-.65.92-.99,1.27-1.24,1.76-1.6,3.58-1.6v-.78c1.31-.44,2.31-.44,3.69-.44Z"/>
  <path class="cls-72" d="M148.69,116.44h34.79v.39h-34.4v.78h4.3c-1.47,5.9-4.85,11.34-8.19,16.36-.84,1.29-1.6,2.63-2.36,3.97q19.54.19,39.48.39v.39h-46.51c.68-2.03,1.08-2.86,2.35-4.45,3.93-5.09,7.28-10.73,9.77-16.66h.78v-1.17Z"/>
  <path class="cls-133" d="M1.73,22.63h.39c-.06.7-.11,1.4-.17,2.1-.03.39-.06.78-.1,1.18q-.12,1.02-.51,1.8c-.04.8-.05,1.59-.05,2.39,0,.51,0,1.03,0,1.56,0,.58,0,1.15,0,1.73,0,.61,0,1.21,0,1.82,0,1.67,0,3.35,0,5.02,0,1.8,0,3.61,0,5.41,0,3.13,0,6.25,0,9.38,0,4.52,0,9.04,0,13.56,0,7.33,0,14.66,0,21.99,0,7.12,0,14.25,0,21.37,0,.44,0,.88,0,1.33,0,2.2,0,4.4,0,6.6,0,18.27.01,36.54.02,54.81-1.17-2.04-1.22-4.14-1.23-6.45,0-.51,0-1.01,0-1.53,0-.56,0-1.12,0-1.68,0-.6,0-1.19,0-1.79,0-1.64,0-3.27,0-4.91,0-1.77,0-3.53,0-5.3,0-4.26-.01-8.53-.02-12.79,0-2.01,0-4.02,0-6.02,0-6.67-.01-13.35-.02-20.02,0-1.73,0-3.46,0-5.19,0-.43,0-.86,0-1.3,0-6.97-.01-13.95-.03-20.92C0,79.61,0,72.45,0,65.29c0-4.02,0-8.04-.01-12.06,0-3.42-.01-6.85,0-10.27,0-1.75,0-3.49,0-5.24,0-1.6,0-3.2,0-4.8,0-.58,0-1.16,0-1.73-.02-3.19.1-5.78,1.76-8.57Z"/>
  <path class="cls-92" d="M169.47,113.22c1.54,0,3.09-.02,4.63-.03.99,0,1.98,0,2.96,0q.69,0,1.39-.01t1.29,0c.37,0,.74,0,1.13,0,1.61.22,2.64.96,3.77,2.1v1.56h-1.17v-.78h-30.49c.52-.26,1.03-.52,1.56-.78.13-.39.26-.77.39-1.17h-4.3v-.39c6.28-.35,12.54-.48,18.83-.48Z"/>
  <path class="cls-10" d="M20.29,113.96q.45,0,.9,0c.98,0,1.97,0,2.95.02.68,0,1.36,0,2.05,0,1.79,0,3.59.02,5.38.03,1.83.01,3.66.02,5.49.02,3.59.01,7.19.03,10.78.06v.39c-.77.13-1.55.26-2.35.39v1.17q-.53,0-1.08,0c-3.34.03-6.68.06-10.02.1-1.72.02-3.44.04-5.15.05-1.66.01-3.31.03-4.97.05-.63,0-1.27.01-1.9.02-.89,0-1.77.02-2.66.03q-.76,0-1.53.02-1.29.02-2.4.89c.13-.99.26-1.76.81-2.6,1.15-.81,2.33-.68,3.68-.66Z"/>
  <path class="cls-154" d="M15.01,64.84h.39c0,.23,0,.46,0,.7.03,2.41.07,4.82.11,7.23.01.9.03,1.8.04,2.7.02,1.29.04,2.58.06,3.88,0,.4,0,.8.01,1.22,0,.38.02.75.02,1.14,0,.33.01.66.02,1,.12,1,.35,1.62.89,2.46,1.37.91,1.94.89,3.57.91q.74.01,1.49.02c.54,0,1.08,0,1.61.01.55,0,1.1.01,1.65.02,1.45.02,2.9.04,4.34.05,1.48.02,2.96.04,4.43.06,2.9.04,5.8.07,8.7.1-.13.52-.26,1.03-.39,1.56-.29,0-.57,0-.87,0-2.7.02-5.39.05-8.09.09-1.39.02-2.77.03-4.16.04-1.59.01-3.19.03-4.78.06q-.75,0-1.51,0t-1.4.02-1.23.01c-1.14.18-1.49.43-2.19,1.33-.39-.13-.77-.26-1.17-.39.52-.52,1.03-1.03,1.56-1.56-.22-.18-.44-.37-.67-.56-.29-.24-.57-.49-.87-.74-.29-.24-.57-.48-.87-.73-.88-.87-1.1-1.51-1.15-2.74,0-.33.02-.66.02-1,0-.38.02-.75.02-1.14.01-.4.02-.81.03-1.23q.01-.62.03-1.26c.03-1.33.06-2.65.1-3.98.02-.9.04-1.8.06-2.7.05-2.2.1-4.41.16-6.61Z"/>
  <path class="cls-121" d="M22.44,123.86c1.03-.02,2.05-.04,3.08-.05.29,0,.58-.01.88-.02.76,0,1.53.03,2.29.07q.78.78.87,2.13c0,.54,0,1.07-.02,1.61,0,.27,0,.55,0,.83q-.02,2.03-.46,2.47c-1.05.04-2.08.05-3.13.05q-.44,0-.89,0-2.19,0-2.63-.44c-.03-1.12-.04-2.23-.02-3.35,0-.32,0-.63,0-.96,0-.78.01-1.56.02-2.34Z"/>
  <path class="cls-113" d="M160.42,47.64h.78v12.9c1.47-.02,2.94-.04,4.45-.05,1.42-.01,2.85-.02,4.27-.03.99,0,1.98-.02,2.97-.03,1.42-.02,2.84-.03,4.27-.03.44,0,.88-.02,1.34-.02,2.36,0,3.99.02,5.77,1.74,1.75,2.28,1.77,4.21,1.72,7.02,0,.4,0,.81,0,1.22,0,1.28-.03,2.56-.05,3.85,0,.87-.01,1.75-.02,2.62-.02,2.13-.04,4.26-.08,6.4q-.39.19-.78.39c0-.23,0-.47,0-.71,0-2.45-.03-4.9-.06-7.34,0-.91-.01-1.83-.02-2.74,0-1.31-.02-2.63-.04-3.94,0-.41,0-.81,0-1.23q-.05-2.48-1.2-4.61c-1.43-1.27-2.43-1.36-4.28-1.39-.42,0-.84-.02-1.28-.02q-.68,0-1.38-.02c-.47,0-.93-.02-1.41-.02-1.49-.03-2.99-.05-4.48-.07-1.01-.02-2.02-.03-3.03-.05-2.48-.04-4.96-.08-7.45-.12v-13.68Z"/>
  <path class="cls-24" d="M22.44,97.67h6.64v6.64q-1.54.01-3.1.02c-.32,0-.65,0-.98.01-.72,0-1.45-.02-2.17-.04q-.39-.39-.43-1.8c0-.58,0-1.16.01-1.75,0-1.02.02-2.05.02-3.1Z"/>
  <path class="cls-118" d="M22.83,71.1h6.64c0,1.02.02,2.05.02,3.1,0,.32,0,.65.01.98,0,.72-.02,1.45-.04,2.17q-.39.39-1.8.43c-.58,0-1.16,0-1.75-.01-1.02,0-2.05-.02-3.1-.02v-6.64Z"/>
  <path class="cls-168" d="M39.64,46.08h.78c-.13,5.16-.26,10.32-.39,15.63-7.74.13-15.48.26-23.45.39q.78-1.17,1.95-1.56c.67-.03,1.33-.05,2-.04.41,0,.81,0,1.23,0,.44,0,.88,0,1.33,0,.45,0,.9,0,1.36,0,1.44,0,2.88,0,4.31.01.97,0,1.95,0,2.92,0,2.39,0,4.78.01,7.17.02q0-.59-.01-1.2c-.01-1.47-.02-2.94-.03-4.41,0-.64,0-1.27-.02-1.91,0-.91-.01-1.83-.02-2.74,0-.28,0-.57-.01-.86,0-1.46.04-2.08.87-3.33Z"/>
  <path class="cls-151" d="M16.19,136.37c.22.13.45.25.68.38.94.42,1.55.5,2.57.51.33,0,.67,0,1.01.01.36,0,.73,0,1.1,0q.58,0,1.17.01c1.27.01,2.55.02,3.82.03.88,0,1.77.01,2.65.02,2.32.02,4.65.04,6.97.05,2.37.02,4.74.04,7.11.06,4.65.04,9.3.07,13.96.1q.19.39.39.78c-5.17.03-10.34.05-15.51.06-2.4,0-4.8.01-7.2.03-2.32.01-4.63.02-6.95.02-.88,0-1.77,0-2.65.01-1.24,0-2.47,0-3.71,0-.37,0-.73,0-1.11.01q-2.47-.01-3.75-.69-.54-.63-.54-1.41Z"/>
  <path class="cls-15" d="M127.19,82.43h.78c1.37,3.24,1.34,6.35,1.31,9.81,0,.61,0,1.22,0,1.83,0,1.27,0,2.54-.01,3.81,0,1.62,0,3.24,0,4.86,0,1.26,0,2.51,0,3.77,0,.6,0,1.19,0,1.79,0,3.07-.07,5.95-.9,8.92h-.39c0-.41,0-.83-.01-1.25-.04-3.89-.08-7.78-.12-11.66-.02-2-.04-4-.06-6-.02-1.93-.04-3.86-.06-5.79,0-.74-.02-1.47-.02-2.21,0-1.03-.02-2.06-.03-3.09,0-.31,0-.61,0-.92-.02-1.35-.1-2.56-.46-3.87Z"/>
  <path class="cls-188" d="M171.75,76.18c.97-.01,1.94-.02,2.91-.02.28,0,.55,0,.84,0,.71,0,1.41.01,2.12.03q.39.39.44,1.27c0,.35,0,.71,0,1.07q0,.53,0,1.07-.05.88-.44,1.27c-.91.04-1.82.05-2.74.05-.5,0-1,0-1.51,0q-1.22-.05-1.61-.44c-.03-.72-.03-1.45-.02-2.17,0-.4,0-.79.01-1.2,0-.31,0-.61.01-.93Z"/>
  <path class="cls-45" d="M17.75,62.11q-.73,1.51-1.17,1.95c-.04.63-.06,1.26-.07,1.89,0,.4-.01.81-.02,1.22,0,.44,0,.88,0,1.33,0,.45,0,.9,0,1.36,0,.95,0,1.9-.01,2.85,0,1.46-.02,2.91-.04,4.37,0,.92,0,1.84,0,2.76,0,.44-.01.87-.02,1.33,0,.41,0,.81,0,1.23q0,.54,0,1.08.12.95.84,1.61c1.16.6,1.98.63,3.28.64.48,0,.95.02,1.45.02.51,0,1.03,0,1.56,0,.53,0,1.06.01,1.6.02,1.4.02,2.8.03,4.19.04,1.43.01,2.86.03,4.28.05,2.8.03,5.6.06,8.4.08v.39c-3.13.04-6.25.06-9.38.08-1.45,0-2.9.02-4.35.04-1.4.02-2.8.03-4.2.03-.53,0-1.07,0-1.6.02-.75.01-1.5.01-2.25.01q-.64,0-1.29.01c-1.44-.23-2.08-.73-3.11-1.75-.38-1.14-.45-1.89-.46-3.07,0-.38-.01-.77-.02-1.17,0-.42,0-.83,0-1.26,0-.43,0-.85,0-1.3,0-.9,0-1.81-.01-2.71,0-1.38-.02-2.77-.04-4.15,0-.88,0-1.76,0-2.64,0-.41-.01-.83-.02-1.25q0-2.87.93-4.42.82-.7,1.6-.7Z"/>
  <path class="cls-94" d="M172.14,102.36h5.86q.04,3.32,0,4.3-.39.39-1.63.43-.76,0-1.53-.01c-.5,0-1.01,0-1.53-.01-.39,0-.78,0-1.18-.01v-4.69Z"/>
  <path class="cls-54" d="M88.89,79.69c-.13.39-.26.77-.39,1.17-.84.11-1.68.23-2.52.34-.26.04-.52.07-.79.11-1.45.2-2.9.37-4.36.49-.29.03-.59.05-.89.08-.57.05-1.14.1-1.71.13-1.48.14-2.21.39-3.38,1.34-.87,1.1-1.25,2.02-1.6,3.37-.44-1.3-.35-2.06.1-3.35.1-.3.2-.6.3-.91.43-.93.72-1.4,1.56-2,4.42-1.13,9.16-.86,13.68-.78Z"/>
  <path class="cls-90" d="M172.92,128.16h6.25q.04,3.02,0,3.91-.39.39-1.71.43c-.55,0-1.09,0-1.64-.01q-.42,0-.84,0c-.69,0-1.38-.01-2.07-.02v-4.3Z"/>
  <path class="cls-137" d="M18.53,90.25h24.23c.84,2.52,1.32,3.98,1.44,6.47.03.48.05.95.08,1.44q.02.53.04,1.07c-1.02-1.19-1.38-2.12-1.64-3.66q-.09-.54-.19-1.08-.13-1.11-.13-3.46h-24.23l.39-.78Z"/>
  <path class="cls-132" d="M89.67,69.92h.39v8.21h19.93v.78h-20.72q0-8.6.39-8.99Z"/>
  <path class="cls-187" d="M88.89,79.3c3.52,0,7.04-.02,10.56-.02,1.63,0,3.27,0,4.9,0,1.58,0,3.16,0,4.74,0,.6,0,1.2,0,1.8,0,.84,0,1.69,0,2.53,0,.48,0,.96,0,1.45,0,1.39.05,2.73.22,4.1.44v.39c-5.61.37-11.19.44-16.81.39v-.39c-4.39-.13-8.77-.26-13.29-.39v-.39Z"/>
  <path class="cls-109" d="M126.41,83.21l.78.39c.03,4.37.05,8.74.06,13.11,0,2.03.01,4.06.03,6.09.01,1.96.02,3.91.02,5.87,0,.75,0,1.5.01,2.24,0,1.04,0,2.09,0,3.13,0,.31,0,.62.01.94q0,.86-.15,2.23-.58.39-1.17.78c.03-.22.06-.43.08-.65.25-2.05.36-4.06.35-6.13,0-.31,0-.61,0-.93,0-1,0-1.99,0-2.99,0-.7,0-1.39,0-2.09,0-1.82,0-3.64,0-5.46,0-1.86,0-3.73,0-5.59,0-3.65-.01-7.3-.02-10.94Z"/>
  <path class="cls-1" d="M23.61,72.27h4.69v4.3h-4.69v-4.3Z"/>
  <path class="cls-23" d="M81.85,62.5c.02.53.04,1.06.05,1.59,0,.29.02.59.03.89q-.08,1.04-.45,2.17c-.71,2.33-.59,4.83-.65,7.24-.02.51-.03,1.02-.05,1.54-.04,1.25-.07,2.5-.1,3.76h-.78c-.04-2.14-.07-4.27-.09-6.41,0-.73-.02-1.45-.03-2.18-.02-1.05-.03-2.09-.03-3.13,0-.32-.02-.65-.02-.98,0-1.6.06-2.36.94-3.74q.8-.76,1.19-.76Z"/>
  <path class="cls-28" d="M89.67,53.12c.39.13.77.26,1.17.39v.78q-.59.49-1.39,1.05c-2.76,2.01-4.75,4.18-6.42,7.16l-.78-.39c-.06-2.64,1.21-3.91,2.99-5.77q2.56-2.44,4.44-2.44v-.78Z"/>
  <path class="cls-67" d="M22.05,123.08c1.15-.03,2.3-.05,3.44-.07.33,0,.65-.02.99-.03q.47,0,.95-.01t.87-.02c1.01.17,1.35.48,1.95,1.31.08,1.1.11,2.11.07,3.2q0,.44-.02.89c-.01.72-.03,1.44-.06,2.17h-.39v-5.86c-1.47-.49-2.84-.43-4.37-.42-1.01,0-2.02.02-3.05.02-.13,2.06-.26,4.13-.39,6.25h-.78v-6.64h.78v-.78Z"/>
  <path class="cls-53" d="M159.63,73.05h.39c.05,4.09-.02,8.09-.78,12.12,1.42.26,2.84.52,4.3.78v.39h-5.47c-.1-2.95.28-5.71.78-8.62.07-.45.15-.9.23-1.36.18-1.1.37-2.2.56-3.3Z"/>
  <path class="cls-120" d="M109.6,66.41h.78c.95,2.58.87,5.06.83,7.79,0,.45,0,.91-.01,1.37,0,1.11-.02,2.23-.04,3.34h-1.17c-.13-4.13-.26-8.26-.39-12.51Z"/>
  <path class="cls-129" d="M183.87,63.28l.78.78q-.15.83-.39,1.56-.19-.19-.39-.39c-.74-.05-1.49-.07-2.23-.08-.48,0-.95-.02-1.45-.02-.52,0-1.05-.01-1.57-.02-.53,0-1.07-.02-1.6-.02-1.41-.02-2.82-.04-4.22-.06-1.44-.02-2.87-.04-4.31-.06-2.82-.04-5.64-.08-8.46-.12v5.08h-.39v-5.47h24.23v-1.17Z"/>
  <path class="cls-159" d="M97.12,50.67c.37,0,.74,0,1.12,0q.57,0,1.16,0c.38,0,.76,0,1.15,0,2.13,0,3.92.18,5.94.89q-1.36.83-2.3.61c-.27-.07-.55-.15-.83-.22-1.16-.08-2.33-.07-3.49-.07-.31,0-.62,0-.95-.01-1.72,0-2.97.13-4.55.87q-1.29.05-2.35,0c1.4-1.62,3.01-2.05,5.1-2.06Z"/>
  <path class="cls-13" d="M18.92,87.9l.78.39c-.26.26-.52.52-.78.78q11.8.19,23.84.39v.39c-8.38.13-16.77.26-25.41.39q.78-1.56,1.56-2.35Z"/>
  <path class="cls-180" d="M56.45,47.25c-.3.11-.6.23-.9.34q-1.11.43-2.22,1.22c-3.03.89-5.88.79-8.99.39v-.39q.33-.05.67-.1c1.02-.15,2.04-.29,3.06-.44.35-.05.7-.1,1.06-.15,1.56-.23,3.07-.47,4.58-.93,1.15-.34,1.64-.39,2.74.05Z"/>
  <path class="cls-37" d="M102.18,89.47v.78q.31.04.64.07c1.36.47,2.2,1.32,3.27,2.27l-.39.78c-.39-.13-.77-.26-1.17-.39v-.78h-.78v-.78c-.28-.02-.57-.05-.86-.07q-.57-.05-1.15-.1t-1.19-.1q-1.11-.12-2.48-.41-1-.21-1.71.46c-.15.2-.29.4-.44.61l-.78-.39c2.1-2.33,4.01-2.17,7.04-1.95Z"/>
  <path class="cls-33" d="M111.95,125.03c-.25.18-.5.35-.76.54q-.84.57-1.2,1.42c-2.58,1.13-5,1.78-7.82,1.56.55-1.1,1.15-1.12,2.3-1.51,1.96-.68,3.89-1.4,5.83-2.15q.87-.25,1.65.14Z"/>
  <path class="cls-98" d="M118.98,68.75h.39v10.55c1.42-.13,2.84-.26,4.3-.39q1.19.47,2.03,1.15c.29.22.58.44.87.67.2.17.41.35.62.53-.26.39-.52.77-.78,1.17-.2-.24-.39-.49-.59-.74-1.24-1.06-2.44-1.26-4-1.51-.94-.16-1.87-.32-2.83-.49v-10.94Z"/>
  <path class="cls-65" d="M39.25,90.25h3.52c1.18,2.99,1.43,5.79,1.56,8.99-1.9-2.21-2.11-5.37-1.95-8.21h-3.13v-.78Z"/>
  <path class="cls-134" d="M77.55,80.48h3.52v.78l1.56.39c-.46.03-.91.07-1.38.1-.61.06-1.21.11-1.82.17-.3.02-.6.04-.91.06-1.63.16-2.38.33-3.69,1.38-.85,1.1-1.23,2.03-1.58,3.37-.43-1.07-.37-1.79-.27-2.96q.66-1.34,1.58-1.78c.99-.29,1.97-.54,2.98-.74v-.78Z"/>
  <path class="cls-161" d="M72.47,139.89c1.39.55,1.7,1.05,2.35,2.35.24.12.47.23.72.36.94.47,1.51,1.01,2.24,1.77.23.23.45.47.69.71q.33.34.66.69c.21.2.43.4.65.6q.53.57.92,1.75c-1.21-.54-2-1.14-2.91-2.1-.79-.81-1.53-1.52-2.42-2.22-1.15-.94-1.98-1.92-2.88-3.1v-.78Z"/>
  <path class="cls-61" d="M114.29,32.79c1.63.24,3.17.59,4.74,1.1.4.12.79.25,1.2.37,1.17.51,1.82,1.09,2.66,2.04-1.08.42-1.54.4-2.66.04-.4-.18-.79-.35-1.2-.53-.41-.18-.82-.36-1.25-.55-1.18-.54-2.34-1.09-3.49-1.7v-.78Z"/>
  <path class="cls-112" d="M6.02,186.01c.65.65,1.3,1.3,1.95,1.95q.42.39.86.78.71.78,1.1,1.81c.48,1.14.88,1.19,1.95,1.71q.29.83.39,1.56h-.78v-.78q-.36-.04-.73-.07c-.27-.1-.55-.21-.83-.32-.27-.65-.54-1.3-.78-1.95-.39-.13-.77-.26-1.17-.39v-.78c-.39-.13-.77-.26-1.17-.39v-1.17h-.78q-.22-.76-.39-1.56l.39-.39Z"/>
  <path class="cls-6" d="M43.94,95.72c.91,1.37,1.2,2.7,1.56,4.28.38,1.66.77,3.19,1.56,4.71q-.15.88-.39,1.56l-.39-.78c-.26.13-.52.26-.78.39-.05-.24-.09-.47-.14-.71-.07-.31-.13-.62-.2-.95-.06-.31-.13-.62-.19-.93q-.21-.92-.66-1.66c-.52-1.17-.44-2.19-.42-3.47q.01-.69.02-1.39c0-.35.02-.7.03-1.06Z"/>
  <path class="cls-101" d="M110.78,159.82v1.17c-2.06,1.62-4.53,2.78-7.04,3.52q-.87-.17-1.56-.39c1.29-.72,2.57-1.43,3.86-2.15.37-.21.73-.41,1.11-.62.35-.19.7-.39,1.06-.59.32-.18.65-.36.98-.55q.81-.39,1.59-.39Z"/>
  <path class="cls-179" d="M15.41,62.89c.13.39.26.77.39,1.17-.13.26-.26.52-.39.78-.05.6-.07,1.21-.08,1.81,0,.38-.02.75-.02,1.14,0,.41-.01.81-.02,1.23,0,.42-.02.83-.02,1.26-.03,1.33-.05,2.66-.07,3.99-.02.9-.03,1.8-.05,2.7-.04,2.21-.08,4.42-.12,6.63h-.39c-.02-2.82-.03-5.65-.04-8.47,0-.96,0-1.92-.02-2.88,0-1.38-.01-2.76-.02-4.14,0-.43,0-.86-.01-1.31,0-.4,0-.8,0-1.21,0-.35,0-.7,0-1.07q.09-.85.88-1.63Z"/>
  <path class="cls-174" d="M11.89,5.82l.78.39c-.39.13-.77.26-1.17.39-.13.39-.26.77-.39,1.17h-.78c-.09.34-.18.68-.27,1.03-.62,1.59-1.28,2.45-2.47,3.66h-1.17l-.39,1.17h-.78l-.39.78v-1.17l.78-.39.39-1.17h.78l.39-1.17h.78l.39-1.17h.78c.09-.29.18-.58.27-.88.61-1.27,1.33-1.83,2.47-2.64Z"/>
  <path class="cls-177" d="M15.41,90.25h.78c-.13.31-.25.61-.38.93-.51,1.8-.54,3.46-.56,5.32,0,.37-.02.74-.02,1.12-.02,1.17-.04,2.35-.06,3.52-.01.8-.03,1.6-.05,2.4-.04,1.95-.07,3.91-.1,5.86h-.39c-.02-2.54-.03-5.08-.04-7.62,0-.86,0-1.73-.02-2.59,0-1.24-.01-2.48-.02-3.72,0-.39,0-.77-.01-1.17,0-.36,0-.72,0-1.09,0-.32,0-.63,0-.96q.09-.82.88-2Z"/>
  <path class="cls-105" d="M29.74,97.26c.17.27.34.53.51.81-.13.39-.26.77-.39,1.17-.09.8-.16,1.61-.22,2.42-.03.42-.07.85-.1,1.29q-.04.49-.07.98h-.39v-6.25h-6.25c2.14-1.07,4.84-1.91,6.91-.42Z"/>
  <path class="cls-64" d="M199.5,170.77h.39c-.06.87-.11,1.74-.17,2.61-.03.49-.06.97-.1,1.47-.1,1.15-.26,2.22-.51,3.34h-.78c-.13,1.16-.26,2.32-.39,3.52h-.78c-.13-.77-.26-1.55-.39-2.35.39-.13.77-.26,1.17-.39l-.39-1.56c.39-.13.77-.26,1.17-.39.02-.35.05-.71.07-1.07.03-.46.07-.92.1-1.4.03-.46.06-.92.1-1.39q.12-1.23.51-2.4Z"/>
  <path class="cls-96" d="M113.9,151.61c-.44,1.32-.63,1.44-1.76,2.14-.28.17-.55.35-.84.52q-.43.26-.88.54c-.29.18-.57.36-.87.55q-2.15,1.33-3.48,1.33v-.78c.38-.21.75-.42,1.14-.64.5-.28,1-.56,1.5-.85.25-.14.5-.28.75-.42,1.05-.59,2.03-1.18,2.99-1.9q.65-.48,1.44-.48Z"/>
  <path class="cls-8" d="M176.44,76.57h1.17v3.52h-5.47v-.78h4.3v-2.74Z"/>
  <path class="cls-71" d="M128.36,138.32c.13.39.26.77.39,1.17-.89.92-1.79,1.83-2.69,2.74q-.38.39-.77.79c-.24.25-.49.49-.74.75-.23.23-.45.46-.68.69q-.59.5-1.37.5c.52-1.15,1.07-1.95,1.97-2.83.23-.22.45-.45.69-.68.24-.23.47-.46.71-.69.24-.24.48-.47.72-.71.59-.58,1.18-1.15,1.77-1.73Z"/>
  <path class="cls-104" d="M39.64,46.08h.78c-.06.21-.12.43-.19.65-.23,1.02-.29,1.98-.33,3.03-.02.4-.03.8-.05,1.21q-.02.62-.05,1.26c-.02.42-.03.84-.05,1.28-.04,1.04-.08,2.08-.12,3.12h-.39c-.35-2.12-.44-4.22-.46-6.38,0-.28-.01-.55-.02-.84,0-1.46.04-2.09.87-3.34Z"/>
  <path class="cls-5" d="M81.46,79.69h7.43c-.13.39-.26.77-.39,1.17-1.29.13-2.58.26-3.91.39-.13-.39-.26-.77-.39-1.17h-2.74v-.39Z"/>
  <path class="cls-140" d="M102.96,128.16q.88.34,1.56.78c-2.23,1.21-3.8,1.78-6.3,1.07-.64-.22-1.28-.44-1.91-.68.13-.26.26-.52.39-.78q.48.06.97.11c.42.04.84.09,1.28.13q.63.07,1.26.14,1.16.1,2.02-.42c.24-.12.48-.23.73-.35Z"/>
  <path class="cls-85" d="M103.74,109.4l.78.39c.26,1.16.52,2.32.78,3.52-3.1-.13-6.19-.26-9.38-.39v-.39h8.21l-.39-3.13Z"/>
  <path class="cls-40" d="M129.93,38.26c2.1.16,3.91.33,5.86,1.17.91.15,1.82.28,2.74.39-.13.26-.26.52-.39.78-2.93-.2-5.46-.95-8.21-1.95v-.39Z"/>
  <path class="cls-46" d="M196.77,181.71c.47,1.42.21,1.81-.39,3.13h-.78c-.13.64-.26,1.29-.39,1.95h-1.95c.3-.65.6-1.29.9-1.93.17-.36.34-.72.51-1.09q.54-.89,1.71-1.28l.39-.78Z"/>
  <path class="cls-143" d="M149.86,114.09h5.08c-.13.52-.26,1.03-.39,1.56-1.55-.13-3.1-.26-4.69-.39v-1.17Z"/>
  <path class="cls-125" d="M21.27,198.52c2.03-.08,3.57.16,5.47.78v.78q-3.68.07-5.47-.39v-1.17Z"/>
  <path class="cls-4" d="M93.58,99.24c.65.65,1.3,1.3,1.95,1.95.22.17.44.34.66.51q.51.66.54,1.71c-.05.39-.1.77-.15,1.17q-.07.58-.14,1.18c-.04.3-.08.59-.13.9h-.39c0-.26-.01-.52-.02-.79q-.1-2.34-1.38-4.25c-.31-.27-.63-.55-.95-.83v-1.56Z"/>
  <path class="cls-156" d="M95.14,51.16q-1.35.58-2.74,1.17c.39.26.77.52,1.17.78q-1.86,1.17-2.74,1.17c-.13-.64-.26-1.29-.39-1.95.49-.27.97-.54,1.47-.81q.41-.22.82-.45c.98-.36,1.44-.26,2.4.09Z"/>
  <path class="cls-157" d="M98.66,50.77q5.33-.14,7.82.78c-1.53,1.09-3.04.71-4.79.44-.29-.04-.58-.08-.88-.12-.72-.1-1.43-.21-2.15-.32v-.78Z"/>
  <path class="cls-56" d="M79.51,153.57c1.52.54,2.72,1.26,4.03,2.2.35.25.69.49,1.05.75.26.19.52.38.79.57-.39.26-.77.52-1.17.78-.78-.57-1.57-1.14-2.35-1.71-.22-.16-.45-.32-.68-.49-.57-.42-1.12-.87-1.67-1.32v-.78Z"/>
  <path class="cls-124" d="M87.32,54.68l.78.39c-.31.24-.63.48-.95.73q-1.02.73-1.39,1.61h-.78c-.1.21-.19.42-.29.64-.6,1.15-1.32,2.2-2.05,3.27l-.39-1.17q.58-.91,1.42-1.93c.27-.33.54-.67.82-1.01.88-.96,1.8-1.74,2.84-2.53Z"/>
  <path class="cls-169" d="M45.89,104.71c.94,1.13,1.44,2.13,1.86,3.54.1.34.21.67.31,1.02q.18.91-.21,2.09c-1.27-2.26-1.83-4.06-1.95-6.64Z"/>
  <path class="cls-17" d="M97.88,60.15c.87-.02,1.74-.04,2.61-.05q.73-.01,1.47-.03c1.31.07,2.17.29,3.34.86-.13.39-.26.77-.39,1.17-.27-.12-.54-.24-.81-.36-1.27-.47-2.47-.67-3.81-.86q-.68-.1-1.38-.2c-.34-.05-.69-.09-1.04-.14v-.39Z"/>
  <path class="cls-185" d="M47.85,108.62c.86,1.28,1.17,2.43,1.56,3.91-1.68-.13-3.35-.26-5.08-.39v-.78h3.91c-.13-.9-.26-1.81-.39-2.74Z"/>
  <path class="cls-58" d="M76.38,42.56c-2.51,1.13-4.68,1.78-7.43,1.95,1.18-.99,2.22-1.46,3.71-1.86.37-.1.73-.21,1.11-.31,1.04-.18,1.62-.13,2.6.21Z"/>
  <path class="cls-36" d="M100.3,26.46c.35.01.7.02,1.07.03q.4.02.81.04v.78c.25.05.5.1.76.15q.4.12.81.24c.13.26.26.52.39.78-.36-.13-.73-.26-1.1-.39-1.95-.57-3.92-.46-5.94-.39.98-1.24,1.65-1.31,3.2-1.25Z"/>
  <path class="cls-47" d="M53.71,121.91c.88,1.13,1.68,2.25,2.35,3.52l-.39.78c-1.73-.58-1.92-1.52-2.74-3.13v-.78l.78-.39Z"/>
  <path class="cls-127" d="M46.67,82.82l.78.39c.48,1.94.43,3.88.39,5.86h-.78c-.44-2.1-.43-4.12-.39-6.25Z"/>
  <path class="cls-11" d="M90.45,37.48q-2.59,1.17-3.91,1.17v.78c-1.03.13-2.06.26-3.13.39.96-1.12,1.92-1.55,3.3-2.05.37-.14.74-.28,1.12-.42,1.07-.27,1.59-.25,2.62.13Z"/>
  <path class="cls-107" d="M95.53,158.26h1.56v.78c1.68.13,3.35.26,5.08.39q-.39.78-1.34,1.15c-2.07.04-3.54-.92-5.3-1.93v-.39Z"/>
  <path class="cls-77" d="M84.98,157.87c1.56.22,2.55.69,3.84,1.59.31.21.62.43.94.65.23.16.46.33.7.5l-.39.78c-.78-.44-1.55-.88-2.32-1.32q-.65-.37-1.31-.74-1.06-.67-1.46-1.46Z"/>
  <path class="cls-9" d="M88.11,153.57c1.94.19,3.17.72,4.69,1.95v1.17c-1.4-.52-2.67-1.11-3.91-1.95v-.78l-.78-.39Z"/>
  <path class="cls-150" d="M63.09,40.22v.78c-2.04.57-3.75.87-5.86.78v-.78c.61-.13,1.22-.26,1.83-.39.34-.07.68-.15,1.03-.22,1.02-.17,1.97-.2,3-.17Z"/>
  <path class="cls-164" d="M18.25,112.39c.34.02.68.05,1.02.07.37.02.73.05,1.11.07.38.03.76.06,1.16.1.39.03.77.05,1.17.08.95.06,1.91.14,2.86.22v.39q-.33.01-.67.02c-1,.04-2,.08-3,.12-.35.01-.7.02-1.05.04-.33.02-.67.03-1.01.05q-.46.02-.93.04-.86.06-1.55.91c-.39-.13-.77-.26-1.17-.39q.91-1.52,2.06-1.71Z"/>
  <path class="cls-59" d="M84.98,57.42h.78c-.25,1.37-.8,2.28-1.59,3.42-.21.31-.43.62-.65.95-.16.24-.33.47-.5.71-.26-.13-.52-.26-.78-.39.79-1.64,1.72-3.17,2.74-4.69Z"/>
  <path class="cls-182" d="M82.24,39.83c-.64.26-1.29.52-1.95.78v.78q-1.73.82-2.86.64c-.22-.08-.44-.16-.66-.24h.78c.13-.39.26-.77.39-1.17q.78-.38,1.73-.68c.31-.1.63-.21.95-.31q.83-.18,1.61.21Z"/>
  <path class="cls-79" d="M191.29,9.34l.78.39v.78c.39.13.77.26,1.17.39v.78h.78c.13.39.26.77.39,1.17l.78.39-.39,1.17v-.78c-.39-.13-.77-.26-1.17-.39v-.78c-.52-.13-1.03-.26-1.56-.39-.26-.9-.52-1.81-.78-2.74Z"/>
  <path class="cls-116" d="M172.92,128.55h5.86v.78c-1.81.13-3.61.26-5.47.39-.13-.39-.26-.77-.39-1.17Z"/>
  <path class="cls-80" d="M57.62,118.78c1.27,1.11,1.77,1.83,1.95,3.52h.78c.13.64.26,1.29.39,1.95h-.78c-.39-.69-.78-1.38-1.17-2.08-.22-.39-.44-.77-.66-1.17q-.51-1.06-.51-2.23Z"/>
  <path class="cls-51" d="M152.99,81.65h.39c.08,2.24.11,4.15-.78,6.25h-.39c-.09-2.26.05-4.11.78-6.25Z"/>
  <path class="cls-39" d="M152.99,79.69c.39.13.77.26,1.17.39-.06.99-.11,1.99-.17,2.98q-.02.42-.05.84c-.1,1.62-.27,3.18-.56,4.77h-.39v-8.99Z"/>
  <path class="cls-172" d="M1.73,22.63h.39c-.03.69-.08,1.38-.12,2.08-.02.39-.05.77-.07,1.17-.22,1.15-.47,1.52-1.37,2.23-.14-2.21.22-3.53,1.17-5.47Z"/>
  <path class="cls-62" d="M50.97,118c.54.5,1.06,1.03,1.56,1.56v.78h.78c.13.64.26,1.29.39,1.95h-1.17c-.26-.57-.52-1.14-.78-1.71-.15-.32-.29-.63-.44-.96q-.34-.85-.34-1.63Z"/>
  <path class="cls-152" d="M44.72,101.19q1.91,2.29,2.35,3.52-.15.88-.39,1.56l-.39-.78q-.39.19-.78.39c-.26-1.55-.52-3.1-.78-4.69Z"/>
  <path class="cls-148" d="M141.26,130.12c0,1.27-.24,1.99-.78,3.13q-.39.19-.78.39-.25.79-.39,1.56c-.52.13-1.03.26-1.56.39.61-1.31,1.36-2.44,2.2-3.62.25-.35.49-.7.75-1.06q.28-.4.57-.8Z"/>
  <path class="cls-20" d="M106.87,126.21l.78.39c-.52.13-1.03.26-1.56.39v1.17c-1.46.3-2.48.42-3.91,0,.76-.34,1.53-.67,2.3-1,.43-.19.85-.37,1.29-.56.36-.13.73-.26,1.1-.39Z"/>
  <path class="cls-117" d="M83.02,122.69c.68.18,1.37.36,2.05.54q.57.15,1.15.3c.96.29,1.78.63,2.66,1.11-1.36.68-2.85.3-4.3,0q-1-.56-1.56-1.17v-.78Z"/>
  <path class="cls-68" d="M118.59,120.74q1.05.12,1.95.39c-.52.13-1.03.26-1.56.39v.78q-2.5,1.2-3.69,1.05c-.2-.09-.4-.18-.61-.27h.78v-1.17q.45.04.9.07,1.07.04,1.64-.68c.19-.19.39-.37.59-.56Z"/>
  <path class="cls-149" d="M17.75,62.11q-.73,1.51-1.17,1.95c-.06.52-.1,1.05-.12,1.58q-.02.47-.05.96c-.02.33-.03.66-.05,1.01-.02.33-.03.67-.05,1.01-.04.83-.08,1.65-.12,2.48h-.39c-.03-1.21-.05-2.41-.07-3.62,0-.34-.02-.68-.03-1.03q-.03-2.53.65-3.8.63-.54,1.41-.54Z"/>
  <path class="cls-91" d="M81.46,62.5h.39c.02.56.04,1.12.05,1.69,0,.31.02.63.03.95q-.08.88-.86,2.06c-.26-.13-.52-.26-.78-.39q.29-2.98,1.17-4.3Z"/>
  <path class="cls-89" d="M183.87,195.78v1.56c-1.36.45-2.49.42-3.91.39,1.05-1.22,2.27-1.95,3.91-1.95Z"/>
  <path class="cls-138" d="M155.72,44.13c1.23-.18,2.05-.19,3.11.49.7.59,1.37,1.16,1.97,1.85v.78c-1.35-.6-2.37-1.43-3.52-2.35-.51-.28-1.03-.55-1.56-.78Z"/>
  <path class="cls-83" d="M53.32,42.56l-.39.78c-1.83.45-3.6.42-5.47.39,1.56-1.56,3.79-1.21,5.86-1.17Z"/>
  <path class="cls-84" d="M197.55,21.07h.78c.62,2.18.86,3.99.78,6.25-1.13-1.93-1.56-4.04-1.56-6.25Z"/>
  <path class="cls-146" d="M85.37,124.25c1.94.19,3.38.61,5.08,1.56-1,.36-1.46.42-2.49.09-.31-.15-.62-.3-.93-.45-.31-.15-.62-.3-.95-.45-.24-.12-.47-.23-.71-.36v-.39Z"/>
  <path class="cls-70" d="M106.48,98.07l.78,1.56q-.77,1.16-1.56,2.35c-.52-.13-1.03-.26-1.56-.39.77-1.16,1.55-2.32,2.35-3.52Z"/>
  <path class="cls-44" d="M94.36,61.32c.39.13.77.26,1.17.39-.39.13-.77.26-1.17.39-.27.52-.53,1.04-.78,1.56-.39.26-.77.52-1.17.78-.13-.52-.26-1.03-.39-1.56q1.1-.81,2.35-1.56Z"/>
  <path class="cls-76" d="M87.71,32.4c-1.81.99-3.38,1.75-5.47,1.95.84-.93,1.56-1.42,2.74-1.86q.4-.15.81-.31.76-.18,1.93.21Z"/>
  <path class="cls-176" d="M13.84,5.04l.78.39c-1.42,1.29-2.84,2.58-4.3,3.91l-.39-.78c1.12-1.56,2.28-2.52,3.91-3.52Z"/>
  <path class="cls-139" d="M137.75,126.21l.39.78c-.36.59-.73,1.18-1.1,1.76-.2.33-.41.65-.62.99-.21.25-.41.51-.63.77h-1.17c1.03-1.42,2.06-2.84,3.13-4.3Z"/>
  <path class="cls-52" d="M18.92,87.9l.78.39c-.26.26-.52.52-.78.78,1.55.13,3.1.26,4.69.39v.39q-3.1.19-6.25.39.78-1.56,1.56-2.35Z"/>
  <path class="cls-30" d="M175.66,85.95h7.43c-.39.13-.77.26-1.17.39v.78c-2.06-.26-4.13-.52-6.25-.78v-.39Z"/>
  <path class="cls-135" d="M183.87,63.28l.78.78q-.15.83-.39,1.56c-.13-.13-.26-.26-.39-.39-1.12-.09-2.23-.17-3.35-.22-.32-.02-.63-.03-.96-.05-.78-.04-1.56-.08-2.34-.12v-.39h6.64v-1.17Z"/>
  <path class="cls-170" d="M59.57,46.86c-1.15.76-1.83,1-3.15,1.27q-.51.11-1.04.23c-.29.02-.59.04-.89.07-.26-.26-.52-.52-.78-.78,2.05-.68,3.7-.86,5.86-.78Z"/>
  <path class="cls-173" d="M104.52,27.71v.78h1.17v1.17c.39.13.77.26,1.17.39l-.78.39q-.85-.39-1.81-.95c-.32-.18-.64-.37-.97-.56-.24-.15-.49-.29-.74-.44q1.17-.78,1.95-.78Z"/>
  <path class="cls-147" d="M95.04,125.99c.31.11.62.22.95.34q.35.13.71.27v1.17c-.63-.18-1.25-.36-1.88-.54-.35-.1-.7-.2-1.06-.3q-.97-.33-2.14-1.11c1.34-.46,2.1-.31,3.42.17Z"/>
  <path class="cls-26" d="M144.39,47.25c.9.04,1.79.09,2.69.15.5.03,1,.05,1.51.08q1.27.16,2.06.94h-5.86c-.13-.39-.26-.77-.39-1.17Z"/>
  <path class="cls-66" d="M94.77,156.61c.28.15.55.3.84.45.28.15.56.3.85.45.21.12.42.23.64.36v.39c-1.54.14-2.18.12-3.47-.78-.27-.26-.55-.52-.83-.78q1.17-.39,1.97-.09Z"/>
  <path class="cls-88" d="M138.14,135.2l.78.39-2.35,3.13c-.26-.13-.52-.26-.78-.39.5-1.53.98-2.26,2.35-3.13Z"/>
  <path class="cls-141" d="M141.39,46.4c1.35.07,1.88.22,3,.86-.63.09-1.27.17-1.91.24q-.53.07-1.07.14c-.31,0-.61,0-.93,0-.26-.26-.52-.52-.78-.78q.39-.39,1.69-.46Z"/>
  <path class="cls-119" d="M58.79,131.68c1.24.62,1.85.96,2.47,2.22.09.3.18.6.27.9h-1.17q-1.56-2.05-1.56-3.13Z"/>
  <path class="cls-74" d="M109.21,124.64q-.39,1.17-1.27,1.66c-1.19.32-1.86.24-3.03-.1q3.02-1.56,4.3-1.56Z"/>
  <path class="cls-110" d="M126.02,119.95c-1.42,1.3-2.85,1.56-4.69,1.95.82-1.23,1.03-1.38,2.35-1.86.27-.1.55-.21.83-.31q.73-.18,1.51.21Z"/>
  <path class="cls-184" d="M147.52,104.32h.78q-.24,2.93-1,3.91c-.19.13-.37.26-.56.39q.34-2.98.78-4.3Z"/>
  <path class="cls-42" d="M81.85,61.32l1.17,1.17c-.26.77-.52,1.55-.78,2.35-.26-.52-.52-1.03-.78-1.56q-.39.19-.78.39.73-1.91,1.17-2.35Z"/>
  <path class="cls-55" d="M113.12,157.87l.78.39c-.13.39-.26.77-.39,1.17q-1,.46-1.95.78l-.78-.78c.77-.52,1.55-1.03,2.35-1.56Z"/>
  <path class="cls-16" d="M72.86,148.1c1.48.21,2.14.86,3.13,1.95-.13.39-.26.77-.39,1.17q-2.3-1.81-2.74-3.13Z"/>
  <path class="cls-71" d="M140.87,120.74q.39,1.17.09,1.89c-.42.67-.84,1.35-1.26,2.02h-.78c.45-1.53.92-2.69,1.95-3.91Z"/>
  <path class="cls-99" d="M43.55,93.77h.39c.13,1.81.26,3.61.39,5.47q-1.17-1.56-1.2-2.57c.05-.34.1-.69.15-1.04.05-.35.09-.7.14-1.06.04-.26.08-.53.13-.8Z"/>
  <path class="cls-102" d="M96.31,89.86c-.61,1.49-1.58,2.42-2.74,3.52.18-1.65.8-3.52,2.74-3.52Z"/>
  <path class="cls-38" d="M91.23,64.45q.39.78.09,1.8c-.15.39-.3.78-.45,1.18q-.22.59-.45,1.19c-.12.3-.23.6-.36.91h-.39q.23-3.75,1.56-5.08Z"/>
  <path class="cls-21" d="M64.65,45.69c-.74.74-1.3,1.15-2.36,1.25-.78,0-1.55-.04-2.33-.08,1.73-1.15,2.61-1.21,4.69-1.17Z"/>
  <path class="cls-43" d="M2.9,181.71l.78.78.78-.39c.26,1.16.52,2.32.78,3.52h-.78q-1.56-2.59-1.56-3.91Z"/>
  <path class="cls-60" d="M198.33,172.33h.39c.08.56.15,1.12.22,1.69.04.31.08.63.12.95q.05.88-.34,2.06h-.78c.13-1.55.26-3.1.39-4.69Z"/>
  <path class="cls-35" d="M95.14,109.4c.39.52.77,1.03,1.17,1.56q-.32,1.27-.78,2.35h-.78c.13-1.29.26-2.58.39-3.91Z"/>
  <path class="cls-74" d="M94.36,109.79h.39q.05,2.59-.39,3.91h-.78c-.07-1.54-.04-2.58.78-3.91Z"/>
  <path class="cls-18" d="M51.76,104.71l.78.39q.25.89.44,1.98c.07.36.13.72.2,1.09.05.28.09.56.14.84-1.51-1.28-1.41-2.4-1.56-4.3Z"/>
  <path class="cls-93" d="M93.97,94.16h.78c-.13,1.55-.26,3.1-.39,4.69-.78-1.57-.89-2.22-.78-3.91l.39-.78Z"/>
  <path class="cls-115" d="M124.06,80.48c1.13.51,1.9,1.04,2.74,1.95-.13.39-.26.77-.39,1.17q-1.83-1.41-2.35-1.95v-1.17Z"/>
  <path class="cls-86" d="M105.69,35.14c1.31.22,2.36.53,3.52,1.17v.78c-1.33-.31-2.61-.73-3.91-1.17l.39-.78Z"/>
  <path class="cls-114" d="M18.14,196.56h1.17v.78q.46.07.93.15,1.03.24,1.81,1.03-2.59-.29-3.91-1.17v-.78Z"/>
  <path class="cls-162" d="M9.15,191.09q1.12.27,2.35.78.54,1.03.78,1.95h-.78v-.78c-.24-.03-.48-.06-.73-.1q-.83-.29-1.32-1.1c-.1-.25-.19-.5-.29-.76Z"/>
  <path class="cls-178" d="M6.02,186.01c1.51,1.01,1.54,1.8,1.95,3.52-.39-.13-.77-.26-1.17-.39v-1.17h-.78q-.22-.76-.39-1.56l.39-.39Z"/>
  <path class="cls-130" d="M61.53,134.42c.64.64,1.29,1.29,1.95,1.95-.13.26-.26.52-.39.78q-.76-.29-1.56-.78-.32-.81-.39-1.56l.39-.39Z"/>
  <path class="cls-34" d="M57.62,128.94c.89.85,1.63,1.74,2.35,2.74l-.39.78q-.76-.22-1.56-.78-.29-1.42-.39-2.74Z"/>
  <path class="cls-131" d="M92.41,126.99q2.55.24,3.49,1c.14.19.27.37.42.56q-2.55-.24-3.49-1c-.14-.19-.27-.37-.42-.56Z"/>
  <path class="cls-145" d="M102.96,101.19l1.17.78h-.78c.13,1.29.26,2.58.39,3.91h-.78c-.08-.71-.15-1.42-.22-2.13-.04-.39-.08-.79-.12-1.2-.02-.32-.03-.65-.05-.98l.39-.39Z"/>
  <path class="cls-48" d="M99.44,88.29q3.03.29,3.91,1.17c-1.66.55-2.63.08-4.3-.39l.39-.78Z"/>
  <path class="cls-136" d="M123.67,80.09q1.32.12,2.74.39c.26.39.52.77.78,1.17l-.78.78c-.23-.24-.47-.48-.71-.73q-.86-.88-2.03-1.61Z"/>
  <path class="cls-138" d="M126.41,37.09c1.16.13,2.32.26,3.52.39-.13.26-.26.52-.39.78q-2.25.05-3.13-.39v-.78Z"/>
  <path class="cls-75" d="M99.05,32.01c1.54-.14,2.18-.12,3.47.78q.41.39.83.78-.93.24-1.95.39c-.26-.26-.52-.52-.78-.78.13-.26.26-.52.39-.78h-1.95v-.39Z"/>
  <path class="cls-55" d="M90.45,31.62h-1.17c-.13.39-.26.77-.39,1.17-.52-.13-1.03-.26-1.56-.39.13-.39.26-.77.39-1.17,1.32-.57,1.48-.45,2.74.39Z"/>
  <path class="cls-128" d="M104.91,126.99q-2.12,1.2-3.27,1.05-.31-.13-.64-.27,2.59-1.22,3.91-.78Z"/>
  <path class="cls-2" d="M80.68,120.74q2.16.24,3.08,1,.22.28.44.56c-1.03-.13-2.06-.26-3.13-.39-.13-.39-.26-.77-.39-1.17Z"/>
  <path class="cls-78" d="M154.55,101.97h.39c-.13,1.16-.26,2.32-.39,3.52h-.78q-.1-2.2.78-3.52Z"/>
  <path class="cls-153" d="M150.25,96.11h.39c-.04.58-.09,1.16-.15,1.73q-.04.48-.08.98c-.05.27-.11.53-.16.81q-.39.19-.78.39c.05-.58.11-1.16.17-1.73.03-.32.06-.64.1-.98q.12-.81.51-1.2Z"/>
  <path class="cls-167" d="M151.82,88.68h.39v3.52q-.39.19-.78.39c-.45-1.58-.33-2.43.39-3.91Z"/>
  <path class="cls-57" d="M73.64,37.09v.78c-1.03.13-2.06.26-3.13.39-.13-.26-.26-.52-.39-.78,1.2-.36,2.27-.43,3.52-.39Z"/>
  <path class="cls-158" d="M122.5,35.53l3.52,1.17v.39c-1.65.08-2.8-.08-4.3-.78l.78-.78Z"/>
  <path class="cls-122" d="M120.55,34.75q.95.32,1.95.78c.13.39.26.77.39,1.17-.92-.1-1.83-.23-2.74-.39l-.39-.78.78-.78Z"/>
  <path class="cls-3" d="M4.46,15.2h.78c-.39,1.16-.77,2.32-1.17,3.52h-.78c.39-1.16.77-2.32,1.17-3.52Z"/>
  <path class="cls-19" d="M188.95,6.99q1.17.39,1.64,1.2c.1.25.21.5.32.76-.39.13-.77.26-1.17.39-.52-.64-1.03-1.29-1.56-1.95l.78-.39Z"/>
  <path class="cls-27" d="M24,.35c-.13.39-.26.77-.39,1.17-.9-.13-1.81-.26-2.74-.39V.35c1.19-.38,1.93-.38,3.13,0Z"/>
  <path class="cls-108" d="M2.51,179.36h.78c.26,1.16.52,2.32.78,3.52-1.29-1.29-1.37-1.77-1.56-3.52Z"/>
  <path class="cls-81" d="M131.88,142.23h1.17c-.41,1.02-.64,1.48-1.61,2.05-.24.1-.48.19-.73.29.22-1.12.34-1.51,1.17-2.35Z"/>
  <path class="cls-97" d="M64.26,129.73q.98.9,1.95,1.95v1.17q-.98-.9-1.95-1.95v-1.17Z"/>
  <path class="cls-95" d="M96.7,128.55c1.46.16,2.63.44,3.91,1.17q-2.9.11-4.3-.78l.39-.39Z"/>
  <path class="cls-126" d="M60.75,124.64c1.47.49,1.66,1,2.35,2.35v.78c-1.47-.49-1.66-1-2.35-2.35v-.78Z"/>
  <path class="cls-103" d="M115.86,60.54h.78v.78c.39.13.77.26,1.17.39v3.13q-.78-1.17-.78-2.74h-.78l-.39-1.56Z"/>
  <path class="cls-12" d="M92.23,52.7c.44,0,.89.02,1.34.02q-1.86,1.56-2.74,1.56c-.13-.39-.26-.77-.39-1.17q.39-.39,1.78-.42Z"/>
  <path class="cls-29" d="M138.92,40.61c.58.04,1.16.09,1.73.15.32.03.64.05.98.08q.4.08.81.16c.13.26.26.52.39.78q-3.03-.29-3.91-1.17Z"/>
  <path class="cls-49" d="M105.69,28.88c1.48.43,2.53.75,3.52,1.95-1.46-.19-2.27-.34-3.52-1.17v-.78Z"/>
  <path class="cls-123" d="M22.83,1.13c-.39.13-.77.26-1.17.39v.78q-.93.24-1.95.39c-.26-.26-.52-.52-.78-.78,1.37-.63,2.4-.87,3.91-.78Z"/>
  <path class="cls-63" d="M188.56,191.87h1.56q0,.78-.59,1.42c-.19.18-.39.35-.59.54-.39-.13-.77-.26-1.17-.39l.78-1.56Z"/>
  <path class="cls-7" d="M191.68,188.35h1.56c-.13.39-.26.77-.39,1.17h-.78c-.13.39-.26.77-.39,1.17q-.44-1.47,0-2.35Z"/>
  <path class="cls-165" d="M118.2,154.35l.78.39v.78q-1.17.78-2.03.64c-.23-.08-.47-.16-.71-.24.64-.52,1.29-1.03,1.95-1.56Z"/>
  <path class="cls-82" d="M85.37,151.61q1.86.29,2.74,1.17v.78c-1.43-.49-1.87-.65-2.74-1.95Z"/>
  <path class="cls-166" d="M113.9,124.64c-1.25,1.11-2.26,1.38-3.91,1.56.81-1.62,2.24-1.66,3.91-1.56Z"/>
  <path class="cls-50" d="M84.98,123.08q2.59-.1,3.91.78c-1.49.57-2.46.17-3.91-.39v-.39Z"/>
  <path class="cls-144" d="M103.74,105.88c.82,1.33.85,2.37.78,3.91-.39-.26-.77-.52-1.17-.78.13-1.03.26-2.06.39-3.13Z"/>
  <path class="cls-163" d="M177.22,102.76h.39v3.91c-.64-.13-1.29-.26-1.95-.39.39-.26.77-.52,1.17-.78q.29-1.39.39-2.74Z"/>
  <path class="cls-100" d="M103.35,101.97q.78.39,1.05,1.07c.14,1.03-.02,1.83-.27,2.83-.82-1.33-.85-2.37-.78-3.91Z"/>
  <path class="cls-32" d="M93.58,99.24q1.91,1.86,2.35,2.74c-1.12-.22-1.51-.34-2.35-1.17v-1.56Z"/>
  <path class="cls-87" d="M104.91,92.59l1.17.78q.07,1.42,0,2.74c-.26-.13-.52-.26-.78-.39-.23-1.04-.29-2.07-.39-3.13Z"/>
  <path class="cls-73" d="M47.85,88.68c.53,1.58.24,2.65,0,4.3h-.39c-.13-1.29-.26-2.58-.39-3.91l.78-.39Z"/>
  <path class="cls-160" d="M112.34,56.24q.97.19,1.95.39c.13.64.26,1.29.39,1.95-.79-.64-1.57-1.29-2.35-1.95v-.39Z"/>
  <path class="cls-171" d="M101.79,33.57q2.16.24,3.08,1,.22.28.44.56-2.16-.24-3.08-1c-.15-.19-.29-.37-.44-.56Z"/>
</svg>