<?xml version="1.0" encoding="UTF-8"?>
<svg id="_레이어_1" data-name="레이어 1" xmlns="http://www.w3.org/2000/svg" viewBox="0 0 64 64">
  <defs>
    <style>
      .cls-1 {
        fill: #1662a1;
      }

      .cls-2 {
        fill: #f6dd05;
      }

      .cls-3 {
        fill: #12599d;
      }

      .cls-4 {
        fill: #d6c10d;
      }

      .cls-5 {
        fill: #fedf3b;
      }

      .cls-6 {
        fill: #4fc6d5;
      }

      .cls-7 {
        fill: #608db9;
      }

      .cls-8 {
        fill: #024c8c;
      }

      .cls-9 {
        fill: #325171;
      }

      .cls-10 {
        fill: #fdfdfe;
      }

      .cls-11 {
        fill: #0a325b;
      }

      .cls-12 {
        fill: #374a63;
      }

      .cls-13 {
        fill: #cbeef2;
      }

      .cls-14 {
        fill: #133751;
      }

      .cls-15 {
        fill: #022854;
      }

      .cls-16 {
        fill: #195898;
      }

      .cls-17 {
        fill: #062342;
      }

      .cls-18 {
        fill: #0a3059;
      }

      .cls-19 {
        fill: #4679af;
      }

      .cls-20 {
        fill: #4e5a3f;
      }

      .cls-21 {
        fill: #082f58;
      }

      .cls-22 {
        fill: #01336e;
      }

      .cls-23 {
        fill: #061b36;
      }

      .cls-24 {
        fill: #f5fcfc;
      }

      .cls-25 {
        fill: #183f62;
      }

      .cls-26 {
        fill: #566f86;
      }

      .cls-27 {
        fill: #7ca2c6;
      }

      .cls-28 {
        fill: #142743;
      }

      .cls-29 {
        fill: #145596;
      }

      .cls-30 {
        fill: #3aafe1;
      }

      .cls-31 {
        fill: #31c2cd;
      }

      .cls-32 {
        fill: #dfcb0d;
      }

      .cls-33 {
        fill: #304547;
      }

      .cls-34 {
        fill: #41bfc9;
      }

      .cls-35 {
        fill: #2f4354;
      }

      .cls-36 {
        fill: #1a5b9b;
      }

      .cls-37 {
        fill: #2d4753;
      }

      .cls-38 {
        fill: #052852;
      }

      .cls-39 {
        fill: #4c6277;
      }

      .cls-40 {
        fill: #155695;
      }

      .cls-41 {
        fill: #4ec2f0;
      }

      .cls-42 {
        fill: #1e364e;
      }

      .cls-43 {
        fill: #6c97c0;
      }

      .cls-44 {
        fill: #0f3259;
      }

      .cls-45 {
        fill: #aec2d7;
      }

      .cls-46 {
        fill: #5e8db9;
      }

      .cls-47 {
        fill: #40bcc7;
      }

      .cls-48 {
        fill: #fadf06;
      }

      .cls-49 {
        fill: #1a5a9b;
      }

      .cls-50 {
        fill: #e8d50b;
      }

      .cls-51 {
        fill: #031f3c;
      }

      .cls-52 {
        fill: #bfe0e9;
      }

      .cls-53 {
        fill: #3fb4e6;
      }

      .cls-54 {
        fill: #e8d733;
      }

      .cls-55 {
        fill: #3b74aa;
      }

      .cls-56 {
        fill: #1e5e9c;
      }

      .cls-57 {
        fill: #185898;
      }

      .cls-58 {
        fill: #073058;
      }

      .cls-59 {
        fill: #0b1b35;
      }

      .cls-60 {
        fill: #1b5c9a;
      }

      .cls-61 {
        fill: #316aa3;
      }

      .cls-62 {
        fill: #2db6c2;
      }

      .cls-63 {
        fill: #7ba1c6;
      }

      .cls-64 {
        fill: #618eb9;
      }

      .cls-65 {
        fill: #24b3c8;
      }

      .cls-66 {
        fill: #2f4e70;
      }

      .cls-67 {
        fill: #1ec1cc;
      }

      .cls-68 {
        fill: #bfb21b;
      }

      .cls-69 {
        fill: #f3f6f8;
      }

      .cls-70 {
        fill: #dbca10;
      }

      .cls-71 {
        fill: #0d2240;
      }

      .cls-72 {
        fill: #0e386f;
      }

      .cls-73 {
        fill: #456381;
      }

      .cls-74 {
        fill: #fade03;
      }

      .cls-75 {
        fill: #4e6379;
      }

      .cls-76 {
        fill: #165899;
      }

      .cls-77 {
        fill: #195a9b;
      }

      .cls-78 {
        fill: #0765b1;
      }

      .cls-79 {
        fill: #6992be;
      }

      .cls-80 {
        fill: #0d3159;
      }

      .cls-81 {
        fill: #1b5d9d;
      }

      .cls-82 {
        fill: #2c4d6f;
      }

      .cls-83 {
        fill: #175899;
      }

      .cls-84 {
        fill: #135899;
      }

      .cls-85 {
        fill: #052256;
      }

      .cls-86 {
        fill: #092343;
      }

      .cls-87 {
        fill: #03245a;
      }

      .cls-88 {
        fill: #1b316c;
      }

      .cls-89 {
        fill: #467aaf;
      }

      .cls-90 {
        fill: #0169b0;
      }

      .cls-91 {
        fill: #081e35;
      }

      .cls-92 {
        fill: #fbfbfc;
      }

      .cls-93 {
        fill: #032c67;
      }

      .cls-94 {
        fill: #013d7a;
      }

      .cls-95 {
        fill: #0f2f5f;
      }

      .cls-96 {
        fill: #0f2745;
      }

      .cls-97 {
        fill: #11335b;
      }

      .cls-98 {
        fill: #283f5a;
      }

      .cls-99 {
        fill: #2dbbcf;
      }

      .cls-100 {
        fill: #cfbe0f;
      }

      .cls-101 {
        fill: #3d76ac;
      }

      .cls-102 {
        fill: #ebd809;
      }

      .cls-103 {
        fill: #51667b;
      }

      .cls-104 {
        fill: #1a5d9a;
      }

      .cls-105 {
        fill: #64d7e2;
      }

      .cls-106 {
        fill: #0d324e;
      }

      .cls-107 {
        fill: #4d657e;
      }

      .cls-108 {
        fill: #175a9c;
      }

      .cls-109 {
        fill: #fde205;
      }

      .cls-110 {
        fill: #06275a;
      }

      .cls-111 {
        fill: #234766;
      }

      .cls-112 {
        fill: #3771a9;
      }

      .cls-113 {
        fill: #1b5c9c;
      }

      .cls-114 {
        fill: #155797;
      }

      .cls-115 {
        fill: #e2d30b;
      }

      .cls-116 {
        fill: #0173bc;
      }

      .cls-117 {
        fill: #3b4f4b;
      }

      .cls-118 {
        fill: #1f67a4;
      }

      .cls-119 {
        fill: #2cb9c3;
      }

      .cls-120 {
        fill: #0a2846;
      }

      .cls-121 {
        fill: #eaf9f9;
      }

      .cls-122 {
        fill: #4f80b0;
      }

      .cls-123 {
        fill: #1c5f9e;
      }

      .cls-124 {
        fill: #0b2c49;
      }

      .cls-125 {
        fill: #4d7fb1;
      }

      .cls-126 {
        fill: #0c3159;
      }

      .cls-127 {
        fill: #0a3159;
      }

      .cls-128 {
        fill: #fbe204;
      }

      .cls-129 {
        fill: #76d0f2;
      }

      .cls-130 {
        fill: #41bdc7;
      }

      .cls-131 {
        fill: #062860;
      }

      .cls-132 {
        fill: #02295b;
      }

      .cls-133 {
        fill: #145898;
      }

      .cls-134 {
        fill: #fee530;
      }

      .cls-135 {
        fill: #8fd1ed;
      }

      .cls-136 {
        fill: #23374b;
      }

      .cls-137 {
        fill: #1dc2d2;
      }

      .cls-138 {
        fill: #195b99;
      }

      .cls-139 {
        fill: #0d2342;
      }

      .cls-140 {
        fill: #072856;
      }

      .cls-141 {
        fill: #24405b;
      }

      .cls-142 {
        fill: #2865a0;
      }

      .cls-143 {
        fill: #efeff0;
      }

      .cls-144 {
        fill: #374a3f;
      }

      .cls-145 {
        fill: #2a3f44;
      }

      .cls-146 {
        fill: #09285e;
      }

      .cls-147 {
        fill: #e5d30e;
      }

      .cls-148 {
        fill: #364e81;
      }

      .cls-149 {
        fill: #dce5ef;
      }

      .cls-150 {
        fill: #195999;
      }

      .cls-151 {
        fill: #30cfd2;
      }

      .cls-152 {
        fill: #45c2d2;
      }

      .cls-153 {
        fill: #031e3c;
      }

      .cls-154 {
        fill: #325e94;
      }

      .cls-155 {
        fill: #0c324f;
      }

      .cls-156 {
        fill: #0d2f4c;
      }

      .cls-157 {
        fill: #082744;
      }

      .cls-158 {
        fill: #1b5c9b;
      }

      .cls-159 {
        fill: #091d37;
      }

      .cls-160 {
        fill: #253a55;
      }

      .cls-161 {
        fill: #214267;
      }

      .cls-162 {
        fill: #7ca1c4;
      }

      .cls-163 {
        fill: #013069;
      }

      .cls-164 {
        fill: #255a99;
      }

      .cls-165 {
        fill: #3974ae;
      }

      .cls-166 {
        fill: #092658;
      }

      .cls-167 {
        fill: #072442;
      }

      .cls-168 {
        fill: #3a73a8;
      }

      .cls-169 {
        fill: #2ab9cb;
      }

      .cls-170 {
        fill: #0b325a;
      }

      .cls-171 {
        fill: #082242;
      }

      .cls-172 {
        fill: #185b9b;
      }

      .cls-173 {
        fill: #5383b3;
      }

      .cls-174 {
        fill: #6491bd;
      }

      .cls-175 {
        fill: #fcd209;
      }

      .cls-176 {
        fill: #13589c;
      }

      .cls-177 {
        fill: #245597;
      }

      .cls-178 {
        fill: #6591bc;
      }

      .cls-179 {
        fill: #0b5192;
      }

      .cls-180 {
        fill: #3d5c7c;
      }

      .cls-181 {
        fill: #0371b9;
      }

      .cls-182 {
        fill: #305375;
      }

      .cls-183 {
        fill: #36c8d8;
      }

      .cls-184 {
        fill: #05213f;
      }

      .cls-185 {
        fill: #47c9d5;
      }

      .cls-186 {
        fill: #f7f8f9;
      }

      .cls-187 {
        fill: #ead121;
      }

      .cls-188 {
        fill: #1062a0;
      }
    </style>
  </defs>
  <path class="cls-142" d="M8.06-.02c.08,0,.17,0,.26,0,.28,0,.57,0,.85,0,.2,0,.41,0,.61,0,.56,0,1.13,0,1.69,0,.61,0,1.22,0,1.82,0,1.19,0,2.38,0,3.57,0,.97,0,1.93,0,2.9,0,.14,0,.28,0,.42,0,.28,0,.56,0,.84,0,2.62,0,5.24,0,7.86,0,2.25,0,4.5,0,6.75,0,2.61,0,5.22,0,7.84,0,.28,0,.56,0,.84,0,.14,0,.27,0,.42,0,.97,0,1.93,0,2.9,0,1.18,0,2.36,0,3.53,0,.6,0,1.2,0,1.8,0,.55,0,1.1,0,1.65,0,.2,0,.4,0,.6,0,.27,0,.54,0,.81,0,.15,0,.3,0,.46,0,.32.01.58.05.88.14v.25c.29.04.58.08.88.13v.25c.21.04.41.08.63.13v.25c.21.04.41.08.63.13v.25c.09,0,.19.02.28.02.45.13.57.35.84.73.09.09.19.18.28.27q.22.23.22.48c.12.04.25.08.38.13v.25c.12.04.25.08.38.13v.25h.25c.04.12.08.25.13.38l.25.13q.08.32.13.63h.25c.16.36.25.6.25,1h.25c.04.33.08.66.13,1h.25c.24,1.16.29,2.28.28,3.46,0,.19,0,.39,0,.58,0,.53,0,1.06,0,1.59,0,.57,0,1.15,0,1.72,0,1.12,0,2.25,0,3.37,0,.91,0,1.83,0,2.74,0,.13,0,.26,0,.39,0,.26,0,.53,0,.79,0,2.48,0,4.96,0,7.43,0,2.12,0,4.25,0,6.37,0,2.47,0,4.94,0,7.41,0,.26,0,.53,0,.79,0,.13,0,.26,0,.39,0,.91,0,1.82,0,2.74,0,1.11,0,2.22,0,3.34,0,.57,0,1.13,0,1.7,0,.52,0,1.04,0,1.56,0,.19,0,.37,0,.56,0,1.08-.06,2.12-.28,3.19h-.25c-.04.37-.08.74-.13,1.13h-.25c-.02.1-.04.19-.05.29q-.07.34-.2.71h-.25c-.01.1-.03.19-.04.29-.09.36-.17.49-.46.71h-.25c-.04.17-.08.33-.13.5h-.25c-.04.12-.08.25-.13.38h-.25c-.03.1-.07.19-.1.29-.15.33-.24.5-.52.71q-.34.09-.63.13c-.04.12-.08.25-.13.38h-.38v.25c-.17.04-.33.08-.5.13v.25c-.25.04-.5.08-.75.13v.25c-.29.04-.58.08-.88.13v.25c-.5.12-.96.14-1.47.14-.08,0-.17,0-.25,0-.28,0-.56,0-.84,0-.2,0-.41,0-.61,0-.56,0-1.12,0-1.67,0-.6,0-1.2,0-1.8,0-1.18,0-2.36,0-3.53,0-.96,0-1.91,0-2.87,0-.14,0-.27,0-.41,0-.28,0-.55,0-.83,0-2.59,0-5.19,0-7.78,0-2.23,0-4.45,0-6.68,0-2.58,0-5.17,0-7.75,0-.28,0-.55,0-.83,0-.14,0-.27,0-.41,0-.96,0-1.91,0-2.87,0-1.16,0-2.33,0-3.49,0-.59,0-1.19,0-1.78,0-.54,0-1.09,0-1.63,0-.2,0-.39,0-.59,0-.27,0-.53,0-.8,0-.15,0-.3,0-.45,0-.35-.01-.67-.06-1.02-.14v-.25c-.29-.04-.58-.08-.88-.13v-.25c-.25-.04-.5-.08-.75-.13v-.25c-.17-.04-.33-.08-.5-.13v-.25c-.17-.04-.33-.08-.5-.13v-.25c-.17-.04-.33-.08-.5-.13v-.25c-.08,0-.15-.02-.23-.02-.09-.03-.18-.07-.27-.1-.09-.21-.17-.41-.25-.63-.12-.04-.25-.08-.38-.13v-.25c-.12-.04-.25-.08-.38-.13v-.38h-.25c-.04-.1-.07-.2-.11-.3q-.11-.34-.39-.45-.5-.79-.5-1.25h-.25c-.08-.27-.17-.55-.25-.82-.05-.15-.09-.3-.14-.46-.11-.47-.13-.87-.11-1.34H-.02V8.37H.23c.04-.5.08-.99.13-1.5h.25c.04-.33.08-.66.13-1h.25c.02-.1.04-.19.05-.29q.07-.34.2-.71h.25c.02-.1.03-.2.05-.3.03-.11.05-.21.08-.32q.12-.06.25-.13c.04-.12.08-.25.13-.38h.25c.04-.12.08-.25.13-.38h.25c.04-.12.08-.25.13-.38h.25c.03-.09.06-.19.09-.28.2-.41.41-.59.79-.84h.25v-.25l.5-.13v-.25l.63-.13v-.25l.63-.13v-.25q.43-.06.88-.13V.12c.45-.14.87-.14,1.34-.14Z"/>
  <path class="cls-25" d="M32.48,10.25q.36.17.63.38v.25c.13.04.27.07.41.11q.47.14.73.27c.32.16.64.19.99.24v.25c.09.02.18.03.28.05.33.07.61.17.92.31.7.29,1.41.52,2.13.74.13.04.25.08.38.12.31.1.61.19.92.29v.25c.12.01.25.03.38.04.52.07,1,.22,1.5.37.19.06.38.11.57.17.33.1.66.2,1,.3,1.16.34,2.34.52,3.54.69,1.04.15,2.01.39,3.02.67q.08,6.13-.32,8.98c-.06.42-.1.83-.14,1.25-.24,2.34-.72,4.53-1.41,6.77-.05.16-.1.33-.15.49-.12.38-.23.75-.35,1.13h-.25c-.02.09-.03.18-.05.28-.12.56-.35,1.07-.58,1.6-.04.1-.08.2-.13.3-.19.44-.39.86-.63,1.27-.26.47-.44.92-.62,1.43h-.25c-.03.09-.06.17-.09.26-.18.43-.42.81-.67,1.19-.05.08-.1.15-.15.23-2.55,3.88-5.86,6.88-9.81,9.28-.11.07-.22.13-.33.2-.1.06-.2.12-.31.18-.09.05-.18.11-.27.16q-.24.12-.62.12c-.04.12-.08.25-.13.38-.59.14-.89.12-1.43-.17q-.19-.1-.39-.21t-.43-.25c-.08-.05-.17-.09-.25-.14-.26-.15-.52-.3-.78-.45-.08-.05-.17-.1-.25-.15-.2-.12-.4-.25-.59-.38v-.25l-.26-.09c-.47-.21-.86-.49-1.27-.8-.08-.06-.17-.12-.25-.19-.6-.45-1.16-.92-1.71-1.43-.24-.22-.48-.43-.73-.63-.39-.33-.72-.7-1.05-1.09-.27-.32-.56-.62-.84-.93-.47-.52-.92-1.05-1.35-1.61-.05-.07-.11-.14-.17-.21q-.38-.5-.38-.78h-.25c-.04-.07-.07-.14-.11-.21-.46-.85-.93-1.69-1.41-2.53-.07-.11-.13-.23-.2-.35q-.36-.63-.73-1.25c-.25-.43-.39-.89-.55-1.37q-.1-.32-.37-.55-.06-.22-.11-.49c-.09-.43-.21-.83-.37-1.24-.25-.66-.44-1.32-.62-2-.03-.1-.06-.21-.08-.31-.13-.49-.23-.94-.2-1.45h-.25l-.5-2.75c-.02-.1-.04-.2-.06-.3-.16-.83-.25-1.64-.3-2.48,0-.13-.02-.26-.02-.39-.03-.42-.05-.84-.07-1.25q-.01-.21-.03-.43c-.12-2.13-.2-4.26-.15-6.39.56-.21,1.09-.31,1.68-.38.63-.07,1.21-.2,1.82-.38.38-.07.76-.12,1.14-.18.36-.07.65-.19.98-.32.33-.08.65-.16.98-.23.91-.21,1.79-.46,2.68-.75.42-.14.84-.26,1.27-.39.77-.24,1.52-.52,2.26-.82.47-.19.93-.36,1.41-.51.42-.14.8-.3,1.19-.5.3-.16.6-.31.91-.43.28-.11.53-.24.8-.39.44-.22.76-.31,1.26-.23Z"/>
  <path class="cls-106" d="M31.86,10.37h.5c.04.12.08.25.13.38.13.01.25.03.38.04.51.09.9.25,1.37.46.33.1.66.17,1,.25v.25q.14.02.28.05c.33.07.61.17.92.31.7.29,1.41.52,2.13.74.13.04.25.08.38.12.31.1.61.19.92.29v.25q.19.02.38.04c.52.07,1,.22,1.5.37.19.06.38.11.57.17.33.1.66.2,1,.3,1.16.34,2.34.52,3.54.69,1.04.15,2.01.39,3.02.67q.08,6.13-.32,8.98c-.06.42-.1.83-.14,1.25-.24,2.34-.72,4.53-1.41,6.77-.05.16-.1.33-.15.49-.12.38-.23.75-.35,1.13h-.25c-.02.09-.03.18-.05.28-.12.56-.35,1.07-.58,1.6-.04.1-.08.2-.13.3-.19.44-.39.86-.63,1.27-.26.47-.44.92-.62,1.43h-.25q-.05.13-.09.26c-.18.43-.42.81-.67,1.19-.05.08-.1.15-.15.23-2.54,3.88-5.84,6.83-9.76,9.27-.1.07-.2.13-.31.2-.1.06-.2.12-.3.18q-.13.08-.26.16-.33.13-1.45.26c-.04-3.09-.08-6.19-.13-9.38-.33-.08-.66-.17-1-.25q.06-.12.13-.25c.1.01.21.03.31.04.14.01.27.03.41.05.13.02.27.03.41.05q.36.03.57-.18c.06-.07.11-.13.17-.2q.25-.12.55-.22c.12-.04.24-.08.37-.13.15-.05.3-.1.46-.15.31-.11.63-.22.94-.33.22-.08.43-.15.65-.23.49-.17.98-.34,1.46-.53q.45-.16.82-.16v-.25c.08-.03.16-.06.24-.09.53-.21,1.05-.42,1.57-.66q.12-.05.23-.11c.29-.19.41-.34.59-.64.04-.35.06-.68.05-1.03q0-.16,0-.31c0-.34,0-.69,0-1.03,0-.24,0-.48,0-.72,0-.5,0-1,0-1.5,0-.64,0-1.28.01-1.92,0-.49,0-.99,0-1.48,0-.24,0-.47,0-.71,0-.33,0-.66,0-.99,0-.1,0-.19,0-.29,0-.53-.08-.81-.45-1.2-.41-.38-.84-.48-1.38-.55q-.13-.02-.26-.04c-.21-.03-.42-.07-.63-.1,0-.11,0-.23,0-.34-.01-.42-.02-.84-.04-1.27,0-.18-.01-.36-.02-.55,0-.26-.02-.53-.02-.79,0-.16,0-.32-.01-.48-.03-.45-.08-.88-.15-1.33h-.25q-.06-.43-.13-.88h-.25c-.05-.14-.11-.28-.16-.42-.7-1.38-2.09-2.13-3.46-2.7-.54-.16-1.06-.15-1.62-.15q-.15,0-.3,0c-.55,0-.95.04-1.46.28q-.41.02-.75,0c.3-.36.54-.44,1-.5v-.25h1.5c-.04-1.9-.08-3.8-.13-5.75Z"/>
  <path class="cls-175" d="M34.36,16.92c1.06.58,2.39,1.41,2.87,2.58v.38h.25q.06.43.13.88h.25c.2.62.28,1.14.27,1.81,0,.08,0,.17,0,.26,0,.27,0,.53,0,.8,0,.18,0,.37,0,.55,0,.44,0,.89-.01,1.33q.21,0,.42,0c.39,0,.66.03,1.03.14.09.03.18.05.27.08.43.23.75.51,1.04.91.1.36.1.69.1,1.06,0,.1,0,.21,0,.31,0,.34,0,.68,0,1.02,0,.24,0,.48,0,.71,0,.5,0,1,0,1.5,0,.64,0,1.28,0,1.91,0,.49,0,.98,0,1.47,0,.24,0,.47,0,.71,0,.33,0,.66,0,.99q0,.14,0,.29c-.02.73-.21,1.03-.71,1.52-.65.4-1.37.69-2.13.75v.25c-.65.24-1.31.48-1.97.71q-1.96.54-3.66,1.54c-.61.09-.97-.09-1.49-.37-.67-.35-1.4-.56-2.11-.78q-.27-.11-.57-.29c-.36-.21-.7-.32-1.1-.43-.72-.21-1.41-.46-2.1-.76v-.25c-.09-.01-.18-.02-.27-.03-.58-.15-1.1-.5-1.48-.97-.15-.46-.15-.88-.15-1.35,0-.1,0-.2,0-.3-.01-1.04-.02-2.08-.03-3.13,0-.49,0-.99-.02-1.48,0-.6-.01-1.19-.02-1.79,0-.23,0-.45,0-.68q-.04-2,.48-2.65c.47-.42.86-.51,1.49-.55.09,0,.17-.01.26-.02.21-.02.42-.03.62-.04,0-.11,0-.22,0-.33q.07-5.06,1.5-6.55c.07-.09.14-.17.22-.26.7-.79,1.58-1.19,2.53-1.62.1-.05.2-.1.3-.15,1.21-.39,2.7-.19,3.83.32Z"/>
  <path class="cls-69" d="M32.96,9c.14.11.28.22.42.34.32.23.66.32,1.04.44.91.29,1.79.71,2.66,1.12.75.35,1.45.67,2.26.83.74.16,1.44.42,2.15.67,1.68.59,3.35,1.01,5.11,1.31q.26.05.51.18c.33.05.67.09,1,.13q.97.11,1.25.25c.27.02.54.03.81.04.45.12.77.35,1.06.71.1.37.09.72.07,1.1,0,.1,0,.21,0,.32,0,.33-.01.66-.02,1,0,.23,0,.45-.01.68,0,.55-.02,1.11-.04,1.66.09,0,.18,0,.27,0,.85,0,1.7-.01,2.54-.02.44,0,.87,0,1.31,0,.5,0,1,0,1.5,0,.16,0,.31,0,.47,0q.22,0,.44,0c.13,0,.26,0,.39,0q.32.05.55.2t.14.72h-7.75v1.75c-.03.54-.06,1.07-.1,1.6q-.01.19-.03.39c-.09,1.14-.28,2.26-.5,3.38.09,0,.18,0,.27,0,.86-.01,1.71-.02,2.57-.02.44,0,.88,0,1.32-.01.51,0,1.01,0,1.52-.01.16,0,.31,0,.48,0,.85,0,1.41.03,2.1.56q.25.25.25.75c-.12-.04-.25-.08-.38-.13-.27-.01-.54-.02-.81-.03-.08,0-.16,0-.25,0-.27,0-.54,0-.81-.01-.19,0-.37,0-.56,0-.49,0-.99-.01-1.48-.02-.5,0-1.01-.01-1.51-.02-.99-.01-1.97-.03-2.96-.04,0,.09-.01.19-.02.28-.01.12-.02.25-.03.37,0,.12-.02.24-.03.37-.06.5-.19.96-.35,1.43-.06.18-.11.37-.17.55q-.04.13-.08.26c-.09.3-.16.6-.22.9q-.1.46-.23.7c-.14.28-.19.52-.24.82-.09.45-.21.71-.51,1.06-.05.21-.09.42-.13.63q.18,0,.36,0c1.12,0,2.24-.01,3.36-.02.58,0,1.15,0,1.73,0,.56,0,1.11,0,1.67,0,.21,0,.42,0,.64,0,.3,0,.59,0,.89,0,.09,0,.17,0,.26,0,.71,0,1.26.18,1.84.6q.13.2.13.7-5.69-.06-11.5-.13v.38h-.25c-.01.06-.03.13-.04.2-.6,2.13-2.1,4.1-3.46,5.81-.1.12-.19.25-.29.37-.73.92-1.53,1.78-2.33,2.63q-.13.14-.27.29c-.65.67-1.37,1.26-2.11,1.84q-.18.15-.37.3c-1.44,1.15-3.03,2.06-4.63,2.97-.08.05-.17.1-.26.15q-.59.33-.87.33v.25c-.17.01-.34.02-.51.02q-.14,0-.29.01c-3.4-.38-7.2-4.26-9.49-6.53-.1-.1-.21-.2-.32-.31q-.15-.15-.3-.3-.13-.13-.26-.26-.22-.27-.35-.6c-.04-.09-.08-.19-.12-.29-.12-.04-.25-.08-.38-.13q-.25-.3-.53-.68-.07-.1-.15-.21c-.15-.2-.3-.41-.44-.61-.07-.09-.14-.19-.22-.29-.54-.74-1-1.53-1.46-2.32-.07-.12-.13-.23-.2-.35q-.09-.17-.19-.33c-.06-.1-.11-.2-.17-.3-.13-.26-.21-.49-.26-.78h-.25c-.17-.37-.33-.74-.5-1.13-1.43,0-2.86,0-4.29,0-.66,0-1.33,0-1.99,0-.64,0-1.28,0-1.92,0-.24,0-.49,0-.73,0-.34,0-.68,0-1.03,0-.1,0-.2,0-.31,0q-.51-.01-.98.14c.04-.42.12-.62.38-.96.46-.37.8-.38,1.36-.37.1,0,.2,0,.3,0,.32,0,.64,0,.96.01.22,0,.45,0,.67,0,.59,0,1.17,0,1.76.02.6,0,1.2,0,1.8.01,1.17,0,2.35.02,3.52.03-.08-.24-.16-.48-.23-.72-.04-.13-.09-.27-.13-.4-.11-.31-.24-.59-.38-.88-.06-.23-.12-.46-.17-.69-.09-.38-.2-.75-.31-1.13-.19-.66-.37-1.33-.55-2q-.03-.12-.07-.25c-.13-.51-.15-.89-.15-1.44-2.72.04-5.45.08-8.25.13q.25-.5.5-.75.31-.03.71-.04.22,0,.45,0c.16,0,.32,0,.49,0,.16,0,.33,0,.5,0,.43,0,.87-.01,1.3-.02.44,0,.89-.01,1.33-.02.87-.01,1.74-.02,2.61-.03.04-.12.08-.25.13-.38-.1,0-.19,0-.29,0-.92.01-1.84.02-2.75.02-.47,0-.94,0-1.42.01-.46,0-.91,0-1.37,0-.17,0-.35,0-.52,0-.24,0-.49,0-.73,0q-.21,0-.42,0c-.46-.07-.67-.23-1-.56-.12-.36-.14-.6-.15-.98,0-.12,0-.25,0-.37,0-.13,0-.27,0-.4,0-.14,0-.27,0-.41,0-.29,0-.58,0-.87,0-.44,0-.89-.01-1.33,0-.28,0-.56,0-.84,0-.13,0-.26,0-.4q0-.92.3-1.41c.41-.37.65-.37,1.19-.37q.21,0,.43,0c.15,0,.31,0,.47,0,.16,0,.32,0,.48,0,.42,0,.84,0,1.26,0,.43,0,.86,0,1.28,0,.84,0,1.68,0,2.52,0,0-.14,0-.28,0-.43-.01-.52-.02-1.05-.02-1.57,0-.23,0-.45-.01-.68,0-.33-.01-.65-.01-.98,0-.1,0-.2,0-.31,0-.53.03-.74.36-1.17.32-.24.46-.33.84-.35.09,0,.19-.01.28-.02q.15,0,.3-.01c1.76-.14,3.42-.56,5.1-1.07.51-.15,1.03-.29,1.54-.43,1.13-.3,2.25-.63,3.36-1,.12-.04.24-.08.37-.12.73-.24,1.42-.53,2.11-.86.32-.14.62-.21.95-.28.16-.03.32-.07.48-.1.04-.08.08-.17.13-.25.26-.09.52-.17.78-.24.55-.15.99-.33,1.47-.63h.25v-.25c.6-.16,1.29-.31,1.85,0ZM31.03,10.6c-.47.24-.95.43-1.44.63-.27.11-.54.22-.81.34-1.25.53-2.52.99-3.8,1.43q-.13.04-.26.09c-.85.29-1.7.54-2.56.79-.15.04-.29.09-.44.13-.71.21-1.41.4-2.13.55q-.27.06-.63.19c-.38.13-.74.19-1.13.24-.6.09-1.18.19-1.77.31-.51.1-1.01.18-1.52.25q-.29.03-.42.18c-.19,2.25.04,4.58.17,6.82,0,.14.02.28.02.43.02.41.05.82.07,1.22,0,.12.01.24.02.37.05.82.18,1.61.34,2.41.17.92.33,1.83.5,2.75h.25c.01.14.03.27.04.41.09.69.27,1.36.44,2.04.03.13.06.25.1.38.18.67.38,1.29.67,1.93q.06.21.12.43c.13.43.29.78.5,1.17.11.21.2.44.3.66.27.64.61,1.24.94,1.84.06.12.13.23.19.35.38.69.77,1.37,1.18,2.05q.15.25.27.5h.25c.03.07.06.13.09.2.21.38.46.72.73,1.06.06.07.11.14.17.22.43.55.88,1.08,1.36,1.59.29.31.57.63.85.95.49.54,1,1.02,1.55,1.48.1.09.21.17.31.26.63.53,1.27,1.02,1.95,1.49q.11.07.21.15.36.26.78.34v.25q.22.17.52.34.16.1.33.2c.12.07.23.14.35.21.11.07.22.13.34.2q1.07.69,2.27.89.16-.04.32-.09c.04-.12.08-.25.13-.38.09-.01.18-.03.28-.04.36-.09.6-.21.92-.41.11-.07.21-.13.33-.2.11-.07.23-.14.34-.22.12-.07.23-.15.36-.22,2.89-1.83,5.58-4.04,7.65-6.79.05-.07.11-.14.16-.21q1.43-1.65,2.21-3.54c.12-.04.25-.08.38-.13.09-.24.18-.47.27-.71.11-.28.24-.52.4-.79.31-.53.53-1.08.74-1.66.03-.09.06-.17.1-.26.16-.44.3-.87.37-1.33h.25c.35-1.1.69-2.2,1.02-3.31q.05-.15.09-.3c.51-1.77.72-3.61.91-5.43.02-.19.04-.39.06-.58.02-.19.04-.38.06-.57,0-.08.02-.17.03-.25.03-.27.05-.53.08-.8q.02-.17.03-.35c.08-.86.11-1.72.1-2.58,0-.13,0-.26,0-.39,0-.4,0-.81,0-1.21,0-.28,0-.55,0-.83,0-.67,0-1.34,0-2.02-.58-.17-1.16-.31-1.76-.42-.09-.02-.17-.03-.26-.05-.49-.09-.97-.17-1.46-.25-1.62-.26-3.17-.68-4.74-1.15-.08-.02-.16-.05-.25-.07-.22-.07-.44-.14-.67-.2q-.39-.12-.87-.1v-.25q-.14-.04-.28-.08c-.43-.13-.85-.26-1.28-.38-.15-.04-.29-.09-.44-.13-.63-.19-1.24-.38-1.83-.68q-.4-.25-.79-.22v-.25c-.15-.03-.29-.07-.45-.1-.36-.09-.7-.2-1.04-.35q-.36-.19-.64-.17v-.25c-.33-.25-.57-.37-.98-.43-.42.06-.73.2-1.11.4Z"/>
  <path class="cls-22" d="M47.61,37.25c1.44-.01,2.88-.02,4.32-.03.67,0,1.34,0,2.01-.01.65,0,1.29,0,1.94,0,.25,0,.49,0,.74,0,.34,0,.69,0,1.03,0,.1,0,.2,0,.31,0,.48,0,.73.03,1.16.28.29.33.33.45.32.88,0,.12,0,.24,0,.36,0,.13,0,.25,0,.38,0,.13,0,.26,0,.39,0,.41-.01.83-.02,1.24,0,.28,0,.56,0,.84,0,.69-.02,1.38-.03,2.06h-.25q-.05.12-.09.23c-.19.32-.31.38-.66.52q-.29.03-.62.03c-.13,0-.25,0-.38,0-.14,0-.27,0-.42,0-.15,0-.29,0-.44,0-.48,0-.96,0-1.44,0-.33,0-.67,0-1,0-.79,0-1.57,0-2.36,0-.9,0-1.79,0-2.69,0-1.84,0-3.69,0-5.53-.01.18-.57.37-.95.75-1.42,1.26-1.63,2.33-3.43,3.13-5.33h.25v-.38Z"/>
  <path class="cls-31" d="M4.98,37.13l.25.25s.08-.08.13-.13c.34-.01.68-.02,1.02-.02.11,0,.21,0,.32,0,.35,0,.71,0,1.06,0,.12,0,.24,0,.37,0,.64,0,1.28,0,1.92,0,.66,0,1.32,0,1.98-.01.51,0,1.01,0,1.52,0,.24,0,.49,0,.73,0,.34,0,.68,0,1.02,0,.1,0,.2,0,.31,0q.68,0,.99.29c.16.34.21.65.25,1.02h.25c.07.14.14.27.22.42.82,1.57,1.7,3.01,2.79,4.41q.09.12.19.25t.17.22.26.58c-1.96.02-3.92.03-5.88.04-.91,0-1.82,0-2.73.02-.79,0-1.59.01-2.38.01-.42,0-.84,0-1.26,0-.47,0-.94,0-1.41,0-.14,0-.28,0-.42,0q-.91,0-1.26-.24c-.36-.39-.48-.76-.47-1.28,0-.13,0-.26,0-.39,0-.14,0-.28,0-.42,0-.14,0-.29,0-.43,0-.46.01-.91.02-1.37,0-.31,0-.62,0-.93,0-.76.02-1.52.03-2.27Z"/>
  <path class="cls-181" d="M50.24,28.75h8.38v.38c.08.04.16.08.24.12q.26.13.38.26c.01.17.02.35.02.52,0,.11,0,.22,0,.33,0,.51.01,1.01.01,1.52,0,.27,0,.53.01.8,0,.38,0,.77.01,1.15,0,.12,0,.24,0,.36,0,.56-.02.94-.38,1.39-.51.47-.86.44-1.52.44q-.15,0-.3,0c-.32,0-.65,0-.97,0-.22,0-.45,0-.67,0-.59,0-1.18,0-1.77,0-.6,0-1.2,0-1.81,0-1.18,0-2.36,0-3.54,0,.07-.52.14-.91.38-1.38.07-.24.12-.49.18-.74q.07-.26.19-.56c.13-.34.22-.67.31-1.03.15-.6.3-1.2.48-1.79.14-.58.24-1.17.34-1.76Z"/>
  <path class="cls-183" d="M5.48,28.62l.13.25c.08-.04.17-.08.25-.13.25-.01.51-.01.76-.01.16,0,.32,0,.49,0,.18,0,.35,0,.53,0,.18,0,.36,0,.54,0,.47,0,.94,0,1.41,0,.48,0,.96,0,1.44,0,.94,0,1.89,0,2.83,0q.03.14.06.29c.09.44.19.88.28,1.31.03.15.06.3.1.45.18.83.39,1.61.7,2.4.11.29.17.57.23.87.1.52.29.97.52,1.44q.1.23.1.48c-1.29.01-2.58.03-3.87.03-.6,0-1.2,0-1.8.01-.58,0-1.16.01-1.74.01-.22,0-.44,0-.66,0-.31,0-.62,0-.93,0-.09,0-.18,0-.28,0-.71,0-1-.22-1.48-.7-.15-.29-.14-.47-.15-.79,0-.11,0-.23,0-.34,0-.12,0-.24,0-.37,0-.13,0-.25,0-.38,0-.27,0-.53,0-.8,0-.41,0-.81-.01-1.22,0-.26,0-.52,0-.78,0-.12,0-.24,0-.37,0-.73.08-1.14.56-1.71Z"/>
  <path class="cls-41" d="M58.86,20.25c.32.32.28.43.29.87,0,.13,0,.26,0,.39,0,.14,0,.28,0,.42q0,.21,0,.43c0,.3,0,.6,0,.91,0,.46,0,.92,0,1.39,0,.29,0,.59,0,.88,0,.14,0,.28,0,.42q0,.95-.29,1.46-.27.22-.64.22v.25c-2.56-.04-5.12-.08-7.75-.13q.17-1.73.22-2.26c.16-1.62.28-3.24.4-4.87h7.75v-.38Z"/>
  <path class="cls-186" d="M34.36,16.92c1.06.58,2.39,1.41,2.87,2.58v.38h.25q.06.43.13.88h.25c.2.62.28,1.14.27,1.81,0,.08,0,.17,0,.26,0,.27,0,.53,0,.8,0,.18,0,.37,0,.55,0,.45,0,.89-.01,1.33-.78-.04-1.57-.08-2.38-.13,0-.24,0-.48,0-.72,0-.32-.01-.63-.02-.95,0-.16,0-.31,0-.47-.03-1.16-.22-2.02-.98-2.9-.08-.06-.16-.13-.24-.19-.09-.07-.17-.14-.26-.21-.28-.2-.57-.37-.87-.55v-.25h-2.5v.25c-.12.04-.24.07-.37.11-.7.3-1.21.9-1.63,1.52-.2.59-.29,1.13-.3,1.75,0,.16,0,.32-.01.49,0,.17,0,.33-.01.5,0,.17,0,.34-.01.51-.01.42-.02.83-.03,1.25h-2.38q-.12-5.22,1.14-6.63c.08-.08.16-.16.24-.25.07-.09.14-.17.22-.26.7-.79,1.58-1.19,2.53-1.62.1-.05.2-.1.3-.15,1.21-.39,2.7-.19,3.83.32Z"/>
  <path class="cls-155" d="M32.04,18.98c.14,0,.28,0,.43,0,.6.03.86.08,1.27.52.16.11.32.23.48.34.75.55,1.18,1.18,1.52,2.04v3.5h-7.25q0-4.18.94-5.17c.1-.1.19-.21.29-.32.41-.4.56-.51,1.14-.51v-.25c.42-.14.74-.14,1.18-.14Z"/>
  <path class="cls-14" d="M32.73,28.62v.25q.1.01.2.02c.43.15.74.4,1.05.73.27.55.38,1.15.25,1.75-.21.41-.44.78-.75,1.13-.12.04-.25.08-.38.13q.03.12.06.24c.08.36.17.72.25,1.08q.04.18.09.37c.03.12.06.24.08.37.03.11.05.22.08.33.09.45.14.91.2,1.37h-3.5q.14-1.53.32-2.16c.14-.5.23-.94.18-1.46q-.18-.29-.43-.52c-.54-.56-.63-1.01-.62-1.77.09-.57.41-.92.8-1.33.09-.1.18-.21.27-.31.59-.31,1.21-.22,1.86-.19Z"/>
  <path class="cls-111" d="M32.04,18.98c.14,0,.28,0,.43,0,.32.01.58.05.89.14v.25h-1.38v5.63h-3.13c-.04-.83-.08-1.65-.13-2.5-.04.91-.08,1.82-.13,2.75h7q-.06-2.01-.25-4c.94,1.41.38,1.28.38,4.13h-7.25q0-4.18.94-5.17c.1-.1.19-.21.29-.32.41-.4.56-.51,1.14-.51v-.25c.42-.14.74-.14,1.18-.14Z"/>
  <path class="cls-72" d="M47.61,37.25h11.13v.13h-11v.25h1.38c-.47,1.89-1.55,3.63-2.62,5.23-.27.41-.51.84-.76,1.27q6.25.06,12.63.13v.13h-14.88c.22-.65.34-.92.75-1.42,1.26-1.63,2.33-3.43,3.13-5.33h.25v-.38Z"/>
  <path class="cls-133" d="M.6,7.25h.13c-.02.22-.04.45-.05.67-.01.12-.02.25-.03.38q-.04.33-.16.58c-.01.25-.02.51-.02.76,0,.16,0,.33,0,.5,0,.18,0,.37,0,.55,0,.19,0,.39,0,.58,0,.54,0,1.07,0,1.61,0,.58,0,1.15,0,1.73,0,1,0,2,0,3,0,1.45,0,2.89,0,4.34,0,2.34,0,4.69,0,7.03,0,2.28,0,4.56,0,6.83,0,.14,0,.28,0,.43,0,.7,0,1.41,0,2.11,0,5.84,0,11.69,0,17.53-.38-.65-.39-1.33-.39-2.06,0-.16,0-.32,0-.49,0-.18,0-.36,0-.54,0-.19,0-.38,0-.57,0-.52,0-1.05,0-1.57,0-.56,0-1.13,0-1.69,0-1.36,0-2.73,0-4.09,0-.64,0-1.28,0-1.93,0-2.13,0-4.27,0-6.4,0-.55,0-1.11,0-1.66,0-.14,0-.28,0-.42,0-2.23,0-4.46,0-6.69,0-2.29,0-4.58,0-6.87,0-1.29,0-2.57,0-3.86,0-1.09,0-2.19,0-3.28,0-.56,0-1.12,0-1.68,0-.51,0-1.02,0-1.53,0-.18,0-.37,0-.55,0-1.02.03-1.85.56-2.74Z"/>
  <path class="cls-92" d="M54.26,36.22c.49,0,.99,0,1.48,0,.32,0,.63,0,.95,0q.22,0,.44,0t.41,0c.12,0,.24,0,.36,0,.52.07.84.31,1.21.67v.5h-.38v-.25h-9.75c.17-.08.33-.17.5-.25.04-.12.08-.25.13-.38h-1.38v-.13c2.01-.11,4.01-.15,6.02-.16Z"/>
  <path class="cls-10" d="M6.54,36.46q.14,0,.29,0c.31,0,.63,0,.94,0,.22,0,.44,0,.65,0,.57,0,1.15,0,1.72,0,.59,0,1.17,0,1.76,0,1.15,0,2.3.01,3.45.02v.13c-.25.04-.5.08-.75.13v.38q-.17,0-.34,0c-1.07,0-2.14.02-3.21.03-.55,0-1.1.01-1.65.02-.53,0-1.06.01-1.59.02-.2,0-.4,0-.61,0-.28,0-.57,0-.85,0q-.24,0-.49,0-.41,0-.77.28c.04-.32.08-.56.26-.83.37-.26.74-.22,1.18-.21Z"/>
  <path class="cls-154" d="M4.85,20.75h.13c0,.07,0,.15,0,.22.01.77.02,1.54.04,2.31,0,.29,0,.58.01.86,0,.41.01.83.02,1.24,0,.13,0,.26,0,.39,0,.12,0,.24,0,.36,0,.11,0,.21,0,.32.04.32.11.52.28.79.44.29.62.28,1.14.29q.24,0,.48,0c.17,0,.34,0,.52,0,.18,0,.35,0,.53,0,.46,0,.93.01,1.39.02.47,0,.95.01,1.42.02.93.01,1.85.02,2.78.03-.04.17-.08.33-.13.5-.09,0-.18,0-.28,0-.86,0-1.73.02-2.59.03-.44,0-.89.01-1.33.01-.51,0-1.02.01-1.53.02q-.24,0-.48,0t-.45,0-.39,0c-.37.06-.48.14-.7.42-.12-.04-.25-.08-.38-.13.17-.17.33-.33.5-.5-.07-.06-.14-.12-.21-.18-.09-.08-.18-.16-.28-.24-.09-.08-.18-.15-.28-.23-.28-.28-.35-.48-.37-.88,0-.11,0-.21,0-.32,0-.12,0-.24,0-.36,0-.13,0-.26.01-.39q0-.2,0-.4c0-.42.02-.85.03-1.27,0-.29.01-.57.02-.86.02-.7.03-1.41.05-2.11Z"/>
  <path class="cls-121" d="M7.23,39.63c.33,0,.66-.01.98-.02.09,0,.19,0,.28,0,.24,0,.49,0,.73.02q.25.25.28.68c0,.17,0,.34,0,.52,0,.09,0,.17,0,.26q0,.65-.15.79c-.33.01-.67.02-1,.02q-.14,0-.28,0-.7,0-.84-.14c0-.36-.01-.71,0-1.07,0-.1,0-.2,0-.31,0-.25,0-.5,0-.75Z"/>
  <path class="cls-113" d="M51.36,15.25h.25v4.13c.47,0,.94-.01,1.42-.02.46,0,.91,0,1.37,0,.32,0,.63,0,.95-.01.45,0,.91,0,1.36-.01.14,0,.28,0,.43,0,.75,0,1.28,0,1.85.56.56.73.57,1.35.55,2.25,0,.13,0,.26,0,.39,0,.41,0,.82-.02,1.23,0,.28,0,.56,0,.84,0,.68-.01,1.36-.02,2.05q-.12.06-.25.13c0-.08,0-.15,0-.23,0-.78,0-1.57-.02-2.35,0-.29,0-.58,0-.88,0-.42,0-.84-.01-1.26,0-.13,0-.26,0-.39q-.01-.79-.38-1.47c-.46-.41-.78-.44-1.37-.45-.14,0-.27,0-.41,0q-.22,0-.44,0c-.15,0-.3,0-.45,0-.48,0-.96-.02-1.43-.02-.32,0-.65-.01-.97-.02-.79-.01-1.59-.03-2.38-.04v-4.38Z"/>
  <path class="cls-24" d="M7.23,31.25h2.13v2.13q-.49,0-.99,0c-.1,0-.21,0-.31,0-.23,0-.46,0-.69-.01q-.13-.13-.14-.57c0-.19,0-.37,0-.56,0-.33,0-.65,0-.99Z"/>
  <path class="cls-118" d="M7.35,22.75h2.13c0,.33,0,.65,0,.99,0,.1,0,.21,0,.31,0,.23,0,.46-.01.69q-.13.13-.57.14c-.19,0-.37,0-.56,0-.33,0-.65,0-.99,0v-2.13Z"/>
  <path class="cls-168" d="M12.73,14.75h.25c-.04,1.65-.08,3.3-.13,5-2.48.04-4.95.08-7.5.13q.25-.38.63-.5c.21-.01.43-.01.64-.01.13,0,.26,0,.39,0,.14,0,.28,0,.43,0,.14,0,.29,0,.44,0,.46,0,.92,0,1.38,0,.31,0,.62,0,.93,0,.76,0,1.53,0,2.29,0q0-.19,0-.38c0-.47,0-.94,0-1.41,0-.2,0-.41,0-.61,0-.29,0-.59,0-.88,0-.09,0-.18,0-.28,0-.47.01-.67.28-1.07Z"/>
  <path class="cls-151" d="M5.23,43.63c.07.04.14.08.22.12.3.14.49.16.82.16.11,0,.21,0,.32,0,.12,0,.23,0,.35,0q.18,0,.37,0c.41,0,.81,0,1.22,0,.28,0,.56,0,.85,0,.74,0,1.49.01,2.23.02.76,0,1.52.01,2.28.02,1.49.01,2.98.02,4.46.03q.06.12.13.25c-1.65,0-3.31.02-4.96.02-.77,0-1.54,0-2.3,0-.74,0-1.48,0-2.22,0-.28,0-.57,0-.85,0-.4,0-.79,0-1.19,0-.12,0-.23,0-.36,0q-.79,0-1.2-.22-.17-.2-.17-.45Z"/>
  <path class="cls-15" d="M40.73,26.37h.25c.44,1.04.43,2.03.42,3.14,0,.19,0,.39,0,.58,0,.41,0,.81,0,1.22,0,.52,0,1.04,0,1.55,0,.4,0,.8,0,1.2,0,.19,0,.38,0,.57,0,.98-.02,1.9-.29,2.85h-.13c0-.13,0-.26,0-.4-.01-1.24-.03-2.49-.04-3.73,0-.64-.01-1.28-.02-1.92,0-.62-.01-1.23-.02-1.85,0-.24,0-.47,0-.71,0-.33,0-.66-.01-.99,0-.1,0-.2,0-.3,0-.43-.03-.82-.15-1.24Z"/>
  <path class="cls-188" d="M54.99,24.37c.31,0,.62,0,.93,0,.09,0,.18,0,.27,0,.23,0,.45,0,.68.01q.13.13.14.41c0,.11,0,.23,0,.34q0,.17,0,.34t-.14.41c-.29.01-.58.02-.88.02-.16,0-.32,0-.48,0q-.39-.02-.52-.14c0-.23-.01-.46,0-.7,0-.13,0-.25,0-.38,0-.1,0-.2,0-.3Z"/>
  <path class="cls-45" d="M5.73,19.87q-.23.48-.38.63c-.01.2-.02.4-.02.61,0,.13,0,.26,0,.39,0,.14,0,.28,0,.43,0,.14,0,.29,0,.43,0,.3,0,.61,0,.91,0,.47,0,.93-.01,1.4,0,.29,0,.59,0,.88,0,.14,0,.28,0,.42,0,.13,0,.26,0,.39q0,.17,0,.35t.27.52c.37.19.63.2,1.05.21.15,0,.31,0,.46,0,.16,0,.33,0,.5,0,.17,0,.34,0,.51,0,.45,0,.89,0,1.34.01.46,0,.91,0,1.37.02.9.01,1.79.02,2.69.03v.13c-1,.01-2,.02-3,.03-.46,0-.93,0-1.39.01-.45,0-.9,0-1.34,0-.17,0-.34,0-.51,0-.24,0-.48,0-.72,0q-.2,0-.41,0c-.46-.07-.67-.23-.99-.56-.12-.36-.14-.6-.15-.98,0-.12,0-.25,0-.37,0-.13,0-.27,0-.4,0-.14,0-.27,0-.41,0-.29,0-.58,0-.87,0-.44,0-.89-.01-1.33,0-.28,0-.56,0-.84,0-.13,0-.26,0-.4q0-.92.3-1.42.26-.22.51-.22Z"/>
  <path class="cls-94" d="M55.11,32.75h1.88q.01,1.06,0,1.38-.13.13-.52.14-.24,0-.49,0c-.16,0-.32,0-.49,0-.12,0-.25,0-.38,0v-1.5Z"/>
  <path class="cls-54" d="M28.48,25.5c-.04.12-.08.25-.13.38-.27.04-.54.07-.8.11-.08.01-.17.02-.25.04-.46.06-.93.12-1.39.16-.09,0-.19.02-.29.03-.18.02-.37.03-.55.04-.47.04-.71.12-1.08.43-.28.35-.4.65-.51,1.08-.14-.42-.11-.66.03-1.07.03-.1.06-.19.1-.29.14-.3.23-.45.5-.64,1.41-.36,2.93-.28,4.38-.25Z"/>
  <path class="cls-90" d="M55.36,41h2q.01.96,0,1.25-.13.13-.55.14c-.17,0-.35,0-.52,0q-.13,0-.27,0c-.22,0-.44,0-.66,0v-1.38Z"/>
  <path class="cls-137" d="M5.98,28.87h7.75c.27.81.42,1.27.46,2.07,0,.15.02.3.02.46q0,.17.01.34c-.33-.38-.44-.68-.52-1.17q-.03-.17-.06-.35-.04-.36-.04-1.11h-7.75l.13-.25Z"/>
  <path class="cls-132" d="M28.73,22.37h.13v2.63h6.38v.25h-6.63q0-2.75.13-2.88Z"/>
  <path class="cls-187" d="M28.48,25.37c1.13,0,2.25,0,3.38,0,.52,0,1.05,0,1.57,0,.51,0,1.01,0,1.52,0,.19,0,.38,0,.58,0,.27,0,.54,0,.81,0,.15,0,.31,0,.47,0,.45.02.87.07,1.31.14v.13c-1.79.12-3.58.14-5.38.13v-.13c-1.4-.04-2.81-.08-4.25-.13v-.13Z"/>
  <path class="cls-109" d="M40.48,26.62l.25.13c0,1.4.02,2.8.02,4.19,0,.65,0,1.3,0,1.95,0,.63,0,1.25,0,1.88,0,.24,0,.48,0,.72,0,.33,0,.67,0,1,0,.1,0,.2,0,.3q0,.28-.05.71-.19.12-.38.25c0-.07.02-.14.03-.21.08-.66.12-1.3.11-1.96,0-.1,0-.2,0-.3,0-.32,0-.64,0-.96,0-.22,0-.45,0-.67,0-.58,0-1.17,0-1.75,0-.6,0-1.19,0-1.79,0-1.17,0-2.33,0-3.5Z"/>
  <path class="cls-1" d="M7.6,23.12h1.5v1.38h-1.5v-1.38Z"/>
  <path class="cls-23" d="M26.23,20c0,.17.01.34.02.51,0,.09,0,.19,0,.29q-.02.33-.15.69c-.23.75-.19,1.54-.21,2.32,0,.16,0,.33-.01.49-.01.4-.02.8-.03,1.2h-.25c-.01-.68-.02-1.37-.03-2.05,0-.23,0-.46-.01-.7,0-.33,0-.67-.01-1,0-.1,0-.21,0-.31,0-.51.02-.75.3-1.2q.25-.24.38-.24Z"/>
  <path class="cls-28" d="M28.73,17c.12.04.25.08.38.13v.25q-.19.16-.45.34c-.88.64-1.52,1.34-2.05,2.29l-.25-.13c-.02-.84.39-1.25.96-1.84q.82-.78,1.42-.78v-.25Z"/>
  <path class="cls-67" d="M7.1,39.38c.37-.01.73-.02,1.1-.02.1,0,.21,0,.32,0q.15,0,.3,0t.28,0c.32.06.43.15.62.42.03.35.04.67.02,1.02q0,.14,0,.28c0,.23-.01.46-.02.69h-.13v-1.88c-.47-.16-.91-.14-1.4-.13-.32,0-.64,0-.98,0-.04.66-.08,1.32-.13,2h-.25v-2.13h.25v-.25Z"/>
  <path class="cls-53" d="M51.11,23.37h.13c.02,1.31,0,2.59-.25,3.88.45.08.91.17,1.38.25v.13h-1.75c-.03-.95.09-1.83.25-2.76.02-.14.05-.29.07-.44.06-.35.12-.7.18-1.06Z"/>
  <path class="cls-120" d="M35.11,21.25h.25c.3.83.28,1.62.27,2.49,0,.15,0,.29,0,.44,0,.36,0,.71-.01,1.07h-.38l-.13-4Z"/>
  <path class="cls-129" d="M58.86,20.25l.25.25q-.05.27-.13.5-.06-.06-.13-.13c-.24-.02-.48-.02-.71-.03-.15,0-.31,0-.46,0-.17,0-.34,0-.5,0-.17,0-.34,0-.51,0-.45,0-.9-.01-1.35-.02-.46,0-.92-.01-1.38-.02-.9-.01-1.8-.03-2.7-.04v1.63h-.13v-1.75h7.75v-.38Z"/>
  <path class="cls-159" d="M31.11,16.21c.12,0,.24,0,.36,0q.18,0,.37,0c.12,0,.24,0,.37,0,.68,0,1.25.06,1.9.28q-.44.26-.74.2c-.09-.02-.17-.05-.26-.07-.37-.03-.74-.02-1.12-.02-.1,0-.2,0-.3,0-.55,0-.95.04-1.46.28q-.41.02-.75,0c.45-.52.96-.66,1.63-.66Z"/>
  <path class="cls-13" d="M6.1,28.12l.25.13c-.08.08-.17.17-.25.25q3.77.06,7.63.13v.13c-2.68.04-5.36.08-8.13.13q.25-.5.5-.75Z"/>
  <path class="cls-180" d="M18.11,15.12c-.1.04-.19.07-.29.11q-.35.14-.71.39c-.97.28-1.88.25-2.88.13v-.13q.11-.02.22-.03c.33-.05.65-.09.98-.14.11-.02.22-.03.34-.05.5-.07.98-.15,1.47-.3.37-.11.53-.12.88.02Z"/>
  <path class="cls-37" d="M32.73,28.62v.25q.1.01.2.02c.44.15.7.42,1.05.73l-.13.25c-.12-.04-.25-.08-.38-.13v-.25h-.25v-.25c-.09,0-.18-.02-.27-.02q-.18-.02-.37-.03t-.38-.03q-.35-.04-.79-.13-.32-.07-.55.15c-.05.06-.09.13-.14.2l-.25-.13c.67-.75,1.28-.7,2.25-.63Z"/>
  <path class="cls-33" d="M35.86,40c-.08.06-.16.11-.24.17q-.27.18-.38.45c-.83.36-1.6.57-2.5.5.18-.35.37-.36.73-.48.63-.22,1.25-.45,1.86-.69q.28-.08.53.05Z"/>
  <path class="cls-98" d="M38.11,22h.13v3.38c.45-.04.91-.08,1.38-.13q.38.15.65.37c.09.07.18.14.28.21.07.06.13.11.2.17-.08.12-.17.25-.25.38-.06-.08-.13-.16-.19-.24-.4-.34-.78-.4-1.28-.48-.3-.05-.6-.1-.91-.16v-3.5Z"/>
  <path class="cls-65" d="M12.6,28.87h1.13c.38.96.46,1.85.5,2.88-.61-.71-.67-1.72-.63-2.63h-1v-.25Z"/>
  <path class="cls-134" d="M24.86,25.75h1.13v.25l.5.13c-.15.01-.29.02-.44.03-.19.02-.39.04-.58.05-.1,0-.19.01-.29.02-.52.05-.76.1-1.18.44-.27.35-.39.65-.5,1.08-.14-.34-.12-.57-.09-.95q.21-.43.51-.57c.32-.09.63-.17.95-.24v-.25Z"/>
  <path class="cls-161" d="M23.23,44.75c.44.18.54.33.75.75.08.04.15.08.23.11.3.15.48.32.72.57.07.07.14.15.22.23q.1.11.21.22c.07.06.14.13.21.19q.17.18.29.56c-.39-.17-.64-.37-.93-.67-.25-.26-.49-.49-.77-.71-.37-.3-.63-.61-.92-.99v-.25Z"/>
  <path class="cls-61" d="M36.61,10.5c.52.08,1.01.19,1.52.35.13.04.25.08.38.12.38.16.58.35.85.65-.34.14-.49.13-.85.01-.13-.06-.25-.11-.38-.17-.13-.06-.26-.12-.4-.18-.38-.17-.75-.35-1.12-.54v-.25Z"/>
  <path class="cls-112" d="M1.98,59.5l.63.63q.14.12.27.25t.35.58c.15.36.28.38.63.55q.09.27.13.5h-.25v-.25q-.12-.01-.23-.02c-.09-.03-.18-.07-.27-.1-.09-.21-.17-.41-.25-.63-.12-.04-.25-.08-.38-.13v-.25c-.12-.04-.25-.08-.38-.13v-.38h-.25q-.07-.24-.13-.5l.13-.13Z"/>
  <path class="cls-6" d="M14.11,30.62c.29.44.38.86.5,1.37.12.53.25,1.02.5,1.51q-.05.28-.13.5l-.13-.25c-.08.04-.17.08-.25.13-.02-.08-.03-.15-.05-.23-.02-.1-.04-.2-.06-.3-.02-.1-.04-.2-.06-.3q-.07-.29-.21-.53c-.17-.38-.14-.7-.13-1.11q0-.22,0-.44c0-.11,0-.22,0-.34Z"/>
  <path class="cls-101" d="M35.48,51.13v.38c-.66.52-1.45.89-2.25,1.13q-.28-.05-.5-.13c.41-.23.82-.46,1.23-.69.12-.07.23-.13.36-.2.11-.06.22-.12.34-.19.1-.06.21-.12.31-.17q.26-.13.51-.13Z"/>
  <path class="cls-179" d="M4.98,20.12c.04.12.08.25.13.38-.04.08-.08.17-.13.25-.01.19-.02.39-.03.58,0,.12,0,.24,0,.36,0,.13,0,.26,0,.39,0,.13,0,.27,0,.4,0,.43-.02.85-.02,1.28,0,.29-.01.58-.02.86-.01.71-.03,1.41-.04,2.12h-.13c0-.9-.01-1.81-.01-2.71,0-.31,0-.62,0-.92,0-.44,0-.88,0-1.32,0-.14,0-.28,0-.42,0-.13,0-.26,0-.39,0-.11,0-.23,0-.34q.03-.27.28-.52Z"/>
  <path class="cls-174" d="M3.85,1.87l.25.13c-.12.04-.25.08-.38.13-.04.12-.08.25-.13.38h-.25c-.03.11-.06.22-.09.33-.2.51-.41.78-.79,1.17h-.38l-.13.38h-.25l-.13.25v-.38l.25-.13.13-.38h.25l.13-.38h.25l.13-.38h.25c.03-.09.06-.19.09-.28.19-.41.42-.58.79-.84Z"/>
  <path class="cls-177" d="M4.98,28.87h.25c-.04.1-.08.2-.12.3-.16.58-.17,1.11-.18,1.7v.36c-.01.38-.02.75-.03,1.13,0,.26,0,.51-.01.77-.01.62-.02,1.25-.03,1.87h-.13c0-.81-.01-1.62-.01-2.44,0-.28,0-.55,0-.83,0-.4,0-.79,0-1.19,0-.12,0-.25,0-.38,0-.12,0-.23,0-.35,0-.1,0-.2,0-.31q.03-.26.28-.64Z"/>
  <path class="cls-105" d="M9.57,31.12c.05.09.11.17.16.26-.04.12-.08.25-.13.38-.03.26-.05.52-.07.77-.01.14-.02.27-.03.41q-.01.16-.02.31h-.13v-2h-2c.69-.34,1.55-.61,2.21-.13Z"/>
  <path class="cls-64" d="M63.86,54.63h.13c-.02.28-.04.56-.05.84-.01.16-.02.31-.03.47-.03.37-.08.71-.16,1.07h-.25c-.04.37-.08.74-.13,1.13h-.25l-.13-.75c.12-.04.25-.08.38-.13l-.13-.5c.12-.04.25-.08.38-.13,0-.11.02-.23.02-.34.01-.15.02-.29.03-.45.01-.15.02-.29.03-.44q.04-.39.16-.77Z"/>
  <path class="cls-96" d="M36.48,48.5c-.14.42-.2.46-.56.69-.09.06-.18.11-.27.17q-.14.08-.28.17c-.09.06-.18.12-.28.18q-.69.43-1.11.43v-.25c.12-.07.24-.14.37-.21.16-.09.32-.18.48-.27.08-.04.16-.09.24-.14.33-.19.65-.38.96-.61q.21-.15.46-.15Z"/>
  <path class="cls-8" d="M56.49,24.5h.38v1.13h-1.75v-.25h1.38v-.88Z"/>
  <path class="cls-71" d="M41.11,44.25c.04.12.08.25.13.38-.29.29-.57.58-.86.88q-.12.13-.25.25c-.08.08-.16.16-.24.24-.07.07-.14.15-.22.22q-.19.16-.44.16c.17-.37.34-.62.63-.9.07-.07.15-.14.22-.22.08-.07.15-.15.23-.22.08-.08.15-.15.23-.23.19-.19.38-.37.57-.55Z"/>
  <path class="cls-104" d="M12.73,14.75h.25c-.02.07-.04.14-.06.21-.07.33-.09.63-.1.97,0,.13-.01.26-.02.39q0,.2-.01.4c0,.13-.01.27-.02.41-.01.33-.03.67-.04,1h-.13c-.11-.68-.14-1.35-.15-2.04,0-.09,0-.18,0-.27,0-.47.01-.67.28-1.07Z"/>
  <path class="cls-5" d="M26.11,25.5h2.38c-.04.12-.08.25-.13.38-.41.04-.83.08-1.25.13-.04-.12-.08-.25-.13-.38h-.88v-.13Z"/>
  <path class="cls-140" d="M32.98,41q.28.11.5.25c-.71.39-1.21.57-2.02.34-.2-.07-.41-.14-.61-.22.04-.08.08-.17.13-.25q.15.02.31.04c.13.01.27.03.41.04q.2.02.4.04.37.03.64-.13c.08-.04.15-.07.23-.11Z"/>
  <path class="cls-85" d="M33.23,35l.25.13c.08.37.17.74.25,1.13-.99-.04-1.98-.08-3-.13v-.13h2.63l-.13-1Z"/>
  <path class="cls-40" d="M41.61,12.25c.67.05,1.25.11,1.88.38.29.05.58.09.88.13-.04.08-.08.17-.13.25-.94-.06-1.74-.3-2.63-.63v-.13Z"/>
  <path class="cls-46" d="M62.99,58.13c.15.45.07.58-.13,1h-.25c-.04.21-.08.41-.13.63h-.63c.09-.21.19-.41.29-.62.05-.11.11-.23.16-.35q.17-.29.55-.41l.13-.25Z"/>
  <path class="cls-143" d="M47.99,36.5h1.63c-.04.17-.08.33-.13.5-.5-.04-.99-.08-1.5-.13v-.38Z"/>
  <path class="cls-125" d="M6.85,63.5c.65-.03,1.14.05,1.75.25v.25q-1.18.02-1.75-.13v-.38Z"/>
  <path class="cls-4" d="M29.98,31.75l.63.63c.07.05.14.11.21.16q.16.21.17.55c-.02.12-.03.25-.05.37q-.02.19-.05.38c-.01.09-.03.19-.04.29h-.13c0-.08,0-.17,0-.25q-.03-.75-.44-1.36c-.1-.09-.2-.18-.3-.27v-.5Z"/>
  <path class="cls-156" d="M30.48,16.37q-.43.19-.88.38c.12.08.25.17.38.25q-.59.38-.88.38c-.04-.21-.08-.41-.13-.63.16-.09.31-.17.47-.26q.13-.07.26-.15c.31-.11.46-.08.77.03Z"/>
  <path class="cls-157" d="M31.61,16.25q1.7-.05,2.5.25c-.49.35-.97.23-1.53.14-.09-.01-.19-.03-.28-.04-.23-.03-.46-.07-.69-.1v-.25Z"/>
  <path class="cls-56" d="M25.48,49.13c.49.17.87.4,1.29.7.11.08.22.16.33.24.08.06.17.12.25.18l-.38.25c-.25-.18-.5-.36-.75-.55-.07-.05-.14-.1-.22-.16-.18-.13-.36-.28-.53-.42v-.25Z"/>
  <path class="cls-124" d="M27.98,17.5l.25.13c-.1.08-.2.15-.3.23q-.33.23-.45.52h-.25c-.03.07-.06.13-.09.2-.19.37-.42.7-.66,1.05l-.13-.38q.18-.29.45-.62c.09-.11.17-.21.26-.32.28-.31.58-.56.91-.81Z"/>
  <path class="cls-169" d="M14.73,33.5c.3.36.46.68.59,1.13.03.11.07.21.1.32q.06.29-.07.67c-.41-.72-.59-1.3-.63-2.13Z"/>
  <path class="cls-17" d="M31.36,19.25c.28,0,.56-.01.84-.02q.23,0,.47,0c.42.02.69.09,1.07.27-.04.12-.08.25-.13.38-.09-.04-.17-.08-.26-.12-.41-.15-.79-.21-1.22-.27q-.22-.03-.44-.06c-.11-.02-.22-.03-.33-.05v-.13Z"/>
  <path class="cls-185" d="M15.36,34.75c.27.41.37.78.5,1.25-.54-.04-1.07-.08-1.63-.13v-.25h1.25c-.04-.29-.08-.58-.13-.88Z"/>
  <path class="cls-58" d="M24.48,13.62c-.8.36-1.5.57-2.38.63.38-.32.71-.47,1.19-.59.12-.03.23-.07.36-.1.33-.06.52-.04.83.07Z"/>
  <path class="cls-36" d="M32.13,8.47c.11,0,.23,0,.34.01q.13,0,.26.01v.25c.08.02.16.03.24.05q.13.04.26.08c.04.08.08.17.13.25-.12-.04-.23-.08-.35-.13-.62-.18-1.25-.15-1.9-.13.31-.4.53-.42,1.02-.4Z"/>
  <path class="cls-47" d="M17.23,39c.28.36.54.72.75,1.13l-.13.25c-.55-.18-.61-.49-.88-1v-.25l.25-.13Z"/>
  <path class="cls-127" d="M14.98,26.5l.25.13c.16.62.14,1.24.13,1.88h-.25c-.14-.67-.14-1.32-.13-2Z"/>
  <path class="cls-11" d="M28.98,12q-.83.38-1.25.38v.25c-.33.04-.66.08-1,.13.31-.36.61-.5,1.05-.66.12-.04.24-.09.36-.13.34-.09.51-.08.84.04Z"/>
  <path class="cls-107" d="M30.61,50.63h.5v.25c.54.04,1.07.08,1.63.13q-.13.25-.43.37c-.66.01-1.13-.3-1.7-.62v-.13Z"/>
  <path class="cls-77" d="M27.23,50.5c.5.07.82.22,1.23.51.1.07.2.14.3.21.07.05.15.11.22.16l-.13.25c-.25-.14-.5-.28-.74-.42q-.21-.12-.42-.24t-.47-.47Z"/>
  <path class="cls-9" d="M28.23,49.13c.62.06,1.01.23,1.5.63v.38c-.45-.17-.85-.35-1.25-.63v-.25l-.25-.13Z"/>
  <path class="cls-150" d="M20.23,12.87v.25c-.65.18-1.2.28-1.88.25v-.25c.2-.04.39-.08.59-.13.11-.02.22-.05.33-.07.33-.05.63-.06.96-.05Z"/>
  <path class="cls-164" d="M5.89,35.96c.11,0,.22.02.33.02.12,0,.23.01.36.02.12.01.24.02.37.03.12,0,.25.02.37.02.31.02.61.04.91.07v.13q-.11,0-.21,0c-.32.01-.64.03-.96.04-.11,0-.22,0-.34.01-.11,0-.21,0-.32.01q-.15,0-.3.01t-.5.29c-.12-.04-.25-.08-.38-.13q.29-.49.66-.55Z"/>
  <path class="cls-59" d="M27.23,18.37h.25c-.08.44-.26.73-.51,1.09-.07.1-.14.2-.21.3-.05.08-.11.15-.16.23-.08-.04-.17-.08-.25-.13.25-.53.55-1.01.88-1.5Z"/>
  <path class="cls-182" d="M26.36,12.75c-.21.08-.41.17-.63.25v.25q-.55.26-.91.2c-.07-.03-.14-.05-.21-.08h.25c.04-.12.08-.25.13-.38q.25-.12.55-.22c.1-.03.2-.07.3-.1q.27-.06.52.07Z"/>
  <path class="cls-79" d="M61.24,3l.25.13v.25c.12.04.25.08.38.13v.25h.25c.04.12.08.25.13.38l.25.13-.13.38v-.25c-.12-.04-.25-.08-.38-.13v-.25c-.17-.04-.33-.08-.5-.13-.08-.29-.17-.58-.25-.88Z"/>
  <path class="cls-116" d="M55.36,41.13h1.88v.25c-.58.04-1.16.08-1.75.13-.04-.12-.08-.25-.13-.38Z"/>
  <path class="cls-80" d="M18.48,38c.41.35.57.59.63,1.13h.25c.04.21.08.41.13.63h-.25c-.13-.22-.25-.44-.38-.66-.07-.12-.14-.25-.21-.37q-.16-.34-.16-.71Z"/>
  <path class="cls-51" d="M48.99,26.12h.13c.03.72.03,1.33-.25,2h-.13c-.03-.72.02-1.31.25-2Z"/>
  <path class="cls-39" d="M48.99,25.5c.12.04.25.08.38.13-.02.32-.04.64-.05.95q0,.13-.01.27c-.03.52-.08,1.02-.18,1.53h-.13v-2.88Z"/>
  <path class="cls-172" d="M.6,7.25h.13c-.01.22-.02.44-.04.66,0,.12-.01.25-.02.37-.07.37-.15.49-.44.71-.04-.71.07-1.13.38-1.75Z"/>
  <path class="cls-62" d="M16.36,37.75c.17.16.34.33.5.5v.25h.25c.04.21.08.41.13.63h-.38c-.08-.18-.17-.36-.25-.55-.05-.1-.09-.2-.14-.31q-.11-.27-.11-.52Z"/>
  <path class="cls-152" d="M14.36,32.38q.61.73.75,1.13-.05.28-.13.5l-.13-.25q-.12.06-.25.13c-.08-.5-.17-.99-.25-1.5Z"/>
  <path class="cls-148" d="M45.23,41.63c0,.4-.08.64-.25,1q-.12.06-.25.13-.08.25-.13.5c-.17.04-.33.08-.5.13.19-.42.44-.78.7-1.16.08-.11.16-.22.24-.34q.09-.13.18-.26Z"/>
  <path class="cls-20" d="M34.23,40.38l.25.13c-.17.04-.33.08-.5.13v.38c-.47.1-.79.13-1.25,0,.24-.11.49-.21.73-.32.14-.06.27-.12.41-.18.12-.04.23-.08.35-.12Z"/>
  <path class="cls-117" d="M26.61,39.25c.22.06.44.11.66.17q.18.05.37.1c.31.09.57.2.85.36-.43.22-.91.09-1.38,0q-.32-.18-.5-.38v-.25Z"/>
  <path class="cls-68" d="M37.98,38.63q.34.04.63.13c-.17.04-.33.08-.5.13v.25q-.8.38-1.18.34c-.06-.03-.13-.06-.2-.09h.25v-.38q.14.01.29.02.34.01.52-.22c.06-.06.12-.12.19-.18Z"/>
  <path class="cls-149" d="M5.73,19.87q-.23.48-.38.63c-.02.17-.03.34-.04.5q0,.15-.02.31c0,.11,0,.21-.01.32,0,.11-.01.21-.02.32-.01.26-.03.53-.04.79h-.13c-.01-.39-.02-.77-.02-1.16,0-.11,0-.22,0-.33q0-.81.21-1.21.2-.17.45-.17Z"/>
  <path class="cls-91" d="M26.11,20h.13c0,.18.01.36.02.54,0,.1,0,.2,0,.3q-.02.28-.27.66c-.08-.04-.17-.08-.25-.13q.09-.95.38-1.38Z"/>
  <path class="cls-89" d="M58.86,62.63v.5c-.43.14-.8.13-1.25.13.34-.39.73-.63,1.25-.63Z"/>
  <path class="cls-138" d="M49.86,14.12c.39-.06.66-.06.99.16.23.19.44.37.63.59v.25c-.43-.19-.76-.46-1.13-.75-.16-.09-.33-.17-.5-.25Z"/>
  <path class="cls-83" d="M17.11,13.62l-.13.25c-.59.14-1.15.14-1.75.13.5-.5,1.21-.39,1.88-.38Z"/>
  <path class="cls-84" d="M63.24,6.75h.25c.2.7.28,1.28.25,2-.36-.62-.5-1.29-.5-2Z"/>
  <path class="cls-146" d="M27.36,39.75c.62.06,1.08.19,1.63.5-.32.12-.47.14-.8.03-.1-.05-.2-.1-.3-.15-.1-.05-.2-.1-.3-.14-.08-.04-.15-.08-.23-.11v-.13Z"/>
  <path class="cls-70" d="M34.11,31.37l.25.5q-.25.37-.5.75c-.17-.04-.33-.08-.5-.13.25-.37.5-.74.75-1.13Z"/>
  <path class="cls-44" d="M30.23,19.62c.12.04.25.08.38.13-.12.04-.25.08-.38.13-.09.17-.17.33-.25.5-.12.08-.25.17-.38.25-.04-.17-.08-.33-.13-.5q.35-.26.75-.5Z"/>
  <path class="cls-76" d="M28.11,10.37c-.58.32-1.08.56-1.75.63.27-.3.5-.45.88-.59q.13-.05.26-.1t.62.07Z"/>
  <path class="cls-176" d="M4.48,1.62l.25.13c-.45.41-.91.83-1.38,1.25l-.13-.25c.36-.5.73-.8,1.25-1.13Z"/>
  <path class="cls-139" d="M44.11,40.38l.13.25c-.12.19-.23.38-.35.56-.07.1-.13.21-.2.32-.07.08-.13.16-.2.25h-.38c.33-.45.66-.91,1-1.38Z"/>
  <path class="cls-52" d="M6.1,28.12l.25.13c-.08.08-.17.17-.25.25.5.04.99.08,1.5.13v.13q-.99.06-2,.13.25-.5.5-.75Z"/>
  <path class="cls-30" d="M56.24,27.5h2.38c-.12.04-.25.08-.38.13v.25c-.66-.08-1.32-.17-2-.25v-.13Z"/>
  <path class="cls-135" d="M58.86,20.25l.25.25q-.05.27-.13.5s-.08-.08-.13-.13c-.36-.03-.71-.05-1.07-.07-.1,0-.2-.01-.31-.02-.25-.01-.5-.03-.75-.04v-.13h2.13v-.38Z"/>
  <path class="cls-170" d="M19.11,15c-.37.24-.59.32-1.01.41q-.16.04-.33.07c-.09,0-.19.01-.28.02-.08-.08-.17-.17-.25-.25.66-.22,1.18-.27,1.88-.25Z"/>
  <path class="cls-173" d="M33.48,8.87v.25h.38v.38c.12.04.25.08.38.13l-.25.13q-.27-.12-.58-.3c-.1-.06-.2-.12-.31-.18-.08-.05-.16-.09-.24-.14q.38-.25.63-.25Z"/>
  <path class="cls-147" d="M30.45,40.31c.1.04.2.07.3.11q.11.04.23.09v.38c-.2-.06-.4-.11-.6-.17-.11-.03-.22-.06-.34-.1q-.31-.11-.69-.36c.43-.15.67-.1,1.09.05Z"/>
  <path class="cls-26" d="M46.23,15.12c.29.01.57.03.86.05.16,0,.32.02.48.03q.41.05.66.3h-1.88c-.04-.12-.08-.25-.13-.38Z"/>
  <path class="cls-66" d="M30.36,50.1c.09.05.18.1.27.15.09.05.18.1.27.14.07.04.14.08.21.11v.13c-.49.05-.7.04-1.11-.25-.09-.08-.18-.17-.27-.25q.38-.13.63-.03Z"/>
  <path class="cls-88" d="M44.23,43.25l.25.13-.75,1c-.08-.04-.17-.08-.25-.13.16-.49.31-.72.75-1Z"/>
  <path class="cls-141" d="M45.27,14.85c.43.02.6.07.96.27-.2.03-.41.05-.61.08q-.17.02-.34.04c-.1,0-.2,0-.3,0-.08-.08-.17-.17-.25-.25q.13-.13.54-.15Z"/>
  <path class="cls-119" d="M18.86,42.13c.4.2.59.31.79.71.03.1.06.19.09.29h-.38q-.5-.66-.5-1Z"/>
  <path class="cls-74" d="M34.98,39.88q-.13.38-.41.53c-.38.1-.6.08-.97-.03q.96-.5,1.38-.5Z"/>
  <path class="cls-110" d="M40.36,38.38c-.46.42-.91.5-1.5.63.26-.39.33-.44.75-.59.09-.03.18-.07.27-.1q.23-.06.48.07Z"/>
  <path class="cls-184" d="M47.24,33.38h.25q-.08.94-.32,1.25c-.06.04-.12.08-.18.13q.11-.95.25-1.38Z"/>
  <path class="cls-42" d="M26.23,19.62l.38.38c-.08.25-.17.5-.25.75-.08-.17-.17-.33-.25-.5q-.12.06-.25.13.23-.61.38-.75Z"/>
  <path class="cls-55" d="M36.23,50.5l.25.13c-.04.12-.08.25-.13.38q-.32.15-.63.25l-.25-.25c.25-.17.5-.33.75-.5Z"/>
  <path class="cls-16" d="M23.36,47.38c.47.07.68.28,1,.63-.04.12-.08.25-.13.38q-.73-.58-.88-1Z"/>
  <path class="cls-71" d="M45.11,38.63q.13.38.03.6c-.13.22-.27.43-.4.65h-.25c.14-.49.29-.86.63-1.25Z"/>
  <path class="cls-99" d="M13.98,30h.13c.04.58.08,1.16.13,1.75q-.38-.5-.38-.82c.02-.11.03-.22.05-.33.01-.11.03-.22.05-.34.01-.08.03-.17.04-.26Z"/>
  <path class="cls-102" d="M30.86,28.75c-.19.48-.5.77-.88,1.13.06-.53.26-1.13.88-1.13Z"/>
  <path class="cls-38" d="M29.23,20.62q.13.25.03.58c-.05.12-.1.25-.15.38q-.07.19-.14.38c-.04.1-.08.19-.11.29h-.13q.07-1.2.5-1.63Z"/>
  <path class="cls-21" d="M20.73,14.62c-.24.24-.42.37-.76.4-.25,0-.5-.01-.74-.02.55-.37.83-.39,1.5-.38Z"/>
  <path class="cls-43" d="M.98,58.13l.25.25.25-.13c.08.37.17.74.25,1.13h-.25q-.5-.83-.5-1.25Z"/>
  <path class="cls-60" d="M63.49,55.13h.13c.02.18.05.36.07.54.01.1.03.2.04.3q.02.28-.11.66h-.25c.04-.5.08-.99.13-1.5Z"/>
  <path class="cls-35" d="M30.48,35c.12.17.25.33.38.5q-.1.41-.25.75h-.25c.04-.41.08-.83.13-1.25Z"/>
  <path class="cls-74" d="M30.23,35.13h.13q.02.83-.13,1.25h-.25c-.02-.49-.01-.82.25-1.25Z"/>
  <path class="cls-18" d="M16.61,33.5l.25.13q.08.29.14.63c.02.11.04.23.06.35.02.09.03.18.05.27-.48-.41-.45-.77-.5-1.38Z"/>
  <path class="cls-93" d="M30.11,30.12h.25c-.04.5-.08.99-.13,1.5-.25-.5-.29-.71-.25-1.25l.13-.25Z"/>
  <path class="cls-115" d="M39.73,25.75c.36.16.61.33.88.63-.04.12-.08.25-.13.38q-.59-.45-.75-.63v-.38Z"/>
  <path class="cls-86" d="M33.86,11.25c.42.07.75.17,1.13.38v.25c-.43-.1-.84-.23-1.25-.38l.13-.25Z"/>
  <path class="cls-114" d="M5.85,62.88h.38v.25q.15.02.3.05.33.08.58.33-.83-.09-1.25-.38v-.25Z"/>
  <path class="cls-162" d="M2.98,61.13q.36.09.75.25.17.33.25.63h-.25v-.25c-.08-.01-.15-.02-.23-.03q-.27-.09-.42-.35c-.03-.08-.06-.16-.09-.24Z"/>
  <path class="cls-178" d="M1.98,59.5c.48.32.49.58.63,1.13-.12-.04-.25-.08-.38-.13v-.38h-.25q-.07-.24-.13-.5l.13-.13Z"/>
  <path class="cls-130" d="M19.73,43l.63.63c-.04.08-.08.17-.13.25q-.24-.09-.5-.25-.1-.26-.13-.5l.13-.13Z"/>
  <path class="cls-34" d="M18.48,41.25c.28.27.52.56.75.88l-.13.25q-.24-.07-.5-.25-.09-.45-.13-.88Z"/>
  <path class="cls-131" d="M29.61,40.63q.82.08,1.12.32c.04.06.09.12.13.18q-.82-.08-1.12-.32c-.04-.06-.09-.12-.13-.18Z"/>
  <path class="cls-145" d="M32.98,32.38l.38.25h-.25c.04.41.08.83.13,1.25h-.25c-.02-.23-.05-.45-.07-.68-.01-.13-.03-.25-.04-.38,0-.1,0-.21-.02-.31l.13-.13Z"/>
  <path class="cls-48" d="M31.86,28.25q.97.09,1.25.38c-.53.18-.84.02-1.38-.13l.13-.25Z"/>
  <path class="cls-136" d="M39.61,25.62q.42.04.88.13c.08.12.17.25.25.38l-.25.25c-.07-.08-.15-.15-.23-.23q-.27-.28-.65-.52Z"/>
  <path class="cls-138" d="M40.48,11.87c.37.04.74.08,1.13.13-.04.08-.08.17-.13.25q-.72.02-1-.13v-.25Z"/>
  <path class="cls-75" d="M31.73,10.25c.49-.05.7-.04,1.11.25q.13.12.27.25-.3.08-.63.13c-.08-.08-.17-.17-.25-.25.04-.08.08-.17.13-.25h-.63v-.13Z"/>
  <path class="cls-55" d="M28.98,10.12h-.38c-.04.12-.08.25-.13.38-.17-.04-.33-.08-.5-.13.04-.12.08-.25.13-.38.42-.18.47-.14.88.13Z"/>
  <path class="cls-128" d="M33.61,40.63q-.68.38-1.05.34-.1-.04-.2-.09.83-.39,1.25-.25Z"/>
  <path class="cls-2" d="M25.86,38.63q.69.08.98.32.07.09.14.18c-.33-.04-.66-.08-1-.13-.04-.12-.08-.25-.13-.38Z"/>
  <path class="cls-78" d="M49.49,32.63h.13c-.04.37-.08.74-.13,1.13h-.25q-.03-.7.25-1.13Z"/>
  <path class="cls-153" d="M48.11,30.75h.13c-.01.19-.03.37-.05.55q-.01.15-.03.31c-.02.09-.03.17-.05.26q-.12.06-.25.13c.02-.18.04-.37.05-.55.01-.1.02-.21.03-.31q.04-.26.16-.38Z"/>
  <path class="cls-167" d="M48.61,28.37h.13v1.13q-.12.06-.25.13c-.14-.51-.1-.78.13-1.25Z"/>
  <path class="cls-57" d="M23.61,11.87v.25c-.33.04-.66.08-1,.13-.04-.08-.08-.17-.13-.25.38-.11.73-.14,1.13-.13Z"/>
  <path class="cls-158" d="M39.23,11.37l1.13.38v.13c-.53.02-.9-.02-1.38-.25l.25-.25Z"/>
  <path class="cls-122" d="M38.61,11.12q.3.1.63.25c.04.12.08.25.13.38-.29-.03-.58-.07-.88-.13l-.13-.25.25-.25Z"/>
  <path class="cls-3" d="M1.48,4.87h.25c-.12.37-.25.74-.38,1.13h-.25c.12-.37.25-.74.38-1.13Z"/>
  <path class="cls-19" d="M60.49,2.25q.38.13.52.38c.03.08.07.16.1.24-.12.04-.25.08-.38.13-.17-.21-.33-.41-.5-.63l.25-.13Z"/>
  <path class="cls-27" d="M7.73.12c-.04.12-.08.25-.13.38-.29-.04-.58-.08-.88-.13V.12C7.11,0,7.35,0,7.73.12Z"/>
  <path class="cls-108" d="M.85,57.38h.25c.08.37.17.74.25,1.13-.41-.41-.44-.57-.5-1.13Z"/>
  <path class="cls-81" d="M42.23,45.5h.38c-.13.33-.21.47-.52.66-.08.03-.15.06-.23.09.07-.36.11-.48.38-.75Z"/>
  <path class="cls-97" d="M20.61,41.5q.31.29.63.63v.38q-.31-.29-.63-.63v-.38Z"/>
  <path class="cls-95" d="M30.98,41.13c.47.05.84.14,1.25.38q-.93.04-1.38-.25l.13-.13Z"/>
  <path class="cls-126" d="M19.48,39.88c.47.16.53.32.75.75v.25c-.47-.16-.53-.32-.75-.75v-.25Z"/>
  <path class="cls-103" d="M37.11,19.37h.25v.25c.12.04.25.08.38.13v1q-.25-.38-.25-.88h-.25l-.13-.5Z"/>
  <path class="cls-12" d="M29.55,16.86c.14,0,.28,0,.43,0q-.59.5-.88.5c-.04-.12-.08-.25-.13-.38q.13-.13.57-.13Z"/>
  <path class="cls-29" d="M44.48,13c.19.01.37.03.55.05.1,0,.21.02.31.03q.13.03.26.05c.04.08.08.17.13.25q-.97-.09-1.25-.38Z"/>
  <path class="cls-49" d="M33.86,9.25c.47.14.81.24,1.13.63-.47-.06-.73-.11-1.13-.38v-.25Z"/>
  <path class="cls-123" d="M7.35.37c-.12.04-.25.08-.38.13v.25q-.3.08-.63.13c-.08-.08-.17-.17-.25-.25.44-.2.77-.28,1.25-.25Z"/>
  <path class="cls-63" d="M60.36,61.38h.5q0,.25-.19.45c-.06.06-.12.11-.19.17-.12-.04-.25-.08-.38-.13l.25-.5Z"/>
  <path class="cls-7" d="M61.36,60.25h.5c-.04.12-.08.25-.13.38h-.25c-.04.12-.08.25-.13.38q-.14-.47,0-.75Z"/>
  <path class="cls-165" d="M37.86,49.38l.25.13v.25q-.38.25-.65.2c-.07-.03-.15-.05-.23-.08.21-.17.41-.33.63-.5Z"/>
  <path class="cls-82" d="M27.36,48.5q.59.09.88.38v.25c-.46-.16-.6-.21-.88-.63Z"/>
  <path class="cls-166" d="M36.48,39.88c-.4.35-.72.44-1.25.5.26-.52.72-.53,1.25-.5Z"/>
  <path class="cls-50" d="M27.23,39.38q.83-.03,1.25.25c-.48.18-.79.05-1.25-.13v-.13Z"/>
  <path class="cls-144" d="M33.23,33.88c.26.43.27.76.25,1.25-.12-.08-.25-.17-.38-.25l.13-1Z"/>
  <path class="cls-163" d="M56.74,32.88h.13v1.25c-.21-.04-.41-.08-.63-.13.12-.08.25-.17.38-.25q.09-.45.13-.88Z"/>
  <path class="cls-100" d="M33.11,32.63q.25.13.34.34c.05.33,0,.58-.09.91-.26-.43-.27-.76-.25-1.25Z"/>
  <path class="cls-32" d="M29.98,31.75q.61.59.75.88c-.36-.07-.48-.11-.75-.38v-.5Z"/>
  <path class="cls-87" d="M33.61,29.62l.38.25q.02.45,0,.88c-.08-.04-.17-.08-.25-.13-.07-.33-.09-.66-.13-1Z"/>
  <path class="cls-73" d="M15.36,28.37c.17.51.08.85,0,1.38h-.13c-.04-.41-.08-.83-.13-1.25l.25-.13Z"/>
  <path class="cls-160" d="M35.98,18q.31.06.63.13c.04.21.08.41.13.63-.25-.21-.5-.41-.75-.63v-.13Z"/>
  <path class="cls-171" d="M32.61,10.75q.69.08.98.32.07.09.14.18-.69-.08-.98-.32c-.05-.06-.09-.12-.14-.18Z"/>
</svg>